<svg width="158" height="162" viewBox="0 0 158 162" fill="none" xmlns="http://www.w3.org/2000/svg">
<path d="M0.096 19V17.344C0.544 17.344 0.904 17.216 1.176 16.96C1.448 16.704 1.672 16.368 1.848 15.952C2.04 15.536 2.224 15.088 2.4 14.608L7.08 1.768H8.76L13.872 14.848C13.968 15.088 14.096 15.456 14.256 15.952C14.416 16.432 14.512 16.856 14.544 17.224C14.816 17.192 15.072 17.176 15.312 17.176C15.568 17.16 15.776 17.152 15.936 17.152V19H9.48V17.416C10.136 17.416 10.504 17.216 10.584 16.816C10.664 16.4 10.592 15.896 10.368 15.304L9.888 13.984L4.68 14.08L4.296 15.208C4.216 15.416 4.096 15.728 3.936 16.144C3.792 16.544 3.656 16.88 3.528 17.152C3.784 17.12 4.088 17.104 4.44 17.104C4.808 17.088 5.072 17.08 5.232 17.08V19H0.096ZM5.28 12.28H9.288L8.184 9.28C7.976 8.704 7.792 8.128 7.632 7.552C7.472 6.96 7.352 6.44 7.272 5.992H7.248C7.184 6.264 7.088 6.672 6.96 7.216C6.832 7.76 6.632 8.408 6.36 9.16L5.28 12.28ZM21.3426 19.384C20.3826 19.384 19.5346 19.136 18.7986 18.64C18.0786 18.144 17.5106 17.44 17.0946 16.528C16.6946 15.616 16.4946 14.544 16.4946 13.312C16.4946 12.016 16.7426 10.864 17.2386 9.856C17.7346 8.848 18.4306 8.056 19.3266 7.48C20.2226 6.904 21.2626 6.616 22.4466 6.616C22.8786 6.616 23.2626 6.664 23.5986 6.76C23.9506 6.84 24.2786 6.936 24.5826 7.048V5.464C24.5826 5.24 24.5906 4.92 24.6066 4.504C24.6226 4.088 24.6466 3.704 24.6786 3.352C24.4226 3.368 24.1186 3.384 23.7666 3.4C23.4146 3.416 23.1506 3.424 22.9746 3.424V1.6C24.0946 1.6 24.9506 1.52 25.5426 1.36C26.1346 1.2 26.5106 1.04 26.6706 0.879999H27.9666V15.136C27.9666 15.36 27.9586 15.68 27.9426 16.096C27.9266 16.496 27.9026 16.88 27.8706 17.248C28.1426 17.216 28.4306 17.2 28.7346 17.2C29.0386 17.184 29.2706 17.176 29.4306 17.176V19H24.8706C24.8546 18.824 24.8306 18.64 24.7986 18.448C24.7826 18.256 24.7586 18.072 24.7266 17.896C24.1986 18.44 23.6546 18.824 23.0946 19.048C22.5346 19.272 21.9506 19.384 21.3426 19.384ZM22.5906 17.2C23.0066 17.2 23.3906 17.096 23.7426 16.888C24.0946 16.664 24.3746 16.384 24.5826 16.048V8.848C24.4226 8.72 24.1826 8.616 23.8626 8.536C23.5426 8.44 23.2146 8.392 22.8786 8.392C22.1426 8.408 21.5666 8.64 21.1506 9.088C20.7346 9.536 20.4386 10.104 20.2626 10.792C20.1026 11.48 20.0226 12.2 20.0226 12.952C20.0226 13.624 20.1026 14.288 20.2626 14.944C20.4386 15.6 20.7106 16.144 21.0786 16.576C21.4626 16.992 21.9666 17.2 22.5906 17.2ZM35.6394 19.384C34.6794 19.384 33.8314 19.136 33.0954 18.64C32.3754 18.144 31.8074 17.44 31.3914 16.528C30.9914 15.616 30.7914 14.544 30.7914 13.312C30.7914 12.016 31.0394 10.864 31.5354 9.856C32.0314 8.848 32.7274 8.056 33.6234 7.48C34.5194 6.904 35.5594 6.616 36.7434 6.616C37.1754 6.616 37.5594 6.664 37.8954 6.76C38.2474 6.84 38.5754 6.936 38.8794 7.048V5.464C38.8794 5.24 38.8874 4.92 38.9034 4.504C38.9194 4.088 38.9434 3.704 38.9754 3.352C38.7194 3.368 38.4154 3.384 38.0634 3.4C37.7114 3.416 37.4474 3.424 37.2714 3.424V1.6C38.3914 1.6 39.2474 1.52 39.8394 1.36C40.4314 1.2 40.8074 1.04 40.9674 0.879999H42.2634V15.136C42.2634 15.36 42.2554 15.68 42.2394 16.096C42.2234 16.496 42.1994 16.88 42.1674 17.248C42.4394 17.216 42.7274 17.2 43.0314 17.2C43.3354 17.184 43.5674 17.176 43.7274 17.176V19H39.1674C39.1514 18.824 39.1274 18.64 39.0954 18.448C39.0794 18.256 39.0554 18.072 39.0234 17.896C38.4954 18.44 37.9514 18.824 37.3914 19.048C36.8314 19.272 36.2474 19.384 35.6394 19.384ZM36.8874 17.2C37.3034 17.2 37.6874 17.096 38.0394 16.888C38.3914 16.664 38.6714 16.384 38.8794 16.048V8.848C38.7194 8.72 38.4794 8.616 38.1594 8.536C37.8394 8.44 37.5114 8.392 37.1754 8.392C36.4394 8.408 35.8634 8.64 35.4474 9.088C35.0314 9.536 34.7354 10.104 34.5594 10.792C34.3994 11.48 34.3194 12.2 34.3194 12.952C34.3194 13.624 34.3994 14.288 34.5594 14.944C34.7354 15.6 35.0074 16.144 35.3754 16.576C35.7594 16.992 36.2634 17.2 36.8874 17.2ZM45.3043 17.44C45.9603 17.44 46.3603 17.248 46.5043 16.864C46.6483 16.464 46.7203 15.944 46.7203 15.304V11.272C46.7203 10.984 46.7283 10.664 46.7443 10.312C46.7603 9.944 46.7843 9.584 46.8163 9.232C46.5603 9.248 46.2563 9.264 45.9043 9.28C45.5683 9.28 45.3123 9.288 45.1363 9.304V7.48H46.0963C46.7203 7.48 47.2883 7.4 47.8003 7.24C48.3283 7.08 48.6723 6.92 48.8323 6.76H50.0083C50.0403 6.92 50.0643 7.224 50.0803 7.672C50.0963 8.104 50.1043 8.488 50.1043 8.824C50.7443 8.024 51.3443 7.456 51.9043 7.12C52.4643 6.784 53.0323 6.616 53.6083 6.616C54.1683 6.616 54.6563 6.776 55.0723 7.096C55.4883 7.4 55.6963 7.904 55.6963 8.608C55.6963 8.848 55.6403 9.104 55.5283 9.376C55.4163 9.632 55.2403 9.848 55.0003 10.024C54.7603 10.2 54.4323 10.288 54.0163 10.288C53.6963 10.288 53.3683 10.192 53.0323 10C52.6963 9.808 52.5043 9.44 52.4563 8.896C52.1363 8.896 51.8163 9.032 51.4963 9.304C51.1763 9.56 50.8883 9.872 50.6323 10.24C50.3923 10.592 50.2243 10.92 50.1283 11.224V15.136C50.1283 15.36 50.1203 15.68 50.1043 16.096C50.0883 16.496 50.0643 16.88 50.0323 17.248C50.2883 17.216 50.5683 17.2 50.8723 17.2C51.1923 17.184 51.4323 17.176 51.5923 17.176V19H45.3043V17.44ZM62.3361 19.384C61.1681 19.384 60.1361 19.128 59.2401 18.616C58.3441 18.088 57.6481 17.352 57.1521 16.408C56.6561 15.448 56.4081 14.32 56.4081 13.024C56.4081 11.904 56.6561 10.856 57.1521 9.88C57.6481 8.904 58.3441 8.12 59.2401 7.528C60.1521 6.92 61.2081 6.616 62.4081 6.616C63.0801 6.616 63.7361 6.712 64.3761 6.904C65.0161 7.08 65.5921 7.392 66.1041 7.84C66.6321 8.288 67.0481 8.896 67.3521 9.664C67.6721 10.432 67.8241 11.392 67.8081 12.544L59.9361 12.688C59.9361 13.552 60.0401 14.328 60.2481 15.016C60.4721 15.704 60.8321 16.248 61.3281 16.648C61.8241 17.048 62.4881 17.248 63.3201 17.248C63.8001 17.248 64.3681 17.12 65.0241 16.864C65.6961 16.592 66.3041 16.12 66.8481 15.448L67.9281 16.456C67.3521 17.272 66.7361 17.896 66.0801 18.328C65.4241 18.744 64.7681 19.024 64.1121 19.168C63.4721 19.312 62.8801 19.384 62.3361 19.384ZM60.0801 11.008H64.4961C64.4801 10.016 64.2881 9.32 63.9201 8.92C63.5521 8.504 63.0881 8.296 62.5281 8.296C61.8241 8.296 61.2721 8.552 60.8721 9.064C60.4721 9.56 60.2081 10.208 60.0801 11.008ZM75.0821 19.384C74.3941 19.384 73.7221 19.296 73.0661 19.12C72.4101 18.944 71.8981 18.72 71.5301 18.448L71.5781 19.168H69.7541L69.6581 15.04H71.2181C71.2981 15.776 71.6821 16.4 72.3701 16.912C73.0581 17.408 73.9141 17.656 74.9381 17.656C75.3381 17.656 75.7141 17.56 76.0661 17.368C76.4181 17.176 76.5941 16.872 76.5941 16.456C76.5781 15.992 76.3301 15.648 75.8501 15.424C75.3861 15.2 74.7061 14.912 73.8101 14.56C73.3141 14.368 72.8101 14.168 72.2981 13.96C71.8021 13.752 71.3381 13.504 70.9061 13.216C70.4901 12.912 70.1541 12.544 69.8981 12.112C69.6421 11.664 69.5141 11.12 69.5141 10.48C69.5141 9.856 69.6661 9.248 69.9701 8.656C70.2901 8.064 70.7861 7.576 71.4581 7.192C72.1301 6.808 72.9861 6.616 74.0261 6.616C74.4581 6.616 74.9461 6.688 75.4901 6.832C76.0501 6.96 76.5221 7.16 76.9061 7.432V6.736H78.7301V10.984H77.1701C77.0261 10.152 76.6581 9.496 76.0661 9.016C75.4741 8.536 74.7461 8.296 73.8821 8.296C73.4821 8.296 73.1141 8.392 72.7781 8.584C72.4581 8.776 72.2981 9.104 72.2981 9.568C72.2981 9.936 72.4261 10.232 72.6821 10.456C72.9381 10.664 73.2901 10.84 73.7381 10.984C74.1861 11.128 74.6821 11.296 75.2261 11.488C76.0421 11.76 76.7621 12.08 77.3861 12.448C78.0261 12.816 78.5301 13.264 78.8981 13.792C79.2661 14.304 79.4501 14.936 79.4501 15.688C79.4501 16.52 79.2421 17.208 78.8261 17.752C78.4101 18.296 77.8661 18.704 77.1941 18.976C76.5381 19.248 75.8341 19.384 75.0821 19.384ZM86.7306 19.384C86.0426 19.384 85.3706 19.296 84.7146 19.12C84.0586 18.944 83.5466 18.72 83.1786 18.448L83.2266 19.168H81.4026L81.3066 15.04H82.8666C82.9466 15.776 83.3306 16.4 84.0186 16.912C84.7066 17.408 85.5626 17.656 86.5866 17.656C86.9866 17.656 87.3626 17.56 87.7146 17.368C88.0666 17.176 88.2426 16.872 88.2426 16.456C88.2266 15.992 87.9786 15.648 87.4986 15.424C87.0346 15.2 86.3546 14.912 85.4586 14.56C84.9626 14.368 84.4586 14.168 83.9466 13.96C83.4506 13.752 82.9866 13.504 82.5546 13.216C82.1386 12.912 81.8026 12.544 81.5466 12.112C81.2906 11.664 81.1626 11.12 81.1626 10.48C81.1626 9.856 81.3146 9.248 81.6186 8.656C81.9386 8.064 82.4346 7.576 83.1066 7.192C83.7786 6.808 84.6346 6.616 85.6746 6.616C86.1066 6.616 86.5946 6.688 87.1386 6.832C87.6986 6.96 88.1706 7.16 88.5546 7.432V6.736H90.3786V10.984H88.8186C88.6746 10.152 88.3066 9.496 87.7146 9.016C87.1226 8.536 86.3946 8.296 85.5306 8.296C85.1306 8.296 84.7626 8.392 84.4266 8.584C84.1066 8.776 83.9466 9.104 83.9466 9.568C83.9466 9.936 84.0746 10.232 84.3306 10.456C84.5866 10.664 84.9386 10.84 85.3866 10.984C85.8346 11.128 86.3306 11.296 86.8746 11.488C87.6906 11.76 88.4106 12.08 89.0346 12.448C89.6746 12.816 90.1786 13.264 90.5466 13.792C90.9146 14.304 91.0986 14.936 91.0986 15.688C91.0986 16.52 90.8906 17.208 90.4746 17.752C90.0586 18.296 89.5146 18.704 88.8426 18.976C88.1866 19.248 87.4826 19.384 86.7306 19.384ZM0.99 65V64.406C1.446 64.394 1.758 64.292 1.926 64.1C2.094 63.896 2.184 63.626 2.196 63.29C2.22 62.942 2.232 62.546 2.232 62.102V54.542C2.232 53.894 2.25 53.42 2.286 53.12C2.07 53.132 1.854 53.144 1.638 53.156C1.422 53.168 1.206 53.18 0.99 53.192V52.4C1.65 52.388 2.31 52.382 2.97 52.382C3.642 52.37 4.338 52.364 5.058 52.364C6.45 52.364 7.536 52.61 8.316 53.102C9.108 53.594 9.492 54.374 9.468 55.442C9.468 55.826 9.354 56.21 9.126 56.594C8.91 56.978 8.58 57.32 8.136 57.62C7.704 57.908 7.158 58.112 6.498 58.232V58.268C7.818 58.268 8.814 58.574 9.486 59.186C10.158 59.786 10.494 60.548 10.494 61.472C10.494 62.204 10.308 62.834 9.936 63.362C9.564 63.89 9.06 64.298 8.424 64.586C7.788 64.862 7.062 65 6.246 65H0.99ZM3.798 58.106L5.112 58.07C5.796 58.058 6.336 57.92 6.732 57.656C7.128 57.38 7.41 57.038 7.578 56.63C7.758 56.222 7.842 55.796 7.83 55.352C7.818 54.704 7.668 54.212 7.38 53.876C7.104 53.54 6.762 53.312 6.354 53.192C5.946 53.072 5.544 53.012 5.148 53.012C4.56 53.012 4.188 53.138 4.032 53.39C3.876 53.642 3.798 54.098 3.798 54.758V58.106ZM3.744 64.28C3.936 64.292 4.164 64.304 4.428 64.316C4.704 64.316 4.956 64.316 5.184 64.316C5.424 64.316 5.58 64.316 5.652 64.316C6.576 64.316 7.32 64.088 7.884 63.632C8.46 63.164 8.748 62.48 8.748 61.58C8.748 60.848 8.604 60.278 8.316 59.87C8.028 59.462 7.65 59.174 7.182 59.006C6.714 58.838 6.204 58.754 5.652 58.754C5.292 58.754 4.962 58.76 4.662 58.772C4.374 58.772 4.086 58.784 3.798 58.808V62.876C3.798 63.5 3.78 63.968 3.744 64.28ZM11.8486 64.46C12.2206 64.46 12.4786 64.37 12.6226 64.19C12.7666 63.998 12.8506 63.74 12.8746 63.416C12.8986 63.08 12.9106 62.696 12.9106 62.264V58.16C12.9106 57.968 12.9106 57.776 12.9106 57.584C12.9226 57.392 12.9466 57.194 12.9826 56.99C12.7666 57.002 12.5506 57.014 12.3346 57.026C12.1306 57.026 11.9206 57.032 11.7046 57.044V56.306H12.2626C12.7786 56.306 13.1326 56.258 13.3246 56.162C13.5286 56.054 13.6966 55.94 13.8286 55.82H14.3506C14.3746 56.012 14.3926 56.252 14.4046 56.54C14.4166 56.816 14.4286 57.17 14.4406 57.602C14.6206 57.302 14.8666 57.008 15.1786 56.72C15.4906 56.432 15.8386 56.192 16.2226 56C16.6186 55.808 17.0326 55.712 17.4646 55.712C17.8006 55.712 18.0946 55.802 18.3466 55.982C18.5986 56.162 18.7246 56.45 18.7246 56.846C18.7246 57.002 18.6526 57.188 18.5086 57.404C18.3766 57.62 18.1486 57.722 17.8246 57.71C17.5606 57.698 17.3506 57.596 17.1946 57.404C17.0386 57.2 16.9786 56.966 17.0146 56.702C16.5586 56.678 16.0966 56.852 15.6286 57.224C15.1606 57.596 14.7706 58.076 14.4586 58.664L14.4766 63.092C14.4766 63.332 14.4706 63.548 14.4586 63.74C14.4586 63.92 14.4406 64.112 14.4046 64.316C14.5966 64.304 14.7826 64.298 14.9626 64.298C15.1546 64.286 15.3466 64.274 15.5386 64.262V65H11.8486V64.46ZM24.9847 65C24.9487 64.796 24.9247 64.616 24.9127 64.46C24.9007 64.304 24.8827 64.142 24.8587 63.974C24.4507 64.382 24.0067 64.706 23.5267 64.946C23.0587 65.174 22.5607 65.288 22.0327 65.288C21.1207 65.288 20.4427 65.084 19.9987 64.676C19.5547 64.256 19.3327 63.746 19.3327 63.146C19.3327 62.594 19.5007 62.12 19.8367 61.724C20.1847 61.316 20.6287 60.986 21.1687 60.734C21.7207 60.47 22.3147 60.278 22.9507 60.158C23.5987 60.026 24.2227 59.966 24.8227 59.978V58.862C24.8227 58.442 24.7867 58.046 24.7147 57.674C24.6427 57.302 24.4867 56.996 24.2467 56.756C24.0067 56.516 23.6227 56.39 23.0947 56.378C22.7467 56.366 22.3867 56.432 22.0147 56.576C21.6547 56.72 21.3907 56.966 21.2227 57.314C21.3187 57.41 21.3787 57.524 21.4027 57.656C21.4387 57.776 21.4567 57.89 21.4567 57.998C21.4567 58.142 21.3967 58.31 21.2767 58.502C21.1567 58.682 20.9467 58.766 20.6467 58.754C20.3947 58.754 20.2027 58.67 20.0707 58.502C19.9387 58.322 19.8727 58.112 19.8727 57.872C19.8727 57.464 20.0227 57.098 20.3227 56.774C20.6347 56.45 21.0607 56.192 21.6007 56C22.1407 55.808 22.7527 55.712 23.4367 55.712C24.4447 55.712 25.1887 55.982 25.6687 56.522C26.1487 57.05 26.3827 57.89 26.3707 59.042C26.3707 59.714 26.3647 60.392 26.3527 61.076C26.3527 61.748 26.3527 62.42 26.3527 63.092C26.3527 63.284 26.3467 63.476 26.3347 63.668C26.3227 63.86 26.3047 64.076 26.2807 64.316C26.4967 64.304 26.7067 64.292 26.9107 64.28C27.1267 64.268 27.3427 64.256 27.5587 64.244V65H24.9847ZM24.8227 60.59C24.4147 60.602 23.9827 60.656 23.5267 60.752C23.0827 60.836 22.6687 60.968 22.2847 61.148C21.9127 61.328 21.6067 61.568 21.3667 61.868C21.1387 62.156 21.0307 62.51 21.0427 62.93C21.0667 63.374 21.2107 63.71 21.4747 63.938C21.7507 64.154 22.0747 64.262 22.4467 64.262C22.9387 64.262 23.3647 64.172 23.7247 63.992C24.0967 63.8 24.4627 63.536 24.8227 63.2C24.8107 63.068 24.8047 62.924 24.8047 62.768C24.8047 62.612 24.8047 62.45 24.8047 62.282C24.8047 62.222 24.8047 62.03 24.8047 61.706C24.8167 61.382 24.8227 61.01 24.8227 60.59ZM33.132 69.878C32.052 69.878 31.182 69.758 30.522 69.518C29.862 69.278 29.382 68.972 29.082 68.6C28.782 68.228 28.632 67.844 28.632 67.448C28.632 67.076 28.716 66.746 28.884 66.458C29.064 66.182 29.28 65.942 29.532 65.738C29.796 65.534 30.048 65.384 30.288 65.288C29.904 65.156 29.598 64.982 29.37 64.766C29.154 64.538 29.046 64.238 29.046 63.866C29.046 63.446 29.214 63.056 29.55 62.696C29.886 62.324 30.318 62.096 30.846 62.012C30.294 61.748 29.85 61.382 29.514 60.914C29.19 60.446 29.028 59.9 29.028 59.276C29.028 58.556 29.214 57.932 29.586 57.404C29.958 56.864 30.432 56.45 31.008 56.162C31.596 55.862 32.202 55.712 32.826 55.712C33.642 55.712 34.404 55.934 35.112 56.378C35.292 55.874 35.58 55.46 35.976 55.136C36.372 54.8 36.81 54.632 37.29 54.632C37.602 54.632 37.836 54.716 37.992 54.884C38.16 55.04 38.244 55.256 38.244 55.532C38.244 55.664 38.184 55.826 38.064 56.018C37.956 56.198 37.758 56.282 37.47 56.27C37.266 56.27 37.098 56.21 36.966 56.09C36.834 55.97 36.75 55.82 36.714 55.64C36.414 55.688 36.18 55.832 36.012 56.072C35.844 56.3 35.73 56.552 35.67 56.828C35.958 57.092 36.186 57.41 36.354 57.782C36.534 58.154 36.624 58.55 36.624 58.97C36.624 59.642 36.444 60.242 36.084 60.77C35.736 61.298 35.274 61.712 34.698 62.012C34.122 62.3 33.498 62.444 32.826 62.444C32.598 62.444 32.4 62.432 32.232 62.408C32.064 62.372 31.86 62.354 31.62 62.354C31.176 62.354 30.816 62.462 30.54 62.678C30.264 62.894 30.168 63.152 30.252 63.452C30.348 63.74 30.642 63.926 31.134 64.01C31.626 64.082 32.286 64.136 33.114 64.172C34.038 64.208 34.83 64.316 35.49 64.496C36.15 64.676 36.654 64.952 37.002 65.324C37.362 65.708 37.542 66.224 37.542 66.872C37.542 67.352 37.41 67.778 37.146 68.15C36.894 68.534 36.552 68.852 36.12 69.104C35.7 69.356 35.226 69.548 34.698 69.68C34.182 69.812 33.66 69.878 33.132 69.878ZM32.88 61.796C33.552 61.796 34.05 61.562 34.374 61.094C34.71 60.614 34.878 60.026 34.878 59.33C34.878 58.802 34.8 58.31 34.644 57.854C34.488 57.398 34.254 57.032 33.942 56.756C33.642 56.48 33.258 56.342 32.79 56.342C32.142 56.342 31.638 56.588 31.278 57.08C30.93 57.56 30.756 58.16 30.756 58.88C30.756 59.744 30.942 60.446 31.314 60.986C31.686 61.526 32.208 61.796 32.88 61.796ZM33.114 69.176C34.146 69.176 34.95 68.984 35.526 68.6C36.102 68.216 36.39 67.766 36.39 67.25C36.39 66.806 36.24 66.464 35.94 66.224C35.64 65.996 35.232 65.834 34.716 65.738C34.2 65.654 33.606 65.606 32.934 65.594C32.61 65.582 32.292 65.564 31.98 65.54C31.668 65.528 31.368 65.498 31.08 65.45C30.396 65.906 30.054 66.5 30.054 67.232C30.054 67.82 30.33 68.288 30.882 68.636C31.446 68.996 32.19 69.176 33.114 69.176ZM44.2152 65C44.1792 64.796 44.1552 64.616 44.1432 64.46C44.1312 64.304 44.1132 64.142 44.0892 63.974C43.6812 64.382 43.2372 64.706 42.7572 64.946C42.2892 65.174 41.7912 65.288 41.2632 65.288C40.3512 65.288 39.6732 65.084 39.2292 64.676C38.7852 64.256 38.5632 63.746 38.5632 63.146C38.5632 62.594 38.7312 62.12 39.0672 61.724C39.4152 61.316 39.8592 60.986 40.3992 60.734C40.9512 60.47 41.5452 60.278 42.1812 60.158C42.8292 60.026 43.4532 59.966 44.0532 59.978V58.862C44.0532 58.442 44.0172 58.046 43.9452 57.674C43.8732 57.302 43.7172 56.996 43.4772 56.756C43.2372 56.516 42.8532 56.39 42.3252 56.378C41.9772 56.366 41.6172 56.432 41.2452 56.576C40.8852 56.72 40.6212 56.966 40.4532 57.314C40.5492 57.41 40.6092 57.524 40.6332 57.656C40.6692 57.776 40.6872 57.89 40.6872 57.998C40.6872 58.142 40.6272 58.31 40.5072 58.502C40.3872 58.682 40.1772 58.766 39.8772 58.754C39.6252 58.754 39.4332 58.67 39.3012 58.502C39.1692 58.322 39.1032 58.112 39.1032 57.872C39.1032 57.464 39.2532 57.098 39.5532 56.774C39.8652 56.45 40.2912 56.192 40.8312 56C41.3712 55.808 41.9832 55.712 42.6672 55.712C43.6752 55.712 44.4192 55.982 44.8992 56.522C45.3792 57.05 45.6132 57.89 45.6012 59.042C45.6012 59.714 45.5952 60.392 45.5832 61.076C45.5832 61.748 45.5832 62.42 45.5832 63.092C45.5832 63.284 45.5772 63.476 45.5652 63.668C45.5532 63.86 45.5352 64.076 45.5112 64.316C45.7272 64.304 45.9372 64.292 46.1412 64.28C46.3572 64.268 46.5732 64.256 46.7892 64.244V65H44.2152ZM44.0532 60.59C43.6452 60.602 43.2132 60.656 42.7572 60.752C42.3132 60.836 41.8992 60.968 41.5152 61.148C41.1432 61.328 40.8372 61.568 40.5972 61.868C40.3692 62.156 40.2612 62.51 40.2732 62.93C40.2972 63.374 40.4412 63.71 40.7052 63.938C40.9812 64.154 41.3052 64.262 41.6772 64.262C42.1692 64.262 42.5952 64.172 42.9552 63.992C43.3272 63.8 43.6932 63.536 44.0532 63.2C44.0412 63.068 44.0352 62.924 44.0352 62.768C44.0352 62.612 44.0352 62.45 44.0352 62.282C44.0352 62.222 44.0352 62.03 44.0352 61.706C44.0472 61.382 44.0532 61.01 44.0532 60.59ZM49.3564 68.222L48.8704 67.862C49.0024 67.694 49.1404 67.454 49.2844 67.142C49.4284 66.83 49.5424 66.482 49.6264 66.098C49.7224 65.726 49.7464 65.36 49.6984 65C49.5424 65.072 49.3924 65.108 49.2484 65.108C49.0204 65.108 48.8224 65.024 48.6544 64.856C48.4984 64.688 48.4204 64.478 48.4204 64.226C48.4204 63.89 48.5164 63.632 48.7084 63.452C48.9124 63.272 49.1464 63.182 49.4104 63.182C49.8304 63.182 50.1484 63.344 50.3644 63.668C50.5804 63.98 50.6884 64.364 50.6884 64.82C50.6884 65.12 50.6284 65.486 50.5084 65.918C50.4004 66.35 50.2444 66.77 50.0404 67.178C49.8484 67.598 49.6204 67.946 49.3564 68.222ZM57.5037 65V64.406C57.9597 64.394 58.2717 64.292 58.4397 64.1C58.6077 63.896 58.6977 63.626 58.7097 63.29C58.7337 62.942 58.7457 62.546 58.7457 62.102V54.542C58.7457 53.894 58.7637 53.42 58.7997 53.12C58.5837 53.132 58.3677 53.144 58.1517 53.156C57.9357 53.168 57.7197 53.18 57.5037 53.192V52.4C58.1637 52.388 58.8237 52.382 59.4837 52.382C60.1557 52.37 60.8517 52.364 61.5717 52.364C62.9637 52.364 64.0497 52.61 64.8297 53.102C65.6217 53.594 66.0057 54.374 65.9817 55.442C65.9817 55.826 65.8677 56.21 65.6397 56.594C65.4237 56.978 65.0937 57.32 64.6497 57.62C64.2177 57.908 63.6717 58.112 63.0117 58.232V58.268C64.3317 58.268 65.3277 58.574 65.9997 59.186C66.6717 59.786 67.0077 60.548 67.0077 61.472C67.0077 62.204 66.8217 62.834 66.4497 63.362C66.0777 63.89 65.5737 64.298 64.9377 64.586C64.3017 64.862 63.5757 65 62.7597 65H57.5037ZM60.3117 58.106L61.6257 58.07C62.3097 58.058 62.8497 57.92 63.2457 57.656C63.6417 57.38 63.9237 57.038 64.0917 56.63C64.2717 56.222 64.3557 55.796 64.3437 55.352C64.3317 54.704 64.1817 54.212 63.8937 53.876C63.6177 53.54 63.2757 53.312 62.8677 53.192C62.4597 53.072 62.0577 53.012 61.6617 53.012C61.0737 53.012 60.7017 53.138 60.5457 53.39C60.3897 53.642 60.3117 54.098 60.3117 54.758V58.106ZM60.2577 64.28C60.4497 64.292 60.6777 64.304 60.9417 64.316C61.2177 64.316 61.4697 64.316 61.6977 64.316C61.9377 64.316 62.0937 64.316 62.1657 64.316C63.0897 64.316 63.8337 64.088 64.3977 63.632C64.9737 63.164 65.2617 62.48 65.2617 61.58C65.2617 60.848 65.1177 60.278 64.8297 59.87C64.5417 59.462 64.1637 59.174 63.6957 59.006C63.2277 58.838 62.7177 58.754 62.1657 58.754C61.8057 58.754 61.4757 58.76 61.1757 58.772C60.8877 58.772 60.5997 58.784 60.3117 58.808V62.876C60.3117 63.5 60.2937 63.968 60.2577 64.28ZM73.9749 65C73.9389 64.796 73.9149 64.616 73.9029 64.46C73.8909 64.304 73.8729 64.142 73.8489 63.974C73.4409 64.382 72.9969 64.706 72.5169 64.946C72.0489 65.174 71.5509 65.288 71.0229 65.288C70.1109 65.288 69.4329 65.084 68.9889 64.676C68.5449 64.256 68.3229 63.746 68.3229 63.146C68.3229 62.594 68.4909 62.12 68.8269 61.724C69.1749 61.316 69.6189 60.986 70.1589 60.734C70.7109 60.47 71.3049 60.278 71.9409 60.158C72.5889 60.026 73.2129 59.966 73.8129 59.978V58.862C73.8129 58.442 73.7769 58.046 73.7049 57.674C73.6329 57.302 73.4769 56.996 73.2369 56.756C72.9969 56.516 72.6129 56.39 72.0849 56.378C71.7369 56.366 71.3769 56.432 71.0049 56.576C70.6449 56.72 70.3809 56.966 70.2129 57.314C70.3089 57.41 70.3689 57.524 70.3929 57.656C70.4289 57.776 70.4469 57.89 70.4469 57.998C70.4469 58.142 70.3869 58.31 70.2669 58.502C70.1469 58.682 69.9369 58.766 69.6369 58.754C69.3849 58.754 69.1929 58.67 69.0609 58.502C68.9289 58.322 68.8629 58.112 68.8629 57.872C68.8629 57.464 69.0129 57.098 69.3129 56.774C69.6249 56.45 70.0509 56.192 70.5909 56C71.1309 55.808 71.7429 55.712 72.4269 55.712C73.4349 55.712 74.1789 55.982 74.6589 56.522C75.1389 57.05 75.3729 57.89 75.3609 59.042C75.3609 59.714 75.3549 60.392 75.3429 61.076C75.3429 61.748 75.3429 62.42 75.3429 63.092C75.3429 63.284 75.3369 63.476 75.3249 63.668C75.3129 63.86 75.2949 64.076 75.2709 64.316C75.4869 64.304 75.6969 64.292 75.9009 64.28C76.1169 64.268 76.3329 64.256 76.5489 64.244V65H73.9749ZM73.8129 60.59C73.4049 60.602 72.9729 60.656 72.5169 60.752C72.0729 60.836 71.6589 60.968 71.2749 61.148C70.9029 61.328 70.5969 61.568 70.3569 61.868C70.1289 62.156 70.0209 62.51 70.0329 62.93C70.0569 63.374 70.2009 63.71 70.4649 63.938C70.7409 64.154 71.0649 64.262 71.4369 64.262C71.9289 64.262 72.3549 64.172 72.7149 63.992C73.0869 63.8 73.4529 63.536 73.8129 63.2C73.8009 63.068 73.7949 62.924 73.7949 62.768C73.7949 62.612 73.7949 62.45 73.7949 62.282C73.7949 62.222 73.7949 62.03 73.7949 61.706C73.8069 61.382 73.8129 61.01 73.8129 60.59ZM77.7842 65V64.46C78.1562 64.46 78.4142 64.37 78.5582 64.19C78.7022 63.998 78.7862 63.74 78.8102 63.416C78.8342 63.08 78.8462 62.696 78.8462 62.264L78.8642 58.16C78.8642 57.968 78.8642 57.776 78.8642 57.584C78.8762 57.392 78.9002 57.194 78.9362 56.99C78.7202 57.002 78.5042 57.014 78.2882 57.026C78.0842 57.038 77.8742 57.05 77.6582 57.062V56.306C78.1862 56.306 78.5822 56.282 78.8462 56.234C79.1222 56.186 79.3262 56.126 79.4582 56.054C79.5902 55.982 79.6982 55.904 79.7822 55.82H80.3042C80.3282 55.952 80.3402 56.108 80.3402 56.288C80.3522 56.456 80.3642 56.666 80.3762 56.918C80.7602 56.57 81.2162 56.282 81.7442 56.054C82.2722 55.826 82.7942 55.712 83.3102 55.712C84.3542 55.712 85.1162 56.042 85.5962 56.702C86.0762 57.35 86.3162 58.364 86.3162 59.744V63.092C86.3162 63.332 86.3102 63.548 86.2982 63.74C86.2982 63.92 86.2802 64.112 86.2442 64.316C86.4362 64.304 86.6222 64.298 86.8022 64.298C86.9942 64.286 87.1862 64.274 87.3782 64.262V65H83.7062V64.46C84.0782 64.46 84.3362 64.37 84.4802 64.19C84.6242 63.998 84.7082 63.74 84.7322 63.416C84.7562 63.08 84.7682 62.696 84.7682 62.264V59.744C84.7562 58.712 84.5822 57.932 84.2462 57.404C83.9222 56.876 83.4062 56.618 82.6982 56.63C82.2662 56.642 81.8402 56.756 81.4202 56.972C81.0122 57.188 80.6702 57.464 80.3942 57.8C80.4062 57.896 80.4122 58.004 80.4122 58.124C80.4122 58.244 80.4122 58.37 80.4122 58.502L80.3942 63.092C80.3942 63.332 80.3882 63.548 80.3762 63.74C80.3762 63.92 80.3582 64.112 80.3222 64.316C80.5142 64.304 80.7002 64.298 80.8802 64.298C81.0722 64.286 81.2642 64.274 81.4562 64.262V65H77.7842ZM92.5698 65.288C91.8378 65.288 91.1778 65.108 90.5898 64.748C90.0018 64.376 89.5338 63.848 89.1858 63.164C88.8498 62.48 88.6818 61.676 88.6818 60.752C88.6818 59.768 88.8798 58.898 89.2758 58.142C89.6718 57.386 90.2178 56.792 90.9138 56.36C91.6218 55.928 92.4198 55.712 93.3078 55.712C93.7038 55.712 94.0938 55.766 94.4778 55.874C94.8738 55.97 95.1858 56.084 95.4138 56.216V53.75C95.4138 53.558 95.4138 53.378 95.4138 53.21C95.4258 53.03 95.4438 52.82 95.4678 52.58C95.2518 52.592 95.0358 52.604 94.8198 52.616C94.6158 52.628 94.4058 52.64 94.1898 52.652V51.896C94.7178 51.896 95.1258 51.872 95.4138 51.824C95.7018 51.776 95.9178 51.716 96.0618 51.644C96.2178 51.572 96.3378 51.494 96.4218 51.41H96.9438V63.092C96.9438 63.284 96.9378 63.476 96.9258 63.668C96.9138 63.86 96.8958 64.076 96.8718 64.316C97.0878 64.304 97.2978 64.292 97.5018 64.28C97.7178 64.268 97.9338 64.256 98.1498 64.244V65H95.5758C95.5158 64.676 95.4738 64.364 95.4498 64.064C95.1138 64.436 94.6998 64.736 94.2078 64.964C93.7158 65.18 93.1698 65.288 92.5698 65.288ZM93.2178 64.406C93.6138 64.406 94.0098 64.292 94.4058 64.064C94.8138 63.836 95.1498 63.554 95.4138 63.218C95.4018 63.074 95.3958 62.924 95.3958 62.768C95.3958 62.6 95.3958 62.42 95.3958 62.228L95.4138 57.044C95.1258 56.828 94.8078 56.672 94.4598 56.576C94.1238 56.468 93.7758 56.414 93.4158 56.414C92.8158 56.414 92.2938 56.588 91.8498 56.936C91.4058 57.284 91.0698 57.77 90.8418 58.394C90.6138 59.018 90.5118 59.75 90.5358 60.59C90.5598 61.322 90.6738 61.976 90.8778 62.552C91.0938 63.128 91.3938 63.584 91.7778 63.92C92.1738 64.244 92.6538 64.406 93.2178 64.406ZM103.274 65.288C102.626 65.288 102.08 65.168 101.636 64.928C101.204 64.688 100.874 64.28 100.646 63.704C100.43 63.128 100.322 62.348 100.322 61.364V58.16C100.322 57.968 100.322 57.776 100.322 57.584C100.334 57.392 100.358 57.194 100.394 56.99C100.19 57.002 99.9796 57.014 99.7636 57.026C99.5596 57.026 99.3556 57.032 99.1516 57.044V56.306H99.7096C100.226 56.306 100.598 56.258 100.826 56.162C101.066 56.054 101.252 55.94 101.384 55.82H101.906V61.31C101.906 62.342 102.05 63.116 102.338 63.632C102.638 64.136 103.142 64.382 103.85 64.37C104.306 64.358 104.738 64.22 105.146 63.956C105.566 63.68 105.902 63.356 106.154 62.984V58.358C106.154 58.07 106.16 57.824 106.172 57.62C106.184 57.404 106.208 57.194 106.244 56.99C106.028 57.002 105.812 57.014 105.596 57.026C105.38 57.026 105.164 57.032 104.948 57.044V56.306H105.506C106.022 56.306 106.394 56.258 106.622 56.162C106.862 56.054 107.048 55.94 107.18 55.82H107.702L107.684 62.624C107.684 62.816 107.678 63.086 107.666 63.434C107.654 63.782 107.636 64.076 107.612 64.316C107.828 64.304 108.044 64.292 108.26 64.28C108.476 64.268 108.692 64.256 108.908 64.244V65H106.334C106.298 64.796 106.268 64.604 106.244 64.424C106.232 64.244 106.22 64.076 106.208 63.92C105.836 64.292 105.386 64.616 104.858 64.892C104.33 65.156 103.802 65.288 103.274 65.288ZM110.216 65V64.46C110.588 64.46 110.846 64.37 110.99 64.19C111.134 63.998 111.218 63.74 111.242 63.416C111.266 63.08 111.278 62.696 111.278 62.264L111.296 58.16C111.296 57.968 111.296 57.776 111.296 57.584C111.308 57.392 111.332 57.194 111.368 56.99C111.152 57.002 110.936 57.014 110.72 57.026C110.516 57.038 110.306 57.05 110.09 57.062V56.306C110.618 56.306 111.014 56.282 111.278 56.234C111.554 56.186 111.758 56.126 111.89 56.054C112.022 55.982 112.13 55.904 112.214 55.82H112.736C112.76 55.952 112.772 56.108 112.772 56.288C112.784 56.456 112.796 56.666 112.808 56.918C113.192 56.57 113.648 56.282 114.176 56.054C114.704 55.826 115.226 55.712 115.742 55.712C116.786 55.712 117.548 56.042 118.028 56.702C118.508 57.35 118.748 58.364 118.748 59.744V63.092C118.748 63.332 118.742 63.548 118.73 63.74C118.73 63.92 118.712 64.112 118.676 64.316C118.868 64.304 119.054 64.298 119.234 64.298C119.426 64.286 119.618 64.274 119.81 64.262V65H116.138V64.46C116.51 64.46 116.768 64.37 116.912 64.19C117.056 63.998 117.14 63.74 117.164 63.416C117.188 63.08 117.2 62.696 117.2 62.264V59.744C117.188 58.712 117.014 57.932 116.678 57.404C116.354 56.876 115.838 56.618 115.13 56.63C114.698 56.642 114.272 56.756 113.852 56.972C113.444 57.188 113.102 57.464 112.826 57.8C112.838 57.896 112.844 58.004 112.844 58.124C112.844 58.244 112.844 58.37 112.844 58.502L112.826 63.092C112.826 63.332 112.82 63.548 112.808 63.74C112.808 63.92 112.79 64.112 112.754 64.316C112.946 64.304 113.132 64.298 113.312 64.298C113.504 64.286 113.696 64.274 113.888 64.262V65H110.216ZM125.487 69.878C124.407 69.878 123.537 69.758 122.877 69.518C122.217 69.278 121.737 68.972 121.437 68.6C121.137 68.228 120.987 67.844 120.987 67.448C120.987 67.076 121.071 66.746 121.239 66.458C121.419 66.182 121.635 65.942 121.887 65.738C122.151 65.534 122.403 65.384 122.643 65.288C122.259 65.156 121.953 64.982 121.725 64.766C121.509 64.538 121.401 64.238 121.401 63.866C121.401 63.446 121.569 63.056 121.905 62.696C122.241 62.324 122.673 62.096 123.201 62.012C122.649 61.748 122.205 61.382 121.869 60.914C121.545 60.446 121.383 59.9 121.383 59.276C121.383 58.556 121.569 57.932 121.941 57.404C122.313 56.864 122.787 56.45 123.363 56.162C123.951 55.862 124.557 55.712 125.181 55.712C125.997 55.712 126.759 55.934 127.467 56.378C127.647 55.874 127.935 55.46 128.331 55.136C128.727 54.8 129.165 54.632 129.645 54.632C129.957 54.632 130.191 54.716 130.347 54.884C130.515 55.04 130.599 55.256 130.599 55.532C130.599 55.664 130.539 55.826 130.419 56.018C130.311 56.198 130.113 56.282 129.825 56.27C129.621 56.27 129.453 56.21 129.321 56.09C129.189 55.97 129.105 55.82 129.069 55.64C128.769 55.688 128.535 55.832 128.367 56.072C128.199 56.3 128.085 56.552 128.025 56.828C128.313 57.092 128.541 57.41 128.709 57.782C128.889 58.154 128.979 58.55 128.979 58.97C128.979 59.642 128.799 60.242 128.439 60.77C128.091 61.298 127.629 61.712 127.053 62.012C126.477 62.3 125.853 62.444 125.181 62.444C124.953 62.444 124.755 62.432 124.587 62.408C124.419 62.372 124.215 62.354 123.975 62.354C123.531 62.354 123.171 62.462 122.895 62.678C122.619 62.894 122.523 63.152 122.607 63.452C122.703 63.74 122.997 63.926 123.489 64.01C123.981 64.082 124.641 64.136 125.469 64.172C126.393 64.208 127.185 64.316 127.845 64.496C128.505 64.676 129.009 64.952 129.357 65.324C129.717 65.708 129.897 66.224 129.897 66.872C129.897 67.352 129.765 67.778 129.501 68.15C129.249 68.534 128.907 68.852 128.475 69.104C128.055 69.356 127.581 69.548 127.053 69.68C126.537 69.812 126.015 69.878 125.487 69.878ZM125.235 61.796C125.907 61.796 126.405 61.562 126.729 61.094C127.065 60.614 127.233 60.026 127.233 59.33C127.233 58.802 127.155 58.31 126.999 57.854C126.843 57.398 126.609 57.032 126.297 56.756C125.997 56.48 125.613 56.342 125.145 56.342C124.497 56.342 123.993 56.588 123.633 57.08C123.285 57.56 123.111 58.16 123.111 58.88C123.111 59.744 123.297 60.446 123.669 60.986C124.041 61.526 124.563 61.796 125.235 61.796ZM125.469 69.176C126.501 69.176 127.305 68.984 127.881 68.6C128.457 68.216 128.745 67.766 128.745 67.25C128.745 66.806 128.595 66.464 128.295 66.224C127.995 65.996 127.587 65.834 127.071 65.738C126.555 65.654 125.961 65.606 125.289 65.594C124.965 65.582 124.647 65.564 124.335 65.54C124.023 65.528 123.723 65.498 123.435 65.45C122.751 65.906 122.409 66.5 122.409 67.232C122.409 67.82 122.685 68.288 123.237 68.636C123.801 68.996 124.545 69.176 125.469 69.176ZM132.431 68.222L131.945 67.862C132.077 67.694 132.215 67.454 132.359 67.142C132.503 66.83 132.617 66.482 132.701 66.098C132.797 65.726 132.821 65.36 132.773 65C132.617 65.072 132.467 65.108 132.323 65.108C132.095 65.108 131.897 65.024 131.729 64.856C131.573 64.688 131.495 64.478 131.495 64.226C131.495 63.89 131.591 63.632 131.783 63.452C131.987 63.272 132.221 63.182 132.485 63.182C132.905 63.182 133.223 63.344 133.439 63.668C133.655 63.98 133.763 64.364 133.763 64.82C133.763 65.12 133.703 65.486 133.583 65.918C133.475 66.35 133.319 66.77 133.115 67.178C132.923 67.598 132.695 67.946 132.431 68.222ZM5.04 75.994C4.596 76.006 4.284 76.108 4.104 76.3C3.936 76.492 3.84 76.75 3.816 77.074C3.804 77.398 3.798 77.776 3.798 78.208V85.858C3.798 86.494 3.78 86.968 3.744 87.28C3.96 87.268 4.176 87.256 4.392 87.244C4.608 87.232 4.824 87.22 5.04 87.208V88H0.99V87.406C1.446 87.382 1.758 87.28 1.926 87.1C2.094 86.908 2.184 86.65 2.196 86.326C2.22 85.99 2.232 85.612 2.232 85.192V77.416C2.232 76.912 2.25 76.48 2.286 76.12C2.07 76.132 1.854 76.144 1.638 76.156C1.422 76.168 1.206 76.18 0.99 76.192V75.4H5.04V75.994ZM6.68067 88V87.46C7.05267 87.46 7.31067 87.37 7.45467 87.19C7.59867 86.998 7.68267 86.74 7.70667 86.416C7.73067 86.08 7.74267 85.696 7.74267 85.264L7.76067 81.16C7.76067 80.968 7.76067 80.776 7.76067 80.584C7.77267 80.392 7.79667 80.194 7.83267 79.99C7.61667 80.002 7.40067 80.014 7.18467 80.026C6.98067 80.038 6.77067 80.05 6.55467 80.062V79.306C7.08267 79.306 7.47867 79.282 7.74267 79.234C8.01867 79.186 8.22267 79.126 8.35467 79.054C8.48667 78.982 8.59467 78.904 8.67867 78.82H9.20067C9.22467 78.952 9.23667 79.108 9.23667 79.288C9.24867 79.456 9.26067 79.666 9.27267 79.918C9.65667 79.57 10.1127 79.282 10.6407 79.054C11.1687 78.826 11.6907 78.712 12.2067 78.712C13.2507 78.712 14.0127 79.042 14.4927 79.702C14.9727 80.35 15.2127 81.364 15.2127 82.744V86.092C15.2127 86.332 15.2067 86.548 15.1947 86.74C15.1947 86.92 15.1767 87.112 15.1407 87.316C15.3327 87.304 15.5187 87.298 15.6987 87.298C15.8907 87.286 16.0827 87.274 16.2747 87.262V88H12.6027V87.46C12.9747 87.46 13.2327 87.37 13.3767 87.19C13.5207 86.998 13.6047 86.74 13.6287 86.416C13.6527 86.08 13.6647 85.696 13.6647 85.264V82.744C13.6527 81.712 13.4787 80.932 13.1427 80.404C12.8187 79.876 12.3027 79.618 11.5947 79.63C11.1627 79.642 10.7367 79.756 10.3167 79.972C9.90867 80.188 9.56667 80.464 9.29067 80.8C9.30267 80.896 9.30867 81.004 9.30867 81.124C9.30867 81.244 9.30867 81.37 9.30867 81.502L9.29067 86.092C9.29067 86.332 9.28467 86.548 9.27267 86.74C9.27267 86.92 9.25467 87.112 9.21867 87.316C9.41067 87.304 9.59667 87.298 9.77667 87.298C9.96867 87.286 10.1607 87.274 10.3527 87.262V88H6.68067ZM21.4663 88.288C20.7343 88.288 20.0743 88.108 19.4863 87.748C18.8983 87.376 18.4303 86.848 18.0823 86.164C17.7463 85.48 17.5783 84.676 17.5783 83.752C17.5783 82.768 17.7763 81.898 18.1723 81.142C18.5683 80.386 19.1143 79.792 19.8103 79.36C20.5183 78.928 21.3163 78.712 22.2043 78.712C22.6003 78.712 22.9903 78.766 23.3743 78.874C23.7703 78.97 24.0823 79.084 24.3103 79.216V76.75C24.3103 76.558 24.3103 76.378 24.3103 76.21C24.3223 76.03 24.3403 75.82 24.3643 75.58C24.1483 75.592 23.9323 75.604 23.7163 75.616C23.5123 75.628 23.3023 75.64 23.0863 75.652V74.896C23.6143 74.896 24.0223 74.872 24.3103 74.824C24.5983 74.776 24.8143 74.716 24.9583 74.644C25.1143 74.572 25.2343 74.494 25.3183 74.41H25.8403V86.092C25.8403 86.284 25.8343 86.476 25.8223 86.668C25.8103 86.86 25.7923 87.076 25.7683 87.316C25.9843 87.304 26.1943 87.292 26.3983 87.28C26.6143 87.268 26.8303 87.256 27.0463 87.244V88H24.4723C24.4123 87.676 24.3703 87.364 24.3463 87.064C24.0103 87.436 23.5963 87.736 23.1043 87.964C22.6123 88.18 22.0663 88.288 21.4663 88.288ZM22.1143 87.406C22.5103 87.406 22.9063 87.292 23.3023 87.064C23.7103 86.836 24.0463 86.554 24.3103 86.218C24.2983 86.074 24.2923 85.924 24.2923 85.768C24.2923 85.6 24.2923 85.42 24.2923 85.228L24.3103 80.044C24.0223 79.828 23.7043 79.672 23.3563 79.576C23.0203 79.468 22.6723 79.414 22.3123 79.414C21.7123 79.414 21.1903 79.588 20.7463 79.936C20.3023 80.284 19.9663 80.77 19.7383 81.394C19.5103 82.018 19.4083 82.75 19.4323 83.59C19.4563 84.322 19.5703 84.976 19.7743 85.552C19.9903 86.128 20.2903 86.584 20.6743 86.92C21.0703 87.244 21.5503 87.406 22.1143 87.406ZM32.8361 88.288C31.9961 88.288 31.2341 88.096 30.5501 87.712C29.8661 87.316 29.3201 86.776 28.9121 86.092C28.5161 85.396 28.3181 84.604 28.3181 83.716C28.3181 82.768 28.5161 81.916 28.9121 81.16C29.3081 80.404 29.8481 79.81 30.5321 79.378C31.2161 78.934 31.9841 78.712 32.8361 78.712C33.6761 78.712 34.4381 78.916 35.1221 79.324C35.8061 79.72 36.3521 80.26 36.7601 80.944C37.1681 81.628 37.3721 82.408 37.3721 83.284C37.3721 84.208 37.1681 85.054 36.7601 85.822C36.3641 86.578 35.8241 87.178 35.1401 87.622C34.4561 88.066 33.6881 88.288 32.8361 88.288ZM32.9801 87.568C33.6161 87.568 34.1201 87.388 34.4921 87.028C34.8641 86.668 35.1281 86.2 35.2841 85.624C35.4521 85.048 35.5361 84.442 35.5361 83.806C35.5361 83.266 35.4821 82.738 35.3741 82.222C35.2781 81.694 35.1221 81.22 34.9061 80.8C34.6901 80.368 34.4081 80.026 34.0601 79.774C33.7241 79.522 33.3161 79.396 32.8361 79.396C32.2121 79.396 31.7021 79.576 31.3061 79.936C30.9101 80.296 30.6161 80.764 30.4241 81.34C30.2441 81.916 30.1541 82.534 30.1541 83.194C30.1541 83.938 30.2561 84.646 30.4601 85.318C30.6641 85.978 30.9761 86.518 31.3961 86.938C31.8161 87.358 32.3441 87.568 32.9801 87.568ZM38.9014 88V87.46C39.2734 87.46 39.5314 87.37 39.6754 87.19C39.8194 86.998 39.9034 86.74 39.9274 86.416C39.9514 86.08 39.9634 85.696 39.9634 85.264L39.9814 81.16C39.9814 80.968 39.9814 80.776 39.9814 80.584C39.9934 80.392 40.0174 80.194 40.0534 79.99C39.8374 80.002 39.6214 80.014 39.4054 80.026C39.2014 80.038 38.9914 80.05 38.7754 80.062V79.306C39.3034 79.306 39.6994 79.282 39.9634 79.234C40.2394 79.186 40.4434 79.126 40.5754 79.054C40.7074 78.982 40.8154 78.904 40.8994 78.82H41.4214C41.4454 78.952 41.4574 79.108 41.4574 79.288C41.4694 79.456 41.4814 79.666 41.4934 79.918C41.8774 79.57 42.3334 79.282 42.8614 79.054C43.3894 78.826 43.9114 78.712 44.4274 78.712C45.4714 78.712 46.2334 79.042 46.7134 79.702C47.1934 80.35 47.4334 81.364 47.4334 82.744V86.092C47.4334 86.332 47.4274 86.548 47.4154 86.74C47.4154 86.92 47.3974 87.112 47.3614 87.316C47.5534 87.304 47.7394 87.298 47.9194 87.298C48.1114 87.286 48.3034 87.274 48.4954 87.262V88H44.8234V87.46C45.1954 87.46 45.4534 87.37 45.5974 87.19C45.7414 86.998 45.8254 86.74 45.8494 86.416C45.8734 86.08 45.8854 85.696 45.8854 85.264V82.744C45.8734 81.712 45.6994 80.932 45.3634 80.404C45.0394 79.876 44.5234 79.618 43.8154 79.63C43.3834 79.642 42.9574 79.756 42.5374 79.972C42.1294 80.188 41.7874 80.464 41.5114 80.8C41.5234 80.896 41.5294 81.004 41.5294 81.124C41.5294 81.244 41.5294 81.37 41.5294 81.502L41.5114 86.092C41.5114 86.332 41.5054 86.548 41.4934 86.74C41.4934 86.92 41.4754 87.112 41.4394 87.316C41.6314 87.304 41.8174 87.298 41.9974 87.298C42.1894 87.286 42.3814 87.274 42.5734 87.262V88H38.9014ZM54.191 88.288C53.363 88.288 52.613 88.096 51.941 87.712C51.281 87.316 50.759 86.764 50.375 86.056C49.991 85.336 49.799 84.49 49.799 83.518C49.799 82.678 49.985 81.892 50.357 81.16C50.741 80.428 51.275 79.84 51.959 79.396C52.643 78.94 53.435 78.712 54.335 78.712C55.007 78.712 55.619 78.856 56.171 79.144C56.723 79.432 57.161 79.87 57.485 80.458C57.821 81.046 57.989 81.79 57.989 82.69L51.653 82.798C51.641 84.178 51.869 85.288 52.337 86.128C52.805 86.956 53.567 87.37 54.623 87.37C54.995 87.37 55.373 87.304 55.757 87.172C56.153 87.04 56.519 86.86 56.855 86.632C57.191 86.404 57.461 86.152 57.665 85.876L58.097 86.236C57.773 86.74 57.383 87.142 56.927 87.442C56.471 87.742 56.003 87.958 55.523 88.09C55.043 88.222 54.599 88.288 54.191 88.288ZM51.707 82.042H56.297C56.297 81.61 56.231 81.196 56.099 80.8C55.979 80.392 55.775 80.062 55.487 79.81C55.199 79.546 54.821 79.414 54.353 79.414C53.657 79.414 53.075 79.624 52.607 80.044C52.151 80.452 51.851 81.118 51.707 82.042ZM63.2808 88.288C62.6808 88.288 62.1468 88.204 61.6788 88.036C61.2108 87.88 60.8268 87.7 60.5268 87.496L60.5988 88.126H59.8428L59.7348 85.03H60.2928C60.3168 85.522 60.4548 85.966 60.7068 86.362C60.9588 86.746 61.2828 87.046 61.6788 87.262C62.0748 87.478 62.5008 87.586 62.9568 87.586C63.2688 87.586 63.5748 87.538 63.8748 87.442C64.1748 87.334 64.4268 87.178 64.6308 86.974C64.8348 86.758 64.9368 86.488 64.9368 86.164C64.9368 85.828 64.8348 85.552 64.6308 85.336C64.4388 85.108 64.1808 84.91 63.8568 84.742C63.5328 84.574 63.1848 84.418 62.8128 84.274C62.3328 84.082 61.8528 83.878 61.3728 83.662C60.9048 83.434 60.5148 83.14 60.2028 82.78C59.8908 82.408 59.7348 81.922 59.7348 81.322C59.7348 81.07 59.7828 80.794 59.8788 80.494C59.9748 80.194 60.1368 79.912 60.3648 79.648C60.5928 79.372 60.9048 79.15 61.3008 78.982C61.6968 78.802 62.2008 78.712 62.8128 78.712C63.1368 78.712 63.4968 78.766 63.8928 78.874C64.2888 78.982 64.6728 79.186 65.0448 79.486L65.0088 78.802H65.7648V81.952H65.1888C65.1648 81.532 65.0688 81.13 64.9008 80.746C64.7328 80.35 64.4868 80.026 64.1628 79.774C63.8388 79.51 63.4188 79.378 62.9028 79.378C62.3508 79.378 61.9188 79.516 61.6068 79.792C61.2948 80.068 61.1388 80.386 61.1388 80.746C61.1388 81.118 61.2528 81.43 61.4808 81.682C61.7208 81.922 62.0268 82.132 62.3988 82.312C62.7708 82.492 63.1668 82.666 63.5868 82.834C64.0428 83.026 64.4868 83.236 64.9188 83.464C65.3508 83.692 65.7048 83.98 65.9808 84.328C66.2568 84.664 66.3948 85.102 66.3948 85.642C66.3948 86.242 66.2388 86.74 65.9268 87.136C65.6268 87.532 65.2368 87.82 64.7568 88C64.2888 88.192 63.7968 88.288 63.2808 88.288ZM67.9229 87.46C68.2949 87.46 68.5529 87.37 68.6969 87.19C68.8409 86.998 68.9249 86.74 68.9489 86.416C68.9729 86.08 68.9849 85.696 68.9849 85.264V81.16C68.9849 80.968 68.9909 80.788 69.0029 80.62C69.0149 80.44 69.0329 80.23 69.0569 79.99C68.8409 80.002 68.6249 80.014 68.4089 80.026C68.2049 80.038 67.9949 80.05 67.7789 80.062V79.306C68.3069 79.306 68.7149 79.282 69.0029 79.234C69.2909 79.186 69.5069 79.126 69.6509 79.054C69.8069 78.982 69.9269 78.904 70.0109 78.82H70.5329V86.092C70.5329 86.332 70.5269 86.548 70.5149 86.74C70.5149 86.92 70.4969 87.112 70.4609 87.316C70.6529 87.304 70.8389 87.298 71.0189 87.298C71.2109 87.286 71.4029 87.274 71.5949 87.262V88H67.9229V87.46ZM69.6689 77.038C69.4169 77.038 69.1949 76.936 69.0029 76.732C68.8109 76.528 68.7149 76.276 68.7149 75.976C68.7149 75.676 68.8109 75.424 69.0029 75.22C69.2069 75.004 69.4349 74.896 69.6869 74.896C69.9629 74.896 70.1909 75.004 70.3709 75.22C70.5629 75.424 70.6589 75.676 70.6589 75.976C70.6589 76.276 70.5569 76.528 70.3529 76.732C70.1609 76.936 69.9329 77.038 69.6689 77.038ZM78.4574 88C78.4214 87.796 78.3974 87.616 78.3854 87.46C78.3734 87.304 78.3554 87.142 78.3314 86.974C77.9234 87.382 77.4794 87.706 76.9994 87.946C76.5314 88.174 76.0334 88.288 75.5054 88.288C74.5934 88.288 73.9154 88.084 73.4714 87.676C73.0274 87.256 72.8054 86.746 72.8054 86.146C72.8054 85.594 72.9734 85.12 73.3094 84.724C73.6574 84.316 74.1014 83.986 74.6414 83.734C75.1934 83.47 75.7874 83.278 76.4234 83.158C77.0714 83.026 77.6954 82.966 78.2954 82.978V81.862C78.2954 81.442 78.2594 81.046 78.1874 80.674C78.1154 80.302 77.9594 79.996 77.7194 79.756C77.4794 79.516 77.0954 79.39 76.5674 79.378C76.2194 79.366 75.8594 79.432 75.4874 79.576C75.1274 79.72 74.8634 79.966 74.6954 80.314C74.7914 80.41 74.8514 80.524 74.8754 80.656C74.9114 80.776 74.9294 80.89 74.9294 80.998C74.9294 81.142 74.8694 81.31 74.7494 81.502C74.6294 81.682 74.4194 81.766 74.1194 81.754C73.8674 81.754 73.6754 81.67 73.5434 81.502C73.4114 81.322 73.3454 81.112 73.3454 80.872C73.3454 80.464 73.4954 80.098 73.7954 79.774C74.1074 79.45 74.5334 79.192 75.0734 79C75.6134 78.808 76.2254 78.712 76.9094 78.712C77.9174 78.712 78.6614 78.982 79.1414 79.522C79.6214 80.05 79.8554 80.89 79.8434 82.042C79.8434 82.714 79.8374 83.392 79.8254 84.076C79.8254 84.748 79.8254 85.42 79.8254 86.092C79.8254 86.284 79.8194 86.476 79.8074 86.668C79.7954 86.86 79.7774 87.076 79.7534 87.316C79.9694 87.304 80.1794 87.292 80.3834 87.28C80.5994 87.268 80.8154 87.256 81.0314 87.244V88H78.4574ZM78.2954 83.59C77.8874 83.602 77.4554 83.656 76.9994 83.752C76.5554 83.836 76.1414 83.968 75.7574 84.148C75.3854 84.328 75.0794 84.568 74.8394 84.868C74.6114 85.156 74.5034 85.51 74.5154 85.93C74.5394 86.374 74.6834 86.71 74.9474 86.938C75.2234 87.154 75.5474 87.262 75.9194 87.262C76.4114 87.262 76.8374 87.172 77.1974 86.992C77.5694 86.8 77.9354 86.536 78.2954 86.2C78.2834 86.068 78.2774 85.924 78.2774 85.768C78.2774 85.612 78.2774 85.45 78.2774 85.282C78.2774 85.222 78.2774 85.03 78.2774 84.706C78.2894 84.382 78.2954 84.01 78.2954 83.59ZM5.598 111.288C4.686 111.288 3.93 111.096 3.33 110.712C2.73 110.316 2.262 109.8 1.926 109.164C1.59 108.516 1.35 107.808 1.206 107.04C1.074 106.272 1.008 105.51 1.008 104.754C1.008 103.998 1.092 103.23 1.26 102.45C1.44 101.67 1.716 100.956 2.088 100.308C2.46 99.648 2.94 99.12 3.528 98.724C4.116 98.316 4.83 98.112 5.67 98.112C6.546 98.112 7.272 98.31 7.848 98.706C8.436 99.102 8.898 99.624 9.234 100.272C9.582 100.908 9.828 101.61 9.972 102.378C10.116 103.146 10.188 103.908 10.188 104.664C10.188 105.408 10.104 106.17 9.936 106.95C9.768 107.73 9.504 108.45 9.144 109.11C8.784 109.758 8.31 110.286 7.722 110.694C7.146 111.09 6.438 111.288 5.598 111.288ZM5.706 110.586C6.222 110.586 6.648 110.424 6.984 110.1C7.32 109.776 7.584 109.344 7.776 108.804C7.98 108.264 8.124 107.67 8.208 107.022C8.292 106.362 8.334 105.702 8.334 105.042C8.334 104.31 8.292 103.578 8.208 102.846C8.124 102.114 7.98 101.442 7.776 100.83C7.572 100.218 7.296 99.726 6.948 99.354C6.6 98.982 6.162 98.796 5.634 98.796C5.118 98.796 4.68 98.958 4.32 99.282C3.972 99.606 3.69 100.038 3.474 100.578C3.258 101.118 3.102 101.718 3.006 102.378C2.91 103.038 2.862 103.704 2.862 104.376C2.862 104.88 2.886 105.414 2.934 105.978C2.982 106.542 3.066 107.1 3.186 107.652C3.318 108.192 3.492 108.684 3.708 109.128C3.924 109.572 4.194 109.926 4.518 110.19C4.842 110.454 5.238 110.586 5.706 110.586ZM11.8846 111C11.8846 110.364 11.9806 109.8 12.1726 109.308C12.3766 108.816 12.6466 108.366 12.9826 107.958C13.3186 107.538 13.6966 107.136 14.1166 106.752C14.5486 106.356 14.9866 105.942 15.4306 105.51C16.2106 104.766 16.7746 104.076 17.1226 103.44C17.4706 102.804 17.6446 102.192 17.6446 101.604C17.6446 101.148 17.5786 100.71 17.4466 100.29C17.3266 99.858 17.1046 99.504 16.7806 99.228C16.4566 98.952 16.0066 98.814 15.4306 98.814C14.9386 98.814 14.5006 98.94 14.1166 99.192C13.7326 99.432 13.4746 99.732 13.3426 100.092C13.4626 100.212 13.5466 100.344 13.5946 100.488C13.6426 100.62 13.6666 100.752 13.6666 100.884C13.6666 101.04 13.6006 101.226 13.4686 101.442C13.3366 101.646 13.1086 101.742 12.7846 101.73C12.5206 101.718 12.3166 101.616 12.1726 101.424C12.0286 101.232 11.9566 101.004 11.9566 100.74C11.9566 100.392 12.0946 100.014 12.3706 99.606C12.6586 99.198 13.0786 98.85 13.6306 98.562C14.1946 98.262 14.8906 98.112 15.7186 98.112C16.3546 98.112 16.9606 98.214 17.5366 98.418C18.1126 98.622 18.5806 98.964 18.9406 99.444C19.3126 99.912 19.4986 100.554 19.4986 101.37C19.4986 101.982 19.2286 102.684 18.6886 103.476C18.1606 104.256 17.2546 105.168 15.9706 106.212C15.1546 106.884 14.4826 107.52 13.9546 108.12C13.4386 108.708 13.1386 109.212 13.0546 109.632L16.2406 109.722C16.8286 109.734 17.3446 109.734 17.7886 109.722C18.2446 109.71 18.5986 109.62 18.8506 109.452C19.1146 109.272 19.2466 108.948 19.2466 108.48H19.7866L19.6786 111H11.8846ZM21.5526 111C21.5526 110.364 21.6486 109.8 21.8406 109.308C22.0446 108.816 22.3146 108.366 22.6506 107.958C22.9866 107.538 23.3646 107.136 23.7846 106.752C24.2166 106.356 24.6546 105.942 25.0986 105.51C25.8786 104.766 26.4426 104.076 26.7906 103.44C27.1386 102.804 27.3126 102.192 27.3126 101.604C27.3126 101.148 27.2466 100.71 27.1146 100.29C26.9946 99.858 26.7726 99.504 26.4486 99.228C26.1246 98.952 25.6746 98.814 25.0986 98.814C24.6066 98.814 24.1686 98.94 23.7846 99.192C23.4006 99.432 23.1426 99.732 23.0106 100.092C23.1306 100.212 23.2146 100.344 23.2626 100.488C23.3106 100.62 23.3346 100.752 23.3346 100.884C23.3346 101.04 23.2686 101.226 23.1366 101.442C23.0046 101.646 22.7766 101.742 22.4526 101.73C22.1886 101.718 21.9846 101.616 21.8406 101.424C21.6966 101.232 21.6246 101.004 21.6246 100.74C21.6246 100.392 21.7626 100.014 22.0386 99.606C22.3266 99.198 22.7466 98.85 23.2986 98.562C23.8626 98.262 24.5586 98.112 25.3866 98.112C26.0226 98.112 26.6286 98.214 27.2046 98.418C27.7806 98.622 28.2486 98.964 28.6086 99.444C28.9806 99.912 29.1666 100.554 29.1666 101.37C29.1666 101.982 28.8966 102.684 28.3566 103.476C27.8286 104.256 26.9226 105.168 25.6386 106.212C24.8226 106.884 24.1506 107.52 23.6226 108.12C23.1066 108.708 22.8066 109.212 22.7226 109.632L25.9086 109.722C26.4966 109.734 27.0126 109.734 27.4566 109.722C27.9126 109.71 28.2666 109.62 28.5186 109.452C28.7826 109.272 28.9146 108.948 28.9146 108.48H29.4546L29.3466 111H21.5526ZM35.9491 111C35.9491 110.364 36.0451 109.8 36.2371 109.308C36.4411 108.816 36.7111 108.366 37.0471 107.958C37.3831 107.538 37.7611 107.136 38.1811 106.752C38.6131 106.356 39.0511 105.942 39.4951 105.51C40.2751 104.766 40.8391 104.076 41.1871 103.44C41.5351 102.804 41.7091 102.192 41.7091 101.604C41.7091 101.148 41.6431 100.71 41.5111 100.29C41.3911 99.858 41.1691 99.504 40.8451 99.228C40.5211 98.952 40.0711 98.814 39.4951 98.814C39.0031 98.814 38.5651 98.94 38.1811 99.192C37.7971 99.432 37.5391 99.732 37.4071 100.092C37.5271 100.212 37.6111 100.344 37.6591 100.488C37.7071 100.62 37.7311 100.752 37.7311 100.884C37.7311 101.04 37.6651 101.226 37.5331 101.442C37.4011 101.646 37.1731 101.742 36.8491 101.73C36.5851 101.718 36.3811 101.616 36.2371 101.424C36.0931 101.232 36.0211 101.004 36.0211 100.74C36.0211 100.392 36.1591 100.014 36.4351 99.606C36.7231 99.198 37.1431 98.85 37.6951 98.562C38.2591 98.262 38.9551 98.112 39.7831 98.112C40.4191 98.112 41.0251 98.214 41.6011 98.418C42.1771 98.622 42.6451 98.964 43.0051 99.444C43.3771 99.912 43.5631 100.554 43.5631 101.37C43.5631 101.982 43.2931 102.684 42.7531 103.476C42.2251 104.256 41.3191 105.168 40.0351 106.212C39.2191 106.884 38.5471 107.52 38.0191 108.12C37.5031 108.708 37.2031 109.212 37.1191 109.632L40.3051 109.722C40.8931 109.734 41.4091 109.734 41.8531 109.722C42.3091 109.71 42.6631 109.62 42.9151 109.452C43.1791 109.272 43.3111 108.948 43.3111 108.48H43.8511L43.7431 111H35.9491ZM45.6171 111C45.6171 110.364 45.7131 109.8 45.9051 109.308C46.1091 108.816 46.3791 108.366 46.7151 107.958C47.0511 107.538 47.4291 107.136 47.8491 106.752C48.2811 106.356 48.7191 105.942 49.1631 105.51C49.9431 104.766 50.5071 104.076 50.8551 103.44C51.2031 102.804 51.3771 102.192 51.3771 101.604C51.3771 101.148 51.3111 100.71 51.1791 100.29C51.0591 99.858 50.8371 99.504 50.5131 99.228C50.1891 98.952 49.7391 98.814 49.1631 98.814C48.6711 98.814 48.2331 98.94 47.8491 99.192C47.4651 99.432 47.2071 99.732 47.0751 100.092C47.1951 100.212 47.2791 100.344 47.3271 100.488C47.3751 100.62 47.3991 100.752 47.3991 100.884C47.3991 101.04 47.3331 101.226 47.2011 101.442C47.0691 101.646 46.8411 101.742 46.5171 101.73C46.2531 101.718 46.0491 101.616 45.9051 101.424C45.7611 101.232 45.6891 101.004 45.6891 100.74C45.6891 100.392 45.8271 100.014 46.1031 99.606C46.3911 99.198 46.8111 98.85 47.3631 98.562C47.9271 98.262 48.6231 98.112 49.4511 98.112C50.0871 98.112 50.6931 98.214 51.2691 98.418C51.8451 98.622 52.3131 98.964 52.6731 99.444C53.0451 99.912 53.2311 100.554 53.2311 101.37C53.2311 101.982 52.9611 102.684 52.4211 103.476C51.8931 104.256 50.9871 105.168 49.7031 106.212C48.8871 106.884 48.2151 107.52 47.6871 108.12C47.1711 108.708 46.8711 109.212 46.7871 109.632L49.9731 109.722C50.5611 109.734 51.0771 109.734 51.5211 109.722C51.9771 109.71 52.3311 109.62 52.5831 109.452C52.8471 109.272 52.9791 108.948 52.9791 108.48H53.5191L53.4111 111H45.6171ZM55.285 111C55.285 110.364 55.381 109.8 55.573 109.308C55.777 108.816 56.047 108.366 56.383 107.958C56.719 107.538 57.097 107.136 57.517 106.752C57.949 106.356 58.387 105.942 58.831 105.51C59.611 104.766 60.175 104.076 60.523 103.44C60.871 102.804 61.045 102.192 61.045 101.604C61.045 101.148 60.979 100.71 60.847 100.29C60.727 99.858 60.505 99.504 60.181 99.228C59.857 98.952 59.407 98.814 58.831 98.814C58.339 98.814 57.901 98.94 57.517 99.192C57.133 99.432 56.875 99.732 56.743 100.092C56.863 100.212 56.947 100.344 56.995 100.488C57.043 100.62 57.067 100.752 57.067 100.884C57.067 101.04 57.001 101.226 56.869 101.442C56.737 101.646 56.509 101.742 56.185 101.73C55.921 101.718 55.717 101.616 55.573 101.424C55.429 101.232 55.357 101.004 55.357 100.74C55.357 100.392 55.495 100.014 55.771 99.606C56.059 99.198 56.479 98.85 57.031 98.562C57.595 98.262 58.291 98.112 59.119 98.112C59.755 98.112 60.361 98.214 60.937 98.418C61.513 98.622 61.981 98.964 62.341 99.444C62.713 99.912 62.899 100.554 62.899 101.37C62.899 101.982 62.629 102.684 62.089 103.476C61.561 104.256 60.655 105.168 59.371 106.212C58.555 106.884 57.883 107.52 57.355 108.12C56.839 108.708 56.539 109.212 56.455 109.632L59.641 109.722C60.229 109.734 60.745 109.734 61.189 109.722C61.645 109.71 61.999 109.62 62.251 109.452C62.515 109.272 62.647 108.948 62.647 108.48H63.187L63.079 111H55.285ZM64.953 111C64.953 110.364 65.049 109.8 65.241 109.308C65.445 108.816 65.715 108.366 66.051 107.958C66.387 107.538 66.765 107.136 67.185 106.752C67.617 106.356 68.055 105.942 68.499 105.51C69.279 104.766 69.843 104.076 70.191 103.44C70.539 102.804 70.713 102.192 70.713 101.604C70.713 101.148 70.647 100.71 70.515 100.29C70.395 99.858 70.173 99.504 69.849 99.228C69.525 98.952 69.075 98.814 68.499 98.814C68.007 98.814 67.569 98.94 67.185 99.192C66.801 99.432 66.543 99.732 66.411 100.092C66.531 100.212 66.615 100.344 66.663 100.488C66.711 100.62 66.735 100.752 66.735 100.884C66.735 101.04 66.669 101.226 66.537 101.442C66.405 101.646 66.177 101.742 65.853 101.73C65.589 101.718 65.385 101.616 65.241 101.424C65.097 101.232 65.025 101.004 65.025 100.74C65.025 100.392 65.163 100.014 65.439 99.606C65.727 99.198 66.147 98.85 66.699 98.562C67.263 98.262 67.959 98.112 68.787 98.112C69.423 98.112 70.029 98.214 70.605 98.418C71.181 98.622 71.649 98.964 72.009 99.444C72.381 99.912 72.567 100.554 72.567 101.37C72.567 101.982 72.297 102.684 71.757 103.476C71.229 104.256 70.323 105.168 69.039 106.212C68.223 106.884 67.551 107.52 67.023 108.12C66.507 108.708 66.207 109.212 66.123 109.632L69.309 109.722C69.897 109.734 70.413 109.734 70.857 109.722C71.313 109.71 71.667 109.62 71.919 109.452C72.183 109.272 72.315 108.948 72.315 108.48H72.855L72.747 111H64.953ZM74.621 111C74.621 110.364 74.717 109.8 74.909 109.308C75.113 108.816 75.383 108.366 75.719 107.958C76.055 107.538 76.433 107.136 76.853 106.752C77.285 106.356 77.723 105.942 78.167 105.51C78.947 104.766 79.511 104.076 79.859 103.44C80.207 102.804 80.381 102.192 80.381 101.604C80.381 101.148 80.315 100.71 80.183 100.29C80.063 99.858 79.841 99.504 79.517 99.228C79.193 98.952 78.743 98.814 78.167 98.814C77.675 98.814 77.237 98.94 76.853 99.192C76.469 99.432 76.211 99.732 76.079 100.092C76.199 100.212 76.283 100.344 76.331 100.488C76.379 100.62 76.403 100.752 76.403 100.884C76.403 101.04 76.337 101.226 76.205 101.442C76.073 101.646 75.845 101.742 75.521 101.73C75.257 101.718 75.053 101.616 74.909 101.424C74.765 101.232 74.693 101.004 74.693 100.74C74.693 100.392 74.831 100.014 75.107 99.606C75.395 99.198 75.815 98.85 76.367 98.562C76.931 98.262 77.627 98.112 78.455 98.112C79.091 98.112 79.697 98.214 80.273 98.418C80.849 98.622 81.317 98.964 81.677 99.444C82.049 99.912 82.235 100.554 82.235 101.37C82.235 101.982 81.965 102.684 81.425 103.476C80.897 104.256 79.991 105.168 78.707 106.212C77.891 106.884 77.219 107.52 76.691 108.12C76.175 108.708 75.875 109.212 75.791 109.632L78.977 109.722C79.565 109.734 80.081 109.734 80.525 109.722C80.981 109.71 81.335 109.62 81.587 109.452C81.851 109.272 81.983 108.948 81.983 108.48H82.523L82.415 111H74.621ZM5.184 157.288C4.38 157.288 3.636 157.108 2.952 156.748C2.28 156.376 1.74 155.848 1.332 155.164C0.936 154.468 0.738 153.634 0.738 152.662C0.738 152.038 0.852 151.432 1.08 150.844C1.308 150.256 1.626 149.728 2.034 149.26C2.454 148.78 2.952 148.402 3.528 148.126C4.104 147.85 4.74 147.712 5.436 147.712C6.108 147.712 6.69 147.814 7.182 148.018C7.686 148.222 8.076 148.492 8.352 148.828C8.628 149.164 8.766 149.53 8.766 149.926C8.766 150.19 8.694 150.418 8.55 150.61C8.406 150.79 8.196 150.88 7.92 150.88C7.62 150.892 7.404 150.802 7.272 150.61C7.152 150.406 7.092 150.226 7.092 150.07C7.092 149.95 7.11 149.83 7.146 149.71C7.182 149.578 7.254 149.458 7.362 149.35C7.266 149.062 7.098 148.852 6.858 148.72C6.618 148.576 6.366 148.486 6.102 148.45C5.85 148.402 5.64 148.378 5.472 148.378C4.656 148.378 3.966 148.708 3.402 149.368C2.85 150.016 2.574 150.964 2.574 152.212C2.574 153.016 2.7 153.73 2.952 154.354C3.216 154.978 3.582 155.47 4.05 155.83C4.518 156.178 5.058 156.352 5.67 156.352C6.234 156.352 6.774 156.202 7.29 155.902C7.806 155.602 8.208 155.236 8.496 154.804L8.964 155.164C8.652 155.668 8.274 156.076 7.83 156.388C7.398 156.7 6.948 156.928 6.48 157.072C6.024 157.216 5.592 157.288 5.184 157.288ZM14.7482 157.288C13.9082 157.288 13.1462 157.096 12.4622 156.712C11.7782 156.316 11.2322 155.776 10.8242 155.092C10.4282 154.396 10.2302 153.604 10.2302 152.716C10.2302 151.768 10.4282 150.916 10.8242 150.16C11.2202 149.404 11.7602 148.81 12.4442 148.378C13.1282 147.934 13.8962 147.712 14.7482 147.712C15.5882 147.712 16.3502 147.916 17.0342 148.324C17.7182 148.72 18.2642 149.26 18.6722 149.944C19.0802 150.628 19.2842 151.408 19.2842 152.284C19.2842 153.208 19.0802 154.054 18.6722 154.822C18.2762 155.578 17.7362 156.178 17.0522 156.622C16.3682 157.066 15.6002 157.288 14.7482 157.288ZM14.8922 156.568C15.5282 156.568 16.0322 156.388 16.4042 156.028C16.7762 155.668 17.0402 155.2 17.1962 154.624C17.3642 154.048 17.4482 153.442 17.4482 152.806C17.4482 152.266 17.3942 151.738 17.2862 151.222C17.1902 150.694 17.0342 150.22 16.8182 149.8C16.6022 149.368 16.3202 149.026 15.9722 148.774C15.6362 148.522 15.2282 148.396 14.7482 148.396C14.1242 148.396 13.6142 148.576 13.2182 148.936C12.8222 149.296 12.5282 149.764 12.3362 150.34C12.1562 150.916 12.0662 151.534 12.0662 152.194C12.0662 152.938 12.1682 153.646 12.3722 154.318C12.5762 154.978 12.8882 155.518 13.3082 155.938C13.7282 156.358 14.2562 156.568 14.8922 156.568ZM20.8135 157V156.46C21.1855 156.46 21.4435 156.37 21.5875 156.19C21.7315 155.998 21.8155 155.74 21.8395 155.416C21.8635 155.08 21.8755 154.696 21.8755 154.264L21.8935 150.16C21.8935 149.968 21.8935 149.776 21.8935 149.584C21.9055 149.392 21.9295 149.194 21.9655 148.99C21.7495 149.002 21.5335 149.014 21.3175 149.026C21.1135 149.038 20.9035 149.05 20.6875 149.062V148.306C21.2155 148.306 21.6115 148.282 21.8755 148.234C22.1515 148.186 22.3555 148.126 22.4875 148.054C22.6195 147.982 22.7275 147.904 22.8115 147.82H23.3335C23.3575 147.952 23.3695 148.108 23.3695 148.288C23.3815 148.456 23.3935 148.666 23.4055 148.918C23.7895 148.57 24.2455 148.282 24.7735 148.054C25.3015 147.826 25.8235 147.712 26.3395 147.712C27.3835 147.712 28.1455 148.042 28.6255 148.702C29.1055 149.35 29.3455 150.364 29.3455 151.744V155.092C29.3455 155.332 29.3395 155.548 29.3275 155.74C29.3275 155.92 29.3095 156.112 29.2735 156.316C29.4655 156.304 29.6515 156.298 29.8315 156.298C30.0235 156.286 30.2155 156.274 30.4075 156.262V157H26.7355V156.46C27.1075 156.46 27.3655 156.37 27.5095 156.19C27.6535 155.998 27.7375 155.74 27.7615 155.416C27.7855 155.08 27.7975 154.696 27.7975 154.264V151.744C27.7855 150.712 27.6115 149.932 27.2755 149.404C26.9515 148.876 26.4355 148.618 25.7275 148.63C25.2955 148.642 24.8695 148.756 24.4495 148.972C24.0415 149.188 23.6995 149.464 23.4235 149.8C23.4355 149.896 23.4415 150.004 23.4415 150.124C23.4415 150.244 23.4415 150.37 23.4415 150.502L23.4235 155.092C23.4235 155.332 23.4175 155.548 23.4055 155.74C23.4055 155.92 23.3875 156.112 23.3515 156.316C23.5435 156.304 23.7295 156.298 23.9095 156.298C24.1015 156.286 24.2935 156.274 24.4855 156.262V157H20.8135ZM34.9729 157.288C34.6969 157.288 34.4149 157.246 34.1269 157.162C33.8389 157.09 33.5689 156.94 33.3169 156.712C33.0769 156.484 32.8849 156.154 32.7409 155.722C32.5969 155.278 32.5249 154.696 32.5249 153.976L32.5609 148.756L31.1749 148.774V148C31.4869 147.988 31.8049 147.874 32.1289 147.658C32.4529 147.43 32.7409 147.124 32.9929 146.74C33.2569 146.356 33.4369 145.936 33.5329 145.48H34.1449V148H37.1689V148.702L34.1449 148.738L34.1089 153.742C34.1089 154.558 34.2109 155.182 34.4149 155.614C34.6309 156.046 34.9849 156.262 35.4769 156.262C35.8129 156.262 36.1249 156.166 36.4129 155.974C36.7129 155.782 36.9769 155.518 37.2049 155.182L37.6909 155.578C37.3429 156.106 36.9949 156.49 36.6469 156.73C36.3109 156.97 35.9989 157.12 35.7109 157.18C35.4229 157.252 35.1769 157.288 34.9729 157.288ZM44.0218 157C43.9858 156.796 43.9618 156.616 43.9498 156.46C43.9378 156.304 43.9198 156.142 43.8958 155.974C43.4878 156.382 43.0438 156.706 42.5638 156.946C42.0958 157.174 41.5978 157.288 41.0698 157.288C40.1578 157.288 39.4798 157.084 39.0358 156.676C38.5918 156.256 38.3698 155.746 38.3698 155.146C38.3698 154.594 38.5378 154.12 38.8738 153.724C39.2218 153.316 39.6658 152.986 40.2058 152.734C40.7578 152.47 41.3518 152.278 41.9878 152.158C42.6358 152.026 43.2598 151.966 43.8598 151.978V150.862C43.8598 150.442 43.8238 150.046 43.7518 149.674C43.6798 149.302 43.5238 148.996 43.2838 148.756C43.0438 148.516 42.6598 148.39 42.1318 148.378C41.7838 148.366 41.4238 148.432 41.0518 148.576C40.6918 148.72 40.4278 148.966 40.2598 149.314C40.3558 149.41 40.4158 149.524 40.4398 149.656C40.4758 149.776 40.4938 149.89 40.4938 149.998C40.4938 150.142 40.4338 150.31 40.3138 150.502C40.1938 150.682 39.9838 150.766 39.6838 150.754C39.4318 150.754 39.2398 150.67 39.1078 150.502C38.9758 150.322 38.9098 150.112 38.9098 149.872C38.9098 149.464 39.0598 149.098 39.3598 148.774C39.6718 148.45 40.0978 148.192 40.6378 148C41.1778 147.808 41.7898 147.712 42.4738 147.712C43.4818 147.712 44.2258 147.982 44.7058 148.522C45.1858 149.05 45.4198 149.89 45.4078 151.042C45.4078 151.714 45.4018 152.392 45.3898 153.076C45.3898 153.748 45.3898 154.42 45.3898 155.092C45.3898 155.284 45.3838 155.476 45.3718 155.668C45.3598 155.86 45.3418 156.076 45.3178 156.316C45.5338 156.304 45.7438 156.292 45.9478 156.28C46.1638 156.268 46.3798 156.256 46.5958 156.244V157H44.0218ZM43.8598 152.59C43.4518 152.602 43.0198 152.656 42.5638 152.752C42.1198 152.836 41.7058 152.968 41.3218 153.148C40.9498 153.328 40.6438 153.568 40.4038 153.868C40.1758 154.156 40.0678 154.51 40.0798 154.93C40.1038 155.374 40.2478 155.71 40.5118 155.938C40.7878 156.154 41.1118 156.262 41.4838 156.262C41.9758 156.262 42.4018 156.172 42.7618 155.992C43.1338 155.8 43.4998 155.536 43.8598 155.2C43.8478 155.068 43.8418 154.924 43.8418 154.768C43.8418 154.612 43.8418 154.45 43.8418 154.282C43.8418 154.222 43.8418 154.03 43.8418 153.706C43.8538 153.382 43.8598 153.01 43.8598 152.59ZM52.2231 157.288C51.4191 157.288 50.6751 157.108 49.9911 156.748C49.3191 156.376 48.7791 155.848 48.3711 155.164C47.9751 154.468 47.7771 153.634 47.7771 152.662C47.7771 152.038 47.8911 151.432 48.1191 150.844C48.3471 150.256 48.6651 149.728 49.0731 149.26C49.4931 148.78 49.9911 148.402 50.5671 148.126C51.1431 147.85 51.7791 147.712 52.4751 147.712C53.1471 147.712 53.7291 147.814 54.2211 148.018C54.7251 148.222 55.1151 148.492 55.3911 148.828C55.6671 149.164 55.8051 149.53 55.8051 149.926C55.8051 150.19 55.7331 150.418 55.5891 150.61C55.4451 150.79 55.2351 150.88 54.9591 150.88C54.6591 150.892 54.4431 150.802 54.3111 150.61C54.1911 150.406 54.1311 150.226 54.1311 150.07C54.1311 149.95 54.1491 149.83 54.1851 149.71C54.2211 149.578 54.2931 149.458 54.4011 149.35C54.3051 149.062 54.1371 148.852 53.8971 148.72C53.6571 148.576 53.4051 148.486 53.1411 148.45C52.8891 148.402 52.6791 148.378 52.5111 148.378C51.6951 148.378 51.0051 148.708 50.4411 149.368C49.8891 150.016 49.6131 150.964 49.6131 152.212C49.6131 153.016 49.7391 153.73 49.9911 154.354C50.2551 154.978 50.6211 155.47 51.0891 155.83C51.5571 156.178 52.0971 156.352 52.7091 156.352C53.2731 156.352 53.8131 156.202 54.3291 155.902C54.8451 155.602 55.2471 155.236 55.5351 154.804L56.0031 155.164C55.6911 155.668 55.3131 156.076 54.8691 156.388C54.4371 156.7 53.9871 156.928 53.5191 157.072C53.0631 157.216 52.6311 157.288 52.2231 157.288ZM60.7073 157.288C60.4313 157.288 60.1493 157.246 59.8613 157.162C59.5733 157.09 59.3033 156.94 59.0513 156.712C58.8113 156.484 58.6193 156.154 58.4753 155.722C58.3313 155.278 58.2593 154.696 58.2593 153.976L58.2953 148.756L56.9093 148.774V148C57.2213 147.988 57.5393 147.874 57.8633 147.658C58.1873 147.43 58.4753 147.124 58.7273 146.74C58.9913 146.356 59.1713 145.936 59.2673 145.48H59.8793V148H62.9033V148.702L59.8793 148.738L59.8433 153.742C59.8433 154.558 59.9453 155.182 60.1493 155.614C60.3653 156.046 60.7193 156.262 61.2113 156.262C61.5473 156.262 61.8593 156.166 62.1473 155.974C62.4473 155.782 62.7113 155.518 62.9393 155.182L63.4253 155.578C63.0773 156.106 62.7293 156.49 62.3813 156.73C62.0453 156.97 61.7333 157.12 61.4453 157.18C61.1573 157.252 60.9113 157.288 60.7073 157.288ZM71.0162 158.71C69.9122 158.734 68.9462 158.578 68.1182 158.242C67.2902 157.918 66.6002 157.462 66.0482 156.874C65.4962 156.286 65.0822 155.608 64.8062 154.84C64.5302 154.06 64.3922 153.238 64.3922 152.374C64.3922 151.618 64.5182 150.856 64.7702 150.088C65.0222 149.308 65.4002 148.588 65.9042 147.928C66.4202 147.256 67.0682 146.71 67.8482 146.29C68.6402 145.858 69.5762 145.612 70.6562 145.552C71.7242 145.492 72.6542 145.618 73.4462 145.93C74.2502 146.242 74.9162 146.68 75.4442 147.244C75.9842 147.808 76.3862 148.444 76.6502 149.152C76.9262 149.848 77.0642 150.556 77.0642 151.276C77.0642 152.224 76.9262 153.004 76.6502 153.616C76.3742 154.228 76.0322 154.702 75.6242 155.038C75.2162 155.374 74.7962 155.602 74.3642 155.722C73.9442 155.83 73.5842 155.86 73.2842 155.812C72.8762 155.74 72.5702 155.602 72.3662 155.398C72.1622 155.182 72.0302 154.93 71.9702 154.642C71.9222 154.342 71.9162 154.018 71.9522 153.67C72.0002 153.322 72.0542 152.974 72.1142 152.626C71.7422 153.718 71.3282 154.51 70.8722 155.002C70.4162 155.494 69.9062 155.74 69.3422 155.74C68.8382 155.74 68.3942 155.542 68.0102 155.146C67.6262 154.75 67.4342 154.114 67.4342 153.238C67.4342 152.362 67.5962 151.552 67.9202 150.808C68.2442 150.064 68.7182 149.464 69.3422 149.008C69.9782 148.552 70.7522 148.324 71.6642 148.324C71.9402 148.324 72.2582 148.342 72.6182 148.378C72.9782 148.414 73.3082 148.474 73.6082 148.558C73.5122 149.374 73.4102 150.196 73.3022 151.024C73.1942 151.84 73.1162 152.548 73.0682 153.148C73.0442 153.46 73.0382 153.766 73.0502 154.066C73.0742 154.354 73.1342 154.606 73.2302 154.822C73.3382 155.026 73.5002 155.152 73.7162 155.2C74.0522 155.272 74.3762 155.188 74.6882 154.948C75.0002 154.708 75.2582 154.336 75.4622 153.832C75.6662 153.328 75.7742 152.722 75.7862 152.014C75.8222 150.562 75.6062 149.41 75.1382 148.558C74.6702 147.694 74.0282 147.082 73.2122 146.722C72.4082 146.362 71.5082 146.224 70.5122 146.308C69.5282 146.38 68.6822 146.704 67.9742 147.28C67.2662 147.844 66.7202 148.564 66.3362 149.44C65.9642 150.316 65.7782 151.258 65.7782 152.266C65.7782 153.238 65.9222 154.078 66.2102 154.786C66.4982 155.494 66.8882 156.082 67.3802 156.55C67.8722 157.006 68.4302 157.342 69.0542 157.558C69.6782 157.786 70.3262 157.912 70.9982 157.936C71.4182 157.948 71.8742 157.918 72.3662 157.846C72.8702 157.774 73.3742 157.612 73.8782 157.36C74.3822 157.12 74.8442 156.754 75.2642 156.262L75.6962 156.712C75.1202 157.372 74.4302 157.864 73.6262 158.188C72.8342 158.512 71.9642 158.686 71.0162 158.71ZM69.6482 155.056C69.9722 155.056 70.2902 154.864 70.6022 154.48C70.9262 154.096 71.2142 153.598 71.4662 152.986C71.7302 152.374 71.9402 151.72 72.0962 151.024C72.2522 150.316 72.3302 149.65 72.3302 149.026C72.0422 148.918 71.6702 148.864 71.2142 148.864C70.7942 148.864 70.4222 148.996 70.0982 149.26C69.7862 149.512 69.5222 149.848 69.3062 150.268C69.1022 150.676 68.9462 151.132 68.8382 151.636C68.7422 152.128 68.6942 152.608 68.6942 153.076C68.6942 153.676 68.7782 154.156 68.9462 154.516C69.1142 154.876 69.3482 155.056 69.6482 155.056ZM82.9484 161.878C81.8684 161.878 80.9984 161.758 80.3384 161.518C79.6784 161.278 79.1984 160.972 78.8984 160.6C78.5984 160.228 78.4484 159.844 78.4484 159.448C78.4484 159.076 78.5324 158.746 78.7004 158.458C78.8804 158.182 79.0964 157.942 79.3484 157.738C79.6124 157.534 79.8644 157.384 80.1044 157.288C79.7204 157.156 79.4144 156.982 79.1864 156.766C78.9704 156.538 78.8624 156.238 78.8624 155.866C78.8624 155.446 79.0304 155.056 79.3664 154.696C79.7024 154.324 80.1344 154.096 80.6624 154.012C80.1104 153.748 79.6664 153.382 79.3304 152.914C79.0064 152.446 78.8444 151.9 78.8444 151.276C78.8444 150.556 79.0304 149.932 79.4024 149.404C79.7744 148.864 80.2484 148.45 80.8244 148.162C81.4124 147.862 82.0184 147.712 82.6424 147.712C83.4584 147.712 84.2204 147.934 84.9284 148.378C85.1084 147.874 85.3964 147.46 85.7924 147.136C86.1884 146.8 86.6264 146.632 87.1064 146.632C87.4184 146.632 87.6524 146.716 87.8084 146.884C87.9764 147.04 88.0604 147.256 88.0604 147.532C88.0604 147.664 88.0004 147.826 87.8804 148.018C87.7724 148.198 87.5744 148.282 87.2864 148.27C87.0824 148.27 86.9144 148.21 86.7824 148.09C86.6504 147.97 86.5664 147.82 86.5304 147.64C86.2304 147.688 85.9964 147.832 85.8284 148.072C85.6604 148.3 85.5464 148.552 85.4864 148.828C85.7744 149.092 86.0024 149.41 86.1704 149.782C86.3504 150.154 86.4404 150.55 86.4404 150.97C86.4404 151.642 86.2604 152.242 85.9004 152.77C85.5524 153.298 85.0904 153.712 84.5144 154.012C83.9384 154.3 83.3144 154.444 82.6424 154.444C82.4144 154.444 82.2164 154.432 82.0484 154.408C81.8804 154.372 81.6764 154.354 81.4364 154.354C80.9924 154.354 80.6324 154.462 80.3564 154.678C80.0804 154.894 79.9844 155.152 80.0684 155.452C80.1644 155.74 80.4584 155.926 80.9504 156.01C81.4424 156.082 82.1024 156.136 82.9304 156.172C83.8544 156.208 84.6464 156.316 85.3064 156.496C85.9664 156.676 86.4704 156.952 86.8184 157.324C87.1784 157.708 87.3584 158.224 87.3584 158.872C87.3584 159.352 87.2264 159.778 86.9624 160.15C86.7104 160.534 86.3684 160.852 85.9364 161.104C85.5164 161.356 85.0424 161.548 84.5144 161.68C83.9984 161.812 83.4764 161.878 82.9484 161.878ZM82.6964 153.796C83.3684 153.796 83.8664 153.562 84.1904 153.094C84.5264 152.614 84.6944 152.026 84.6944 151.33C84.6944 150.802 84.6164 150.31 84.4604 149.854C84.3044 149.398 84.0704 149.032 83.7584 148.756C83.4584 148.48 83.0744 148.342 82.6064 148.342C81.9584 148.342 81.4544 148.588 81.0944 149.08C80.7464 149.56 80.5724 150.16 80.5724 150.88C80.5724 151.744 80.7584 152.446 81.1304 152.986C81.5024 153.526 82.0244 153.796 82.6964 153.796ZM82.9304 161.176C83.9624 161.176 84.7664 160.984 85.3424 160.6C85.9184 160.216 86.2064 159.766 86.2064 159.25C86.2064 158.806 86.0564 158.464 85.7564 158.224C85.4564 157.996 85.0484 157.834 84.5324 157.738C84.0164 157.654 83.4224 157.606 82.7504 157.594C82.4264 157.582 82.1084 157.564 81.7964 157.54C81.4844 157.528 81.1844 157.498 80.8964 157.45C80.2124 157.906 79.8704 158.5 79.8704 159.232C79.8704 159.82 80.1464 160.288 80.6984 160.636C81.2624 160.996 82.0064 161.176 82.9304 161.176ZM88.5596 156.46C88.9316 156.46 89.1896 156.37 89.3336 156.19C89.4776 155.998 89.5616 155.74 89.5856 155.416C89.6096 155.08 89.6216 154.696 89.6216 154.264V150.16C89.6216 149.968 89.6216 149.776 89.6216 149.584C89.6336 149.392 89.6576 149.194 89.6936 148.99C89.4776 149.002 89.2616 149.014 89.0456 149.026C88.8416 149.026 88.6316 149.032 88.4156 149.044V148.306H88.9736C89.4896 148.306 89.8436 148.258 90.0356 148.162C90.2396 148.054 90.4076 147.94 90.5396 147.82H91.0616C91.0856 148.012 91.1036 148.252 91.1156 148.54C91.1276 148.816 91.1396 149.17 91.1516 149.602C91.3316 149.302 91.5776 149.008 91.8896 148.72C92.2016 148.432 92.5496 148.192 92.9336 148C93.3296 147.808 93.7436 147.712 94.1756 147.712C94.5116 147.712 94.8056 147.802 95.0576 147.982C95.3096 148.162 95.4356 148.45 95.4356 148.846C95.4356 149.002 95.3636 149.188 95.2196 149.404C95.0876 149.62 94.8596 149.722 94.5356 149.71C94.2716 149.698 94.0616 149.596 93.9056 149.404C93.7496 149.2 93.6896 148.966 93.7256 148.702C93.2696 148.678 92.8076 148.852 92.3396 149.224C91.8716 149.596 91.4816 150.076 91.1696 150.664L91.1876 155.092C91.1876 155.332 91.1816 155.548 91.1696 155.74C91.1696 155.92 91.1516 156.112 91.1156 156.316C91.3076 156.304 91.4936 156.298 91.6736 156.298C91.8656 156.286 92.0576 156.274 92.2496 156.262V157H88.5596V156.46ZM100.145 157.288C99.4967 157.288 98.9507 157.168 98.5067 156.928C98.0747 156.688 97.7447 156.28 97.5167 155.704C97.3007 155.128 97.1927 154.348 97.1927 153.364V150.16C97.1927 149.968 97.1927 149.776 97.1927 149.584C97.2047 149.392 97.2287 149.194 97.2647 148.99C97.0607 149.002 96.8507 149.014 96.6347 149.026C96.4307 149.026 96.2267 149.032 96.0227 149.044V148.306H96.5807C97.0967 148.306 97.4687 148.258 97.6967 148.162C97.9367 148.054 98.1227 147.94 98.2547 147.82H98.7767V153.31C98.7767 154.342 98.9207 155.116 99.2087 155.632C99.5087 156.136 100.013 156.382 100.721 156.37C101.177 156.358 101.609 156.22 102.017 155.956C102.437 155.68 102.773 155.356 103.025 154.984V150.358C103.025 150.07 103.031 149.824 103.043 149.62C103.055 149.404 103.079 149.194 103.115 148.99C102.899 149.002 102.683 149.014 102.467 149.026C102.251 149.026 102.035 149.032 101.819 149.044V148.306H102.377C102.893 148.306 103.265 148.258 103.493 148.162C103.733 148.054 103.919 147.94 104.051 147.82H104.573L104.555 154.624C104.555 154.816 104.549 155.086 104.537 155.434C104.525 155.782 104.507 156.076 104.483 156.316C104.699 156.304 104.915 156.292 105.131 156.28C105.347 156.268 105.563 156.256 105.779 156.244V157H103.205C103.169 156.796 103.139 156.604 103.115 156.424C103.103 156.244 103.091 156.076 103.079 155.92C102.707 156.292 102.257 156.616 101.729 156.892C101.201 157.156 100.673 157.288 100.145 157.288ZM107.087 157V156.46C107.459 156.46 107.717 156.37 107.861 156.19C108.005 155.998 108.089 155.74 108.113 155.416C108.137 155.08 108.149 154.696 108.149 154.264L108.167 150.16C108.167 149.968 108.167 149.776 108.167 149.584C108.179 149.392 108.203 149.194 108.239 148.99C108.023 149.002 107.807 149.014 107.591 149.026C107.387 149.038 107.177 149.05 106.961 149.062V148.306C107.489 148.306 107.885 148.282 108.149 148.234C108.425 148.186 108.629 148.126 108.761 148.054C108.893 147.982 109.001 147.904 109.085 147.82H109.607C109.631 147.952 109.643 148.108 109.643 148.288C109.655 148.456 109.667 148.666 109.679 148.918C110.063 148.57 110.519 148.282 111.047 148.054C111.575 147.826 112.097 147.712 112.613 147.712C113.657 147.712 114.419 148.042 114.899 148.702C115.379 149.35 115.619 150.364 115.619 151.744V155.092C115.619 155.332 115.613 155.548 115.601 155.74C115.601 155.92 115.583 156.112 115.547 156.316C115.739 156.304 115.925 156.298 116.105 156.298C116.297 156.286 116.489 156.274 116.681 156.262V157H113.009V156.46C113.381 156.46 113.639 156.37 113.783 156.19C113.927 155.998 114.011 155.74 114.035 155.416C114.059 155.08 114.071 154.696 114.071 154.264V151.744C114.059 150.712 113.885 149.932 113.549 149.404C113.225 148.876 112.709 148.618 112.001 148.63C111.569 148.642 111.143 148.756 110.723 148.972C110.315 149.188 109.973 149.464 109.697 149.8C109.709 149.896 109.715 150.004 109.715 150.124C109.715 150.244 109.715 150.37 109.715 150.502L109.697 155.092C109.697 155.332 109.691 155.548 109.679 155.74C109.679 155.92 109.661 156.112 109.625 156.316C109.817 156.304 110.003 156.298 110.183 156.298C110.375 156.286 110.567 156.274 110.759 156.262V157H107.087ZM119.425 157.288C119.149 157.288 118.903 157.18 118.687 156.964C118.483 156.736 118.381 156.46 118.381 156.136C118.381 155.812 118.489 155.536 118.705 155.308C118.921 155.08 119.167 154.966 119.443 154.966C119.743 154.966 119.989 155.08 120.181 155.308C120.385 155.536 120.487 155.812 120.487 156.136C120.487 156.46 120.379 156.736 120.163 156.964C119.947 157.18 119.701 157.288 119.425 157.288ZM126.842 157.288C126.038 157.288 125.294 157.108 124.61 156.748C123.938 156.376 123.398 155.848 122.99 155.164C122.594 154.468 122.396 153.634 122.396 152.662C122.396 152.038 122.51 151.432 122.738 150.844C122.966 150.256 123.284 149.728 123.692 149.26C124.112 148.78 124.61 148.402 125.186 148.126C125.762 147.85 126.398 147.712 127.094 147.712C127.766 147.712 128.348 147.814 128.84 148.018C129.344 148.222 129.734 148.492 130.01 148.828C130.286 149.164 130.424 149.53 130.424 149.926C130.424 150.19 130.352 150.418 130.208 150.61C130.064 150.79 129.854 150.88 129.578 150.88C129.278 150.892 129.062 150.802 128.93 150.61C128.81 150.406 128.75 150.226 128.75 150.07C128.75 149.95 128.768 149.83 128.804 149.71C128.84 149.578 128.912 149.458 129.02 149.35C128.924 149.062 128.756 148.852 128.516 148.72C128.276 148.576 128.024 148.486 127.76 148.45C127.508 148.402 127.298 148.378 127.13 148.378C126.314 148.378 125.624 148.708 125.06 149.368C124.508 150.016 124.232 150.964 124.232 152.212C124.232 153.016 124.358 153.73 124.61 154.354C124.874 154.978 125.24 155.47 125.708 155.83C126.176 156.178 126.716 156.352 127.328 156.352C127.892 156.352 128.432 156.202 128.948 155.902C129.464 155.602 129.866 155.236 130.154 154.804L130.622 155.164C130.31 155.668 129.932 156.076 129.488 156.388C129.056 156.7 128.606 156.928 128.138 157.072C127.682 157.216 127.25 157.288 126.842 157.288ZM136.406 157.288C135.566 157.288 134.804 157.096 134.12 156.712C133.436 156.316 132.89 155.776 132.482 155.092C132.086 154.396 131.888 153.604 131.888 152.716C131.888 151.768 132.086 150.916 132.482 150.16C132.878 149.404 133.418 148.81 134.102 148.378C134.786 147.934 135.554 147.712 136.406 147.712C137.246 147.712 138.008 147.916 138.692 148.324C139.376 148.72 139.922 149.26 140.33 149.944C140.738 150.628 140.942 151.408 140.942 152.284C140.942 153.208 140.738 154.054 140.33 154.822C139.934 155.578 139.394 156.178 138.71 156.622C138.026 157.066 137.258 157.288 136.406 157.288ZM136.55 156.568C137.186 156.568 137.69 156.388 138.062 156.028C138.434 155.668 138.698 155.2 138.854 154.624C139.022 154.048 139.106 153.442 139.106 152.806C139.106 152.266 139.052 151.738 138.944 151.222C138.848 150.694 138.692 150.22 138.476 149.8C138.26 149.368 137.978 149.026 137.63 148.774C137.294 148.522 136.886 148.396 136.406 148.396C135.782 148.396 135.272 148.576 134.876 148.936C134.48 149.296 134.186 149.764 133.994 150.34C133.814 150.916 133.724 151.534 133.724 152.194C133.724 152.938 133.826 153.646 134.03 154.318C134.234 154.978 134.546 155.518 134.966 155.938C135.386 156.358 135.914 156.568 136.55 156.568ZM142.472 157V156.46C142.844 156.46 143.102 156.37 143.246 156.19C143.39 155.998 143.474 155.74 143.498 155.416C143.522 155.08 143.534 154.696 143.534 154.264V150.16C143.534 149.968 143.534 149.776 143.534 149.584C143.546 149.392 143.57 149.194 143.606 148.99C143.39 149.002 143.174 149.014 142.958 149.026C142.754 149.038 142.544 149.05 142.328 149.062V148.306C142.856 148.306 143.252 148.282 143.516 148.234C143.792 148.186 143.996 148.126 144.128 148.054C144.26 147.982 144.368 147.904 144.452 147.82H144.974C144.998 147.94 145.01 148.078 145.01 148.234C145.022 148.39 145.034 148.57 145.046 148.774C145.406 148.462 145.82 148.21 146.288 148.018C146.756 147.814 147.224 147.712 147.692 147.712C148.292 147.712 148.796 147.82 149.204 148.036C149.612 148.252 149.93 148.546 150.158 148.918C150.566 148.582 151.034 148.3 151.562 148.072C152.102 147.832 152.63 147.712 153.146 147.712C154.19 147.712 154.958 148.03 155.45 148.666C155.942 149.29 156.176 150.316 156.152 151.744L156.134 155.092C156.134 155.332 156.128 155.548 156.116 155.74C156.116 155.92 156.098 156.112 156.062 156.316C156.254 156.304 156.44 156.298 156.62 156.298C156.812 156.286 157.004 156.274 157.196 156.262V157H153.524V156.46C153.896 156.46 154.154 156.37 154.298 156.19C154.442 155.998 154.526 155.74 154.55 155.416C154.574 155.08 154.586 154.696 154.586 154.264V151.744C154.586 150.712 154.418 149.938 154.082 149.422C153.758 148.906 153.242 148.654 152.534 148.666C152.162 148.666 151.79 148.75 151.418 148.918C151.046 149.086 150.722 149.296 150.446 149.548C150.506 149.74 150.548 149.95 150.572 150.178C150.608 150.394 150.626 150.622 150.626 150.862C150.614 151.558 150.608 152.26 150.608 152.968C150.608 153.676 150.602 154.384 150.59 155.092C150.59 155.332 150.584 155.548 150.572 155.74C150.572 155.92 150.554 156.112 150.518 156.316C150.71 156.304 150.896 156.298 151.076 156.298C151.268 156.286 151.46 156.274 151.652 156.262V157H147.98V156.46C148.352 156.46 148.604 156.37 148.736 156.19C148.88 155.998 148.964 155.74 148.988 155.416C149.024 155.08 149.042 154.696 149.042 154.264L149.06 151.744C149.072 150.712 148.922 149.932 148.61 149.404C148.298 148.876 147.788 148.618 147.08 148.63C146.708 148.63 146.342 148.714 145.982 148.882C145.622 149.038 145.316 149.242 145.064 149.494C145.064 149.638 145.064 149.794 145.064 149.962C145.076 150.118 145.082 150.286 145.082 150.466V155.092C145.082 155.332 145.076 155.548 145.064 155.74C145.064 155.92 145.046 156.112 145.01 156.316C145.202 156.304 145.388 156.298 145.568 156.298C145.76 156.286 145.952 156.274 146.144 156.262V157H142.472Z" fill="white"/>
</svg>
