<svg width="97" height="119" viewBox="0 0 97 119" fill="none" xmlns="http://www.w3.org/2000/svg">
<path d="M13.584 6.576C13.152 3.92 11.808 2.576 9.552 2.544C8.72 2.544 7.992 2.736 7.368 3.12C6.744 3.504 6.224 4.016 5.808 4.656C5.408 5.296 5.104 6.024 4.896 6.84C4.704 7.656 4.608 8.496 4.608 9.36C4.608 10.736 4.8 11.96 5.184 13.032C5.584 14.088 6.16 14.92 6.912 15.528C7.664 16.136 8.576 16.44 9.648 16.44C10.656 16.44 11.656 16.184 12.648 15.672C13.64 15.144 14.472 14.416 15.144 13.488L16.296 14.544C15.512 15.616 14.688 16.432 13.824 16.992C12.96 17.536 12.112 17.904 11.28 18.096C10.464 18.288 9.728 18.384 9.072 18.384C7.84 18.384 6.72 18.168 5.712 17.736C4.704 17.288 3.832 16.68 3.096 15.912C2.376 15.128 1.816 14.224 1.416 13.2C1.032 12.16 0.84 11.04 0.84 9.84C0.84 8.752 1.016 7.672 1.368 6.6C1.72 5.528 2.24 4.56 2.928 3.696C3.632 2.816 4.512 2.12 5.568 1.608C6.624 1.08 7.848 0.816 9.24 0.816C9.864 0.816 10.544 0.92 11.28 1.128C12.032 1.32 12.736 1.608 13.392 1.992L13.296 0.983999H15.144V6.576H13.584ZM23.3874 18.384C22.2354 18.384 21.1954 18.136 20.2674 17.64C19.3394 17.144 18.6034 16.44 18.0594 15.528C17.5314 14.6 17.2674 13.512 17.2674 12.264C17.2674 10.936 17.5394 9.776 18.0834 8.784C18.6434 7.776 19.3794 7 20.2914 6.456C21.2194 5.896 22.2274 5.616 23.3154 5.616C24.4674 5.616 25.4994 5.864 26.4114 6.36C27.3234 6.856 28.0434 7.568 28.5714 8.496C29.0994 9.408 29.3634 10.504 29.3634 11.784C29.3634 13.128 29.1074 14.296 28.5954 15.288C28.0834 16.28 27.3794 17.048 26.4834 17.592C25.5874 18.12 24.5554 18.384 23.3874 18.384ZM23.4834 16.68C24.1234 16.664 24.6034 16.44 24.9234 16.008C25.2594 15.576 25.4914 15.032 25.6194 14.376C25.7474 13.72 25.8114 13.056 25.8114 12.384C25.8114 11.792 25.7634 11.192 25.6674 10.584C25.5874 9.976 25.4514 9.424 25.2594 8.928C25.0674 8.432 24.8034 8.032 24.4674 7.728C24.1474 7.424 23.7474 7.28 23.2674 7.296C22.6434 7.312 22.1474 7.536 21.7794 7.968C21.4274 8.4 21.1714 8.944 21.0114 9.6C20.8674 10.24 20.7954 10.912 20.7954 11.616C20.7954 12.432 20.8834 13.232 21.0594 14.016C21.2354 14.8 21.5154 15.448 21.8994 15.96C22.2994 16.456 22.8274 16.696 23.4834 16.68ZM31.1012 18V16.44C31.7572 16.44 32.1572 16.248 32.3012 15.864C32.4452 15.464 32.5172 14.944 32.5172 14.304V10.272C32.5172 9.984 32.5252 9.664 32.5412 9.312C32.5572 8.944 32.5812 8.584 32.6132 8.232C32.3572 8.248 32.0532 8.264 31.7012 8.28C31.3652 8.28 31.1092 8.288 30.9332 8.304V6.48C32.0372 6.48 32.8852 6.4 33.4772 6.24C34.0852 6.08 34.4692 5.92 34.6292 5.76H35.8052C35.8372 5.968 35.8532 6.12 35.8532 6.216C35.8532 6.312 35.8532 6.408 35.8532 6.504C35.8692 6.584 35.9012 6.736 35.9492 6.96C36.2692 6.704 36.6372 6.48 37.0532 6.288C37.4692 6.08 37.8852 5.92 38.3012 5.808C38.7172 5.68 39.0852 5.616 39.4052 5.616C40.8772 5.616 41.9172 6.04 42.5252 6.888C43.1492 7.72 43.4612 9.064 43.4612 10.92V14.136C43.4612 14.36 43.4532 14.68 43.4372 15.096C43.4212 15.496 43.3972 15.88 43.3652 16.248C43.6372 16.216 43.9252 16.2 44.2292 16.2C44.5332 16.184 44.7652 16.176 44.9252 16.176V18H38.6372V16.44C39.3092 16.44 39.7172 16.248 39.8612 15.864C40.0052 15.464 40.0772 14.944 40.0772 14.304L40.0532 10.896C40.0532 9.856 39.9012 9.088 39.5972 8.592C39.3092 8.08 38.8132 7.824 38.1092 7.824C37.7092 7.824 37.3092 7.912 36.9092 8.088C36.5252 8.264 36.1972 8.472 35.9252 8.712V14.136C35.9252 14.36 35.9172 14.68 35.9012 15.096C35.8852 15.496 35.8612 15.88 35.8292 16.248C36.0852 16.216 36.3652 16.2 36.6692 16.2C36.9892 16.184 37.2292 16.176 37.3892 16.176V18H31.1012ZM46.359 18V16.44C47.015 16.44 47.415 16.248 47.559 15.864C47.703 15.464 47.775 14.944 47.775 14.304V10.272C47.775 9.984 47.783 9.664 47.799 9.312C47.815 8.944 47.839 8.584 47.871 8.232C47.615 8.248 47.311 8.264 46.959 8.28C46.623 8.28 46.367 8.288 46.191 8.304V6.48C47.295 6.48 48.143 6.4 48.735 6.24C49.343 6.08 49.727 5.92 49.887 5.76H51.063C51.095 5.968 51.111 6.12 51.111 6.216C51.111 6.312 51.111 6.408 51.111 6.504C51.127 6.584 51.159 6.736 51.207 6.96C51.527 6.704 51.895 6.48 52.311 6.288C52.727 6.08 53.143 5.92 53.559 5.808C53.975 5.68 54.343 5.616 54.663 5.616C56.135 5.616 57.175 6.04 57.783 6.888C58.407 7.72 58.719 9.064 58.719 10.92V14.136C58.719 14.36 58.711 14.68 58.695 15.096C58.679 15.496 58.655 15.88 58.623 16.248C58.895 16.216 59.183 16.2 59.487 16.2C59.791 16.184 60.023 16.176 60.183 16.176V18H53.895V16.44C54.567 16.44 54.975 16.248 55.119 15.864C55.263 15.464 55.335 14.944 55.335 14.304L55.311 10.896C55.311 9.856 55.159 9.088 54.855 8.592C54.567 8.08 54.071 7.824 53.367 7.824C52.967 7.824 52.567 7.912 52.167 8.088C51.783 8.264 51.455 8.472 51.183 8.712V14.136C51.183 14.36 51.175 14.68 51.159 15.096C51.143 15.496 51.119 15.88 51.087 16.248C51.343 16.216 51.623 16.2 51.927 16.2C52.247 16.184 52.487 16.176 52.647 16.176V18H46.359ZM67.3048 18.384C66.1368 18.384 65.1048 18.128 64.2088 17.616C63.3128 17.088 62.6168 16.352 62.1208 15.408C61.6248 14.448 61.3768 13.32 61.3768 12.024C61.3768 10.904 61.6248 9.856 62.1208 8.88C62.6168 7.904 63.3128 7.12 64.2088 6.528C65.1208 5.92 66.1768 5.616 67.3768 5.616C68.0488 5.616 68.7048 5.712 69.3448 5.904C69.9848 6.08 70.5608 6.392 71.0728 6.84C71.6008 7.288 72.0168 7.896 72.3208 8.664C72.6408 9.432 72.7928 10.392 72.7768 11.544L64.9048 11.688C64.9048 12.552 65.0088 13.328 65.2168 14.016C65.4408 14.704 65.8008 15.248 66.2968 15.648C66.7928 16.048 67.4568 16.248 68.2888 16.248C68.7688 16.248 69.3368 16.12 69.9928 15.864C70.6648 15.592 71.2728 15.12 71.8168 14.448L72.8968 15.456C72.3208 16.272 71.7048 16.896 71.0488 17.328C70.3928 17.744 69.7368 18.024 69.0808 18.168C68.4408 18.312 67.8488 18.384 67.3048 18.384ZM65.0488 10.008H69.4648C69.4488 9.016 69.2568 8.32 68.8888 7.92C68.5208 7.504 68.0568 7.296 67.4968 7.296C66.7928 7.296 66.2408 7.552 65.8408 8.064C65.4408 8.56 65.1768 9.208 65.0488 10.008ZM80.1949 18.384C79.1229 18.384 78.1389 18.144 77.2429 17.664C76.3469 17.184 75.6269 16.488 75.0829 15.576C74.5549 14.664 74.2909 13.56 74.2909 12.264C74.2909 11.048 74.5549 9.944 75.0829 8.952C75.6109 7.944 76.3389 7.136 77.2669 6.528C78.2109 5.92 79.2989 5.616 80.5309 5.616C81.5549 5.616 82.4029 5.776 83.0749 6.096C83.7629 6.4 84.2749 6.808 84.6109 7.32C84.9629 7.816 85.1389 8.344 85.1389 8.904C85.1389 9.368 84.9949 9.784 84.7069 10.152C84.4349 10.504 84.0429 10.688 83.5309 10.704C82.9229 10.72 82.4989 10.552 82.2589 10.2C82.0189 9.832 81.8989 9.48 81.8989 9.144C81.8989 9 81.9229 8.832 81.9709 8.64C82.0189 8.432 82.0909 8.248 82.1869 8.088C82.0109 7.736 81.7309 7.512 81.3469 7.416C80.9629 7.32 80.6589 7.28 80.4349 7.296C79.6669 7.344 79.0349 7.728 78.5389 8.448C78.0429 9.168 77.7949 10.208 77.7949 11.568C77.7949 12.368 77.8909 13.12 78.0829 13.824C78.2909 14.512 78.6269 15.08 79.0909 15.528C79.5549 15.976 80.1789 16.216 80.9629 16.248C81.6349 16.264 82.2909 16.104 82.9309 15.768C83.5709 15.432 84.1149 14.976 84.5629 14.4L85.6669 15.48C85.0909 16.28 84.4909 16.888 83.8669 17.304C83.2429 17.72 82.6189 18 81.9949 18.144C81.3869 18.304 80.7869 18.384 80.1949 18.384ZM91.7048 18.384C91.2248 18.384 90.7608 18.328 90.3128 18.216C89.8808 18.104 89.4808 17.896 89.1128 17.592C88.7608 17.272 88.4808 16.808 88.2728 16.2C88.0648 15.592 87.9608 14.784 87.9608 13.776L88.0088 7.992H86.3768V6C86.8728 5.984 87.3528 5.816 87.8168 5.496C88.2808 5.176 88.6728 4.76 88.9928 4.248C89.3288 3.736 89.5528 3.2 89.6648 2.64H91.4408L91.4168 6H94.4648V7.848L91.4168 7.92L91.3928 13.824C91.3928 14.192 91.4248 14.56 91.4888 14.928C91.5688 15.28 91.7128 15.576 91.9208 15.816C92.1288 16.04 92.4328 16.152 92.8328 16.152C93.0568 16.152 93.3608 16.072 93.7448 15.912C94.1448 15.752 94.5688 15.352 95.0168 14.712L96.1688 15.792C95.7368 16.432 95.2888 16.928 94.8248 17.28C94.3608 17.632 93.9128 17.888 93.4808 18.048C93.0648 18.208 92.6968 18.304 92.3768 18.336C92.0568 18.368 91.8328 18.384 91.7048 18.384ZM0.99 72V71.406C1.446 71.382 1.758 71.28 1.926 71.1C2.094 70.908 2.184 70.65 2.196 70.326C2.22 69.99 2.232 69.612 2.232 69.192V61.416C2.232 60.912 2.25 60.48 2.286 60.12C2.07 60.132 1.854 60.144 1.638 60.156C1.422 60.168 1.206 60.18 0.99 60.192V59.4H9.342L9.432 62.55H8.838C8.838 61.842 8.724 61.308 8.496 60.948C8.268 60.576 7.968 60.33 7.596 60.21C7.224 60.078 6.81 60.018 6.354 60.03L5.04 60.066C4.596 60.078 4.29 60.186 4.122 60.39C3.954 60.582 3.858 60.84 3.834 61.164C3.81 61.488 3.798 61.86 3.798 62.28V65.376L6.93 65.394L6.804 63.828H7.596V67.626H7.02C7.02 67.086 6.942 66.702 6.786 66.474C6.642 66.246 6.414 66.108 6.102 66.06C5.79 66.012 5.382 66 4.878 66.024L3.798 66.078V69.858C3.798 70.494 3.78 70.968 3.744 71.28C4.056 71.268 4.362 71.256 4.662 71.244C4.974 71.232 5.28 71.22 5.58 71.208V72H0.99ZM15.4046 72C15.3686 71.796 15.3446 71.616 15.3326 71.46C15.3206 71.304 15.3026 71.142 15.2786 70.974C14.8706 71.382 14.4266 71.706 13.9466 71.946C13.4786 72.174 12.9806 72.288 12.4526 72.288C11.5406 72.288 10.8626 72.084 10.4186 71.676C9.97463 71.256 9.75263 70.746 9.75263 70.146C9.75263 69.594 9.92063 69.12 10.2566 68.724C10.6046 68.316 11.0486 67.986 11.5886 67.734C12.1406 67.47 12.7346 67.278 13.3706 67.158C14.0186 67.026 14.6426 66.966 15.2426 66.978V65.862C15.2426 65.442 15.2066 65.046 15.1346 64.674C15.0626 64.302 14.9066 63.996 14.6666 63.756C14.4266 63.516 14.0426 63.39 13.5146 63.378C13.1666 63.366 12.8066 63.432 12.4346 63.576C12.0746 63.72 11.8106 63.966 11.6426 64.314C11.7386 64.41 11.7986 64.524 11.8226 64.656C11.8586 64.776 11.8766 64.89 11.8766 64.998C11.8766 65.142 11.8166 65.31 11.6966 65.502C11.5766 65.682 11.3666 65.766 11.0666 65.754C10.8146 65.754 10.6226 65.67 10.4906 65.502C10.3586 65.322 10.2926 65.112 10.2926 64.872C10.2926 64.464 10.4426 64.098 10.7426 63.774C11.0546 63.45 11.4806 63.192 12.0206 63C12.5606 62.808 13.1726 62.712 13.8566 62.712C14.8646 62.712 15.6086 62.982 16.0886 63.522C16.5686 64.05 16.8026 64.89 16.7906 66.042C16.7906 66.714 16.7846 67.392 16.7726 68.076C16.7726 68.748 16.7726 69.42 16.7726 70.092C16.7726 70.284 16.7666 70.476 16.7546 70.668C16.7426 70.86 16.7246 71.076 16.7006 71.316C16.9166 71.304 17.1266 71.292 17.3306 71.28C17.5466 71.268 17.7626 71.256 17.9786 71.244V72H15.4046ZM15.2426 67.59C14.8346 67.602 14.4026 67.656 13.9466 67.752C13.5026 67.836 13.0886 67.968 12.7046 68.148C12.3326 68.328 12.0266 68.568 11.7866 68.868C11.5586 69.156 11.4506 69.51 11.4626 69.93C11.4866 70.374 11.6306 70.71 11.8946 70.938C12.1706 71.154 12.4946 71.262 12.8666 71.262C13.3586 71.262 13.7846 71.172 14.1446 70.992C14.5166 70.8 14.8826 70.536 15.2426 70.2C15.2306 70.068 15.2246 69.924 15.2246 69.768C15.2246 69.612 15.2246 69.45 15.2246 69.282C15.2246 69.222 15.2246 69.03 15.2246 68.706C15.2366 68.382 15.2426 68.01 15.2426 67.59ZM23.6059 72.288C22.8019 72.288 22.0579 72.108 21.3739 71.748C20.7019 71.376 20.1619 70.848 19.7539 70.164C19.3579 69.468 19.1599 68.634 19.1599 67.662C19.1599 67.038 19.2739 66.432 19.5019 65.844C19.7299 65.256 20.0479 64.728 20.4559 64.26C20.8759 63.78 21.3739 63.402 21.9499 63.126C22.5259 62.85 23.1619 62.712 23.8579 62.712C24.5299 62.712 25.1119 62.814 25.6039 63.018C26.1079 63.222 26.4979 63.492 26.7739 63.828C27.0499 64.164 27.1879 64.53 27.1879 64.926C27.1879 65.19 27.1159 65.418 26.9719 65.61C26.8279 65.79 26.6179 65.88 26.3419 65.88C26.0419 65.892 25.8259 65.802 25.6939 65.61C25.5739 65.406 25.5139 65.226 25.5139 65.07C25.5139 64.95 25.5319 64.83 25.5679 64.71C25.6039 64.578 25.6759 64.458 25.7839 64.35C25.6879 64.062 25.5199 63.852 25.2799 63.72C25.0399 63.576 24.7879 63.486 24.5239 63.45C24.2719 63.402 24.0619 63.378 23.8939 63.378C23.0779 63.378 22.3879 63.708 21.8239 64.368C21.2719 65.016 20.9959 65.964 20.9959 67.212C20.9959 68.016 21.1219 68.73 21.3739 69.354C21.6379 69.978 22.0039 70.47 22.4719 70.83C22.9399 71.178 23.4799 71.352 24.0919 71.352C24.6559 71.352 25.1959 71.202 25.7119 70.902C26.2279 70.602 26.6299 70.236 26.9179 69.804L27.3859 70.164C27.0739 70.668 26.6959 71.076 26.2519 71.388C25.8199 71.7 25.3699 71.928 24.9019 72.072C24.4459 72.216 24.0139 72.288 23.6059 72.288ZM33.0621 72.288C32.2341 72.288 31.4841 72.096 30.8121 71.712C30.1521 71.316 29.6301 70.764 29.2461 70.056C28.8621 69.336 28.6701 68.49 28.6701 67.518C28.6701 66.678 28.8561 65.892 29.2281 65.16C29.6121 64.428 30.1461 63.84 30.8301 63.396C31.5141 62.94 32.3061 62.712 33.2061 62.712C33.8781 62.712 34.4901 62.856 35.0421 63.144C35.5941 63.432 36.0321 63.87 36.3561 64.458C36.6921 65.046 36.8601 65.79 36.8601 66.69L30.5241 66.798C30.5121 68.178 30.7401 69.288 31.2081 70.128C31.6761 70.956 32.4381 71.37 33.4941 71.37C33.8661 71.37 34.2441 71.304 34.6281 71.172C35.0241 71.04 35.3901 70.86 35.7261 70.632C36.0621 70.404 36.3321 70.152 36.5361 69.876L36.9681 70.236C36.6441 70.74 36.2541 71.142 35.7981 71.442C35.3421 71.742 34.8741 71.958 34.3941 72.09C33.9141 72.222 33.4701 72.288 33.0621 72.288ZM30.5781 66.042H35.1681C35.1681 65.61 35.1021 65.196 34.9701 64.8C34.8501 64.392 34.6461 64.062 34.3581 63.81C34.0701 63.546 33.6921 63.414 33.2241 63.414C32.5281 63.414 31.9461 63.624 31.4781 64.044C31.0221 64.452 30.7221 65.118 30.5781 66.042ZM39.0379 60.75C39.0379 60.558 39.0379 60.378 39.0379 60.21C39.0499 60.03 39.0679 59.82 39.0919 59.58C38.8759 59.592 38.6599 59.604 38.4439 59.616C38.2399 59.628 38.0299 59.64 37.8139 59.652V58.896C38.3419 58.896 38.7499 58.872 39.0379 58.824C39.3379 58.776 39.5599 58.716 39.7039 58.644C39.8599 58.572 39.9799 58.494 40.0639 58.41H40.5859V63.774C40.9219 63.438 41.3179 63.18 41.7739 63C42.2419 62.808 42.7519 62.712 43.3039 62.712C44.0719 62.712 44.7619 62.898 45.3739 63.27C45.9979 63.642 46.4899 64.17 46.8499 64.854C47.2099 65.538 47.3899 66.348 47.3899 67.284C47.3899 68.304 47.1679 69.192 46.7239 69.948C46.2799 70.692 45.7039 71.268 44.9959 71.676C44.2879 72.084 43.5259 72.288 42.7099 72.288C42.3019 72.288 41.8519 72.21 41.3599 72.054C40.8799 71.91 40.4479 71.622 40.0639 71.19L39.6319 72H39.0019L39.0379 60.75ZM40.5859 69.174C40.5859 69.81 40.6879 70.302 40.8919 70.65C41.0959 70.986 41.3599 71.22 41.6839 71.352C42.0079 71.484 42.3499 71.55 42.7099 71.55C43.5739 71.55 44.2579 71.196 44.7619 70.488C45.2779 69.78 45.5359 68.862 45.5359 67.734C45.5359 66.918 45.4339 66.204 45.2299 65.592C45.0259 64.968 44.7199 64.482 44.3119 64.134C43.9039 63.774 43.3879 63.594 42.7639 63.594C42.3679 63.594 41.9719 63.69 41.5759 63.882C41.1919 64.062 40.8619 64.308 40.5859 64.62V69.174ZM53.4025 72.288C52.5625 72.288 51.8005 72.096 51.1165 71.712C50.4325 71.316 49.8865 70.776 49.4785 70.092C49.0825 69.396 48.8845 68.604 48.8845 67.716C48.8845 66.768 49.0825 65.916 49.4785 65.16C49.8745 64.404 50.4145 63.81 51.0985 63.378C51.7825 62.934 52.5505 62.712 53.4025 62.712C54.2425 62.712 55.0045 62.916 55.6885 63.324C56.3725 63.72 56.9185 64.26 57.3265 64.944C57.7345 65.628 57.9385 66.408 57.9385 67.284C57.9385 68.208 57.7345 69.054 57.3265 69.822C56.9305 70.578 56.3905 71.178 55.7065 71.622C55.0225 72.066 54.2545 72.288 53.4025 72.288ZM53.5465 71.568C54.1825 71.568 54.6865 71.388 55.0585 71.028C55.4305 70.668 55.6945 70.2 55.8505 69.624C56.0185 69.048 56.1025 68.442 56.1025 67.806C56.1025 67.266 56.0485 66.738 55.9405 66.222C55.8445 65.694 55.6885 65.22 55.4725 64.8C55.2565 64.368 54.9745 64.026 54.6265 63.774C54.2905 63.522 53.8825 63.396 53.4025 63.396C52.7785 63.396 52.2685 63.576 51.8725 63.936C51.4765 64.296 51.1825 64.764 50.9905 65.34C50.8105 65.916 50.7205 66.534 50.7205 67.194C50.7205 67.938 50.8225 68.646 51.0265 69.318C51.2305 69.978 51.5425 70.518 51.9625 70.938C52.3825 71.358 52.9105 71.568 53.5465 71.568ZM63.9318 72.288C63.0918 72.288 62.3298 72.096 61.6458 71.712C60.9618 71.316 60.4158 70.776 60.0078 70.092C59.6118 69.396 59.4138 68.604 59.4138 67.716C59.4138 66.768 59.6118 65.916 60.0078 65.16C60.4038 64.404 60.9438 63.81 61.6278 63.378C62.3118 62.934 63.0798 62.712 63.9318 62.712C64.7718 62.712 65.5338 62.916 66.2178 63.324C66.9018 63.72 67.4478 64.26 67.8558 64.944C68.2638 65.628 68.4678 66.408 68.4678 67.284C68.4678 68.208 68.2638 69.054 67.8558 69.822C67.4598 70.578 66.9198 71.178 66.2358 71.622C65.5518 72.066 64.7838 72.288 63.9318 72.288ZM64.0758 71.568C64.7118 71.568 65.2158 71.388 65.5878 71.028C65.9598 70.668 66.2238 70.2 66.3798 69.624C66.5478 69.048 66.6318 68.442 66.6318 67.806C66.6318 67.266 66.5778 66.738 66.4698 66.222C66.3738 65.694 66.2178 65.22 66.0018 64.8C65.7858 64.368 65.5038 64.026 65.1558 63.774C64.8198 63.522 64.4118 63.396 63.9318 63.396C63.3078 63.396 62.7978 63.576 62.4018 63.936C62.0058 64.296 61.7118 64.764 61.5198 65.34C61.3398 65.916 61.2498 66.534 61.2498 67.194C61.2498 67.938 61.3518 68.646 61.5558 69.318C61.7598 69.978 62.0718 70.518 62.4918 70.938C62.9118 71.358 63.4398 71.568 64.0758 71.568ZM69.8351 72V71.46C70.2071 71.46 70.4591 71.37 70.5911 71.19C70.7351 70.998 70.8191 70.74 70.8431 70.416C70.8671 70.08 70.8791 69.696 70.8791 69.264L70.8971 60.75C70.8971 60.558 70.8971 60.378 70.8971 60.21C70.9091 60.03 70.9271 59.82 70.9511 59.58C70.7351 59.592 70.5191 59.604 70.3031 59.616C70.0991 59.628 69.8891 59.64 69.6731 59.652V58.896C70.2011 58.896 70.6091 58.872 70.8971 58.824C71.1851 58.776 71.4011 58.716 71.5451 58.644C71.7011 58.572 71.8211 58.494 71.9051 58.41H72.4271V66.924H73.1471L75.3431 64.62C75.5471 64.416 75.7331 64.236 75.9011 64.08C76.0691 63.912 76.2371 63.774 76.4051 63.666L75.1811 63.72V63H78.4571V63.54C78.0491 63.576 77.6651 63.708 77.3051 63.936C76.9571 64.152 76.6331 64.398 76.3331 64.674C76.0451 64.95 75.7931 65.202 75.5771 65.43L74.1731 66.906C74.4131 67.014 74.6171 67.152 74.7851 67.32C74.9531 67.488 75.1211 67.674 75.2891 67.878L76.5671 69.516C76.6271 69.588 76.7291 69.726 76.8731 69.93C77.0291 70.134 77.2091 70.356 77.4131 70.596C77.6291 70.836 77.8511 71.04 78.0791 71.208C78.3191 71.376 78.5411 71.46 78.7451 71.46V72H77.1071C76.7711 72 76.4531 71.826 76.1531 71.478C75.8531 71.13 75.5351 70.74 75.1991 70.308C74.7311 69.66 74.3351 69.102 74.0111 68.634C73.6871 68.166 73.4051 67.818 73.1651 67.59L72.4271 67.626V70.092C72.4271 70.332 72.4211 70.548 72.4091 70.74C72.4091 70.92 72.3911 71.112 72.3551 71.316C72.5471 71.304 72.7391 71.298 72.9311 71.298C73.1231 71.286 73.3151 71.274 73.5071 71.262V72H69.8351ZM5.04 82.994C4.596 83.006 4.284 83.108 4.104 83.3C3.936 83.492 3.84 83.75 3.816 84.074C3.804 84.398 3.798 84.776 3.798 85.208V92.858C3.798 93.494 3.78 93.968 3.744 94.28C3.96 94.268 4.176 94.256 4.392 94.244C4.608 94.232 4.824 94.22 5.04 94.208V95H0.99V94.406C1.446 94.382 1.758 94.28 1.926 94.1C2.094 93.908 2.184 93.65 2.196 93.326C2.22 92.99 2.232 92.612 2.232 92.192V84.416C2.232 83.912 2.25 83.48 2.286 83.12C2.07 83.132 1.854 83.144 1.638 83.156C1.422 83.168 1.206 83.18 0.99 83.192V82.4H5.04V82.994ZM6.68067 95V94.46C7.05267 94.46 7.31067 94.37 7.45467 94.19C7.59867 93.998 7.68267 93.74 7.70667 93.416C7.73067 93.08 7.74267 92.696 7.74267 92.264L7.76067 88.16C7.76067 87.968 7.76067 87.776 7.76067 87.584C7.77267 87.392 7.79667 87.194 7.83267 86.99C7.61667 87.002 7.40067 87.014 7.18467 87.026C6.98067 87.038 6.77067 87.05 6.55467 87.062V86.306C7.08267 86.306 7.47867 86.282 7.74267 86.234C8.01867 86.186 8.22267 86.126 8.35467 86.054C8.48667 85.982 8.59467 85.904 8.67867 85.82H9.20067C9.22467 85.952 9.23667 86.108 9.23667 86.288C9.24867 86.456 9.26067 86.666 9.27267 86.918C9.65667 86.57 10.1127 86.282 10.6407 86.054C11.1687 85.826 11.6907 85.712 12.2067 85.712C13.2507 85.712 14.0127 86.042 14.4927 86.702C14.9727 87.35 15.2127 88.364 15.2127 89.744V93.092C15.2127 93.332 15.2067 93.548 15.1947 93.74C15.1947 93.92 15.1767 94.112 15.1407 94.316C15.3327 94.304 15.5187 94.298 15.6987 94.298C15.8907 94.286 16.0827 94.274 16.2747 94.262V95H12.6027V94.46C12.9747 94.46 13.2327 94.37 13.3767 94.19C13.5207 93.998 13.6047 93.74 13.6287 93.416C13.6527 93.08 13.6647 92.696 13.6647 92.264V89.744C13.6527 88.712 13.4787 87.932 13.1427 87.404C12.8187 86.876 12.3027 86.618 11.5947 86.63C11.1627 86.642 10.7367 86.756 10.3167 86.972C9.90867 87.188 9.56667 87.464 9.29067 87.8C9.30267 87.896 9.30867 88.004 9.30867 88.124C9.30867 88.244 9.30867 88.37 9.30867 88.502L9.29067 93.092C9.29067 93.332 9.28467 93.548 9.27267 93.74C9.27267 93.92 9.25467 94.112 9.21867 94.316C9.41067 94.304 9.59667 94.298 9.77667 94.298C9.96867 94.286 10.1607 94.274 10.3527 94.262V95H6.68067ZM21.3043 95.288C20.7043 95.288 20.1703 95.204 19.7023 95.036C19.2343 94.88 18.8503 94.7 18.5503 94.496L18.6223 95.126H17.8663L17.7583 92.03H18.3163C18.3403 92.522 18.4783 92.966 18.7303 93.362C18.9823 93.746 19.3063 94.046 19.7023 94.262C20.0983 94.478 20.5243 94.586 20.9803 94.586C21.2923 94.586 21.5983 94.538 21.8983 94.442C22.1983 94.334 22.4503 94.178 22.6543 93.974C22.8583 93.758 22.9603 93.488 22.9603 93.164C22.9603 92.828 22.8583 92.552 22.6543 92.336C22.4623 92.108 22.2043 91.91 21.8803 91.742C21.5563 91.574 21.2083 91.418 20.8363 91.274C20.3563 91.082 19.8763 90.878 19.3963 90.662C18.9283 90.434 18.5383 90.14 18.2263 89.78C17.9143 89.408 17.7583 88.922 17.7583 88.322C17.7583 88.07 17.8063 87.794 17.9023 87.494C17.9983 87.194 18.1603 86.912 18.3883 86.648C18.6163 86.372 18.9283 86.15 19.3243 85.982C19.7203 85.802 20.2243 85.712 20.8363 85.712C21.1603 85.712 21.5203 85.766 21.9163 85.874C22.3123 85.982 22.6963 86.186 23.0683 86.486L23.0323 85.802H23.7883V88.952H23.2123C23.1883 88.532 23.0923 88.13 22.9243 87.746C22.7563 87.35 22.5103 87.026 22.1863 86.774C21.8623 86.51 21.4423 86.378 20.9263 86.378C20.3743 86.378 19.9423 86.516 19.6303 86.792C19.3183 87.068 19.1623 87.386 19.1623 87.746C19.1623 88.118 19.2763 88.43 19.5043 88.682C19.7443 88.922 20.0503 89.132 20.4223 89.312C20.7943 89.492 21.1903 89.666 21.6103 89.834C22.0663 90.026 22.5103 90.236 22.9423 90.464C23.3743 90.692 23.7283 90.98 24.0043 91.328C24.2803 91.664 24.4183 92.102 24.4183 92.642C24.4183 93.242 24.2623 93.74 23.9503 94.136C23.6503 94.532 23.2603 94.82 22.7803 95C22.3123 95.192 21.8203 95.288 21.3043 95.288ZM29.3303 95.288C29.0543 95.288 28.7723 95.246 28.4843 95.162C28.1963 95.09 27.9263 94.94 27.6743 94.712C27.4343 94.484 27.2423 94.154 27.0983 93.722C26.9543 93.278 26.8823 92.696 26.8823 91.976L26.9183 86.756L25.5323 86.774V86C25.8443 85.988 26.1623 85.874 26.4863 85.658C26.8103 85.43 27.0983 85.124 27.3503 84.74C27.6143 84.356 27.7943 83.936 27.8903 83.48H28.5023V86H31.5263V86.702L28.5023 86.738L28.4663 91.742C28.4663 92.558 28.5683 93.182 28.7723 93.614C28.9883 94.046 29.3423 94.262 29.8343 94.262C30.1703 94.262 30.4823 94.166 30.7703 93.974C31.0703 93.782 31.3343 93.518 31.5623 93.182L32.0483 93.578C31.7003 94.106 31.3523 94.49 31.0043 94.73C30.6683 94.97 30.3563 95.12 30.0683 95.18C29.7803 95.252 29.5343 95.288 29.3303 95.288ZM38.3792 95C38.3432 94.796 38.3192 94.616 38.3072 94.46C38.2952 94.304 38.2772 94.142 38.2532 93.974C37.8452 94.382 37.4012 94.706 36.9212 94.946C36.4532 95.174 35.9552 95.288 35.4272 95.288C34.5152 95.288 33.8372 95.084 33.3932 94.676C32.9492 94.256 32.7272 93.746 32.7272 93.146C32.7272 92.594 32.8952 92.12 33.2312 91.724C33.5792 91.316 34.0232 90.986 34.5632 90.734C35.1152 90.47 35.7092 90.278 36.3452 90.158C36.9932 90.026 37.6172 89.966 38.2172 89.978V88.862C38.2172 88.442 38.1812 88.046 38.1092 87.674C38.0372 87.302 37.8812 86.996 37.6412 86.756C37.4012 86.516 37.0172 86.39 36.4892 86.378C36.1412 86.366 35.7812 86.432 35.4092 86.576C35.0492 86.72 34.7852 86.966 34.6172 87.314C34.7132 87.41 34.7732 87.524 34.7972 87.656C34.8332 87.776 34.8512 87.89 34.8512 87.998C34.8512 88.142 34.7912 88.31 34.6712 88.502C34.5512 88.682 34.3412 88.766 34.0412 88.754C33.7892 88.754 33.5972 88.67 33.4652 88.502C33.3332 88.322 33.2672 88.112 33.2672 87.872C33.2672 87.464 33.4172 87.098 33.7172 86.774C34.0292 86.45 34.4552 86.192 34.9952 86C35.5352 85.808 36.1472 85.712 36.8312 85.712C37.8392 85.712 38.5832 85.982 39.0632 86.522C39.5432 87.05 39.7772 87.89 39.7652 89.042C39.7652 89.714 39.7592 90.392 39.7472 91.076C39.7472 91.748 39.7472 92.42 39.7472 93.092C39.7472 93.284 39.7412 93.476 39.7292 93.668C39.7172 93.86 39.6992 94.076 39.6752 94.316C39.8912 94.304 40.1012 94.292 40.3052 94.28C40.5212 94.268 40.7372 94.256 40.9532 94.244V95H38.3792ZM38.2172 90.59C37.8092 90.602 37.3772 90.656 36.9212 90.752C36.4772 90.836 36.0632 90.968 35.6792 91.148C35.3072 91.328 35.0012 91.568 34.7612 91.868C34.5332 92.156 34.4252 92.51 34.4372 92.93C34.4612 93.374 34.6052 93.71 34.8692 93.938C35.1452 94.154 35.4692 94.262 35.8412 94.262C36.3332 94.262 36.7592 94.172 37.1192 93.992C37.4912 93.8 37.8572 93.536 38.2172 93.2C38.2052 93.068 38.1992 92.924 38.1992 92.768C38.1992 92.612 38.1992 92.45 38.1992 92.282C38.1992 92.222 38.1992 92.03 38.1992 91.706C38.2112 91.382 38.2172 91.01 38.2172 90.59ZM46.5265 99.878C45.4465 99.878 44.5765 99.758 43.9165 99.518C43.2565 99.278 42.7765 98.972 42.4765 98.6C42.1765 98.228 42.0265 97.844 42.0265 97.448C42.0265 97.076 42.1105 96.746 42.2785 96.458C42.4585 96.182 42.6745 95.942 42.9265 95.738C43.1905 95.534 43.4425 95.384 43.6825 95.288C43.2985 95.156 42.9925 94.982 42.7645 94.766C42.5485 94.538 42.4405 94.238 42.4405 93.866C42.4405 93.446 42.6085 93.056 42.9445 92.696C43.2805 92.324 43.7125 92.096 44.2405 92.012C43.6885 91.748 43.2445 91.382 42.9085 90.914C42.5845 90.446 42.4225 89.9 42.4225 89.276C42.4225 88.556 42.6085 87.932 42.9805 87.404C43.3525 86.864 43.8265 86.45 44.4025 86.162C44.9905 85.862 45.5965 85.712 46.2205 85.712C47.0365 85.712 47.7985 85.934 48.5065 86.378C48.6865 85.874 48.9745 85.46 49.3705 85.136C49.7665 84.8 50.2045 84.632 50.6845 84.632C50.9965 84.632 51.2305 84.716 51.3865 84.884C51.5545 85.04 51.6385 85.256 51.6385 85.532C51.6385 85.664 51.5785 85.826 51.4585 86.018C51.3505 86.198 51.1525 86.282 50.8645 86.27C50.6605 86.27 50.4925 86.21 50.3605 86.09C50.2285 85.97 50.1445 85.82 50.1085 85.64C49.8085 85.688 49.5745 85.832 49.4065 86.072C49.2385 86.3 49.1245 86.552 49.0645 86.828C49.3525 87.092 49.5805 87.41 49.7485 87.782C49.9285 88.154 50.0185 88.55 50.0185 88.97C50.0185 89.642 49.8385 90.242 49.4785 90.77C49.1305 91.298 48.6685 91.712 48.0925 92.012C47.5165 92.3 46.8925 92.444 46.2205 92.444C45.9925 92.444 45.7945 92.432 45.6265 92.408C45.4585 92.372 45.2545 92.354 45.0145 92.354C44.5705 92.354 44.2105 92.462 43.9345 92.678C43.6585 92.894 43.5625 93.152 43.6465 93.452C43.7425 93.74 44.0365 93.926 44.5285 94.01C45.0205 94.082 45.6805 94.136 46.5085 94.172C47.4325 94.208 48.2245 94.316 48.8845 94.496C49.5445 94.676 50.0485 94.952 50.3965 95.324C50.7565 95.708 50.9365 96.224 50.9365 96.872C50.9365 97.352 50.8045 97.778 50.5405 98.15C50.2885 98.534 49.9465 98.852 49.5145 99.104C49.0945 99.356 48.6205 99.548 48.0925 99.68C47.5765 99.812 47.0545 99.878 46.5265 99.878ZM46.2745 91.796C46.9465 91.796 47.4445 91.562 47.7685 91.094C48.1045 90.614 48.2725 90.026 48.2725 89.33C48.2725 88.802 48.1945 88.31 48.0385 87.854C47.8825 87.398 47.6485 87.032 47.3365 86.756C47.0365 86.48 46.6525 86.342 46.1845 86.342C45.5365 86.342 45.0325 86.588 44.6725 87.08C44.3245 87.56 44.1505 88.16 44.1505 88.88C44.1505 89.744 44.3365 90.446 44.7085 90.986C45.0805 91.526 45.6025 91.796 46.2745 91.796ZM46.5085 99.176C47.5405 99.176 48.3445 98.984 48.9205 98.6C49.4965 98.216 49.7845 97.766 49.7845 97.25C49.7845 96.806 49.6345 96.464 49.3345 96.224C49.0345 95.996 48.6265 95.834 48.1105 95.738C47.5945 95.654 47.0005 95.606 46.3285 95.594C46.0045 95.582 45.6865 95.564 45.3745 95.54C45.0625 95.528 44.7625 95.498 44.4745 95.45C43.7905 95.906 43.4485 96.5 43.4485 97.232C43.4485 97.82 43.7245 98.288 44.2765 98.636C44.8405 98.996 45.5845 99.176 46.5085 99.176ZM52.1377 94.46C52.5097 94.46 52.7677 94.37 52.9117 94.19C53.0557 93.998 53.1397 93.74 53.1637 93.416C53.1877 93.08 53.1997 92.696 53.1997 92.264V88.16C53.1997 87.968 53.1997 87.776 53.1997 87.584C53.2117 87.392 53.2357 87.194 53.2717 86.99C53.0557 87.002 52.8397 87.014 52.6237 87.026C52.4197 87.026 52.2097 87.032 51.9937 87.044V86.306H52.5517C53.0677 86.306 53.4217 86.258 53.6137 86.162C53.8177 86.054 53.9857 85.94 54.1177 85.82H54.6397C54.6637 86.012 54.6817 86.252 54.6937 86.54C54.7057 86.816 54.7177 87.17 54.7297 87.602C54.9097 87.302 55.1557 87.008 55.4677 86.72C55.7797 86.432 56.1277 86.192 56.5117 86C56.9077 85.808 57.3217 85.712 57.7537 85.712C58.0897 85.712 58.3837 85.802 58.6357 85.982C58.8877 86.162 59.0137 86.45 59.0137 86.846C59.0137 87.002 58.9417 87.188 58.7977 87.404C58.6657 87.62 58.4377 87.722 58.1137 87.71C57.8497 87.698 57.6397 87.596 57.4837 87.404C57.3277 87.2 57.2677 86.966 57.3037 86.702C56.8477 86.678 56.3857 86.852 55.9177 87.224C55.4497 87.596 55.0597 88.076 54.7477 88.664L54.7657 93.092C54.7657 93.332 54.7597 93.548 54.7477 93.74C54.7477 93.92 54.7297 94.112 54.6937 94.316C54.8857 94.304 55.0717 94.298 55.2517 94.298C55.4437 94.286 55.6357 94.274 55.8277 94.262V95H52.1377V94.46ZM65.2738 95C65.2378 94.796 65.2138 94.616 65.2018 94.46C65.1898 94.304 65.1718 94.142 65.1478 93.974C64.7398 94.382 64.2958 94.706 63.8158 94.946C63.3478 95.174 62.8498 95.288 62.3218 95.288C61.4098 95.288 60.7318 95.084 60.2878 94.676C59.8438 94.256 59.6218 93.746 59.6218 93.146C59.6218 92.594 59.7898 92.12 60.1258 91.724C60.4738 91.316 60.9178 90.986 61.4578 90.734C62.0098 90.47 62.6038 90.278 63.2398 90.158C63.8878 90.026 64.5118 89.966 65.1118 89.978V88.862C65.1118 88.442 65.0758 88.046 65.0038 87.674C64.9318 87.302 64.7758 86.996 64.5358 86.756C64.2958 86.516 63.9118 86.39 63.3838 86.378C63.0358 86.366 62.6758 86.432 62.3038 86.576C61.9438 86.72 61.6798 86.966 61.5118 87.314C61.6078 87.41 61.6678 87.524 61.6918 87.656C61.7278 87.776 61.7458 87.89 61.7458 87.998C61.7458 88.142 61.6858 88.31 61.5658 88.502C61.4458 88.682 61.2358 88.766 60.9358 88.754C60.6838 88.754 60.4918 88.67 60.3598 88.502C60.2278 88.322 60.1618 88.112 60.1618 87.872C60.1618 87.464 60.3118 87.098 60.6118 86.774C60.9238 86.45 61.3498 86.192 61.8898 86C62.4298 85.808 63.0418 85.712 63.7258 85.712C64.7338 85.712 65.4778 85.982 65.9578 86.522C66.4378 87.05 66.6718 87.89 66.6598 89.042C66.6598 89.714 66.6538 90.392 66.6418 91.076C66.6418 91.748 66.6418 92.42 66.6418 93.092C66.6418 93.284 66.6358 93.476 66.6238 93.668C66.6118 93.86 66.5938 94.076 66.5698 94.316C66.7858 94.304 66.9958 94.292 67.1998 94.28C67.4158 94.268 67.6318 94.256 67.8478 94.244V95H65.2738ZM65.1118 90.59C64.7038 90.602 64.2718 90.656 63.8158 90.752C63.3718 90.836 62.9578 90.968 62.5738 91.148C62.2018 91.328 61.8958 91.568 61.6558 91.868C61.4278 92.156 61.3198 92.51 61.3318 92.93C61.3558 93.374 61.4998 93.71 61.7638 93.938C62.0398 94.154 62.3638 94.262 62.7358 94.262C63.2278 94.262 63.6538 94.172 64.0138 93.992C64.3858 93.8 64.7518 93.536 65.1118 93.2C65.0998 93.068 65.0938 92.924 65.0938 92.768C65.0938 92.612 65.0938 92.45 65.0938 92.282C65.0938 92.222 65.0938 92.03 65.0938 91.706C65.1058 91.382 65.1118 91.01 65.1118 90.59ZM69.083 95V94.46C69.455 94.46 69.713 94.37 69.857 94.19C70.001 93.998 70.085 93.74 70.109 93.416C70.133 93.08 70.145 92.696 70.145 92.264V88.16C70.145 87.968 70.145 87.776 70.145 87.584C70.157 87.392 70.181 87.194 70.217 86.99C70.001 87.002 69.785 87.014 69.569 87.026C69.365 87.038 69.155 87.05 68.939 87.062V86.306C69.467 86.306 69.863 86.282 70.127 86.234C70.403 86.186 70.607 86.126 70.739 86.054C70.871 85.982 70.979 85.904 71.063 85.82H71.585C71.609 85.94 71.621 86.078 71.621 86.234C71.633 86.39 71.645 86.57 71.657 86.774C72.017 86.462 72.431 86.21 72.899 86.018C73.367 85.814 73.835 85.712 74.303 85.712C74.903 85.712 75.407 85.82 75.815 86.036C76.223 86.252 76.541 86.546 76.769 86.918C77.177 86.582 77.645 86.3 78.173 86.072C78.713 85.832 79.241 85.712 79.757 85.712C80.801 85.712 81.569 86.03 82.061 86.666C82.553 87.29 82.787 88.316 82.763 89.744L82.745 93.092C82.745 93.332 82.739 93.548 82.727 93.74C82.727 93.92 82.709 94.112 82.673 94.316C82.865 94.304 83.051 94.298 83.231 94.298C83.423 94.286 83.615 94.274 83.807 94.262V95H80.135V94.46C80.507 94.46 80.765 94.37 80.909 94.19C81.053 93.998 81.137 93.74 81.161 93.416C81.185 93.08 81.197 92.696 81.197 92.264V89.744C81.197 88.712 81.029 87.938 80.693 87.422C80.369 86.906 79.853 86.654 79.145 86.666C78.773 86.666 78.401 86.75 78.029 86.918C77.657 87.086 77.333 87.296 77.057 87.548C77.117 87.74 77.159 87.95 77.183 88.178C77.219 88.394 77.237 88.622 77.237 88.862C77.225 89.558 77.219 90.26 77.219 90.968C77.219 91.676 77.213 92.384 77.201 93.092C77.201 93.332 77.195 93.548 77.183 93.74C77.183 93.92 77.165 94.112 77.129 94.316C77.321 94.304 77.507 94.298 77.687 94.298C77.879 94.286 78.071 94.274 78.263 94.262V95H74.591V94.46C74.963 94.46 75.215 94.37 75.347 94.19C75.491 93.998 75.575 93.74 75.599 93.416C75.635 93.08 75.653 92.696 75.653 92.264L75.671 89.744C75.683 88.712 75.533 87.932 75.221 87.404C74.909 86.876 74.399 86.618 73.691 86.63C73.319 86.63 72.953 86.714 72.593 86.882C72.233 87.038 71.927 87.242 71.675 87.494C71.675 87.638 71.675 87.794 71.675 87.962C71.687 88.118 71.693 88.286 71.693 88.466V93.092C71.693 93.332 71.687 93.548 71.675 93.74C71.675 93.92 71.657 94.112 71.621 94.316C71.813 94.304 71.999 94.298 72.179 94.298C72.371 94.286 72.563 94.274 72.755 94.262V95H69.083ZM10.422 109.198C10.41 108.49 10.338 107.902 10.206 107.434C10.074 106.966 9.84 106.618 9.504 106.39C9.18 106.15 8.706 106.036 8.082 106.048H6.552L6.534 115.858C6.534 116.494 6.516 116.968 6.48 117.28C6.732 117.268 6.978 117.256 7.218 117.244C7.47 117.232 7.722 117.22 7.974 117.208V118H3.744V117.406C4.2 117.382 4.506 117.274 4.662 117.082C4.83 116.89 4.92 116.632 4.932 116.308C4.956 115.972 4.968 115.6 4.968 115.192L4.986 106.066L3.132 106.084C2.376 106.084 1.842 106.336 1.53 106.84C1.218 107.344 1.062 108.13 1.062 109.198H0.396L0.504 105.4H10.998L11.106 109.198H10.422ZM15.4017 118.054L13.0437 111.142C12.9117 110.758 12.8097 110.458 12.7377 110.242C12.6657 110.014 12.6117 109.828 12.5757 109.684L11.6217 109.738V109H15.4377V109.54C14.8977 109.552 14.5977 109.738 14.5377 110.098C14.4897 110.446 14.5617 110.908 14.7537 111.484L15.5817 114.004C15.6777 114.292 15.7737 114.586 15.8697 114.886C15.9657 115.174 16.0617 115.462 16.1577 115.75C16.2657 115.426 16.3737 115.102 16.4817 114.778C16.6017 114.442 16.7157 114.106 16.8237 113.77L18.4257 109H19.1637L20.9817 114.238C21.0777 114.502 21.1737 114.772 21.2697 115.048C21.3657 115.324 21.4617 115.6 21.5577 115.876C21.6537 115.612 21.7437 115.354 21.8277 115.102C21.9237 114.838 22.0137 114.574 22.0977 114.31L23.2857 110.89C23.3697 110.65 23.4537 110.422 23.5377 110.206C23.6217 109.99 23.7177 109.816 23.8257 109.684L22.7817 109.738V109H25.9137V109.54C25.5057 109.564 25.1877 109.636 24.9597 109.756C24.7317 109.876 24.5577 110.038 24.4377 110.242C24.3177 110.434 24.2037 110.674 24.0957 110.962L21.5037 118.054H20.7837L19.0737 113.14C18.9657 112.828 18.8577 112.516 18.7497 112.204C18.6417 111.88 18.5337 111.562 18.4257 111.25C18.3177 111.562 18.2097 111.88 18.1017 112.204C17.9937 112.516 17.8857 112.828 17.7777 113.14L16.0857 118.054H15.4017ZM26.7197 117.46C27.0917 117.46 27.3497 117.37 27.4937 117.19C27.6377 116.998 27.7217 116.74 27.7457 116.416C27.7697 116.08 27.7817 115.696 27.7817 115.264V111.16C27.7817 110.968 27.7877 110.788 27.7997 110.62C27.8117 110.44 27.8297 110.23 27.8537 109.99C27.6377 110.002 27.4217 110.014 27.2057 110.026C27.0017 110.038 26.7917 110.05 26.5757 110.062V109.306C27.1037 109.306 27.5117 109.282 27.7997 109.234C28.0877 109.186 28.3037 109.126 28.4477 109.054C28.6037 108.982 28.7237 108.904 28.8077 108.82H29.3297V116.092C29.3297 116.332 29.3237 116.548 29.3117 116.74C29.3117 116.92 29.2937 117.112 29.2577 117.316C29.4497 117.304 29.6357 117.298 29.8157 117.298C30.0077 117.286 30.1997 117.274 30.3917 117.262V118H26.7197V117.46ZM28.4657 107.038C28.2137 107.038 27.9917 106.936 27.7997 106.732C27.6077 106.528 27.5117 106.276 27.5117 105.976C27.5117 105.676 27.6077 105.424 27.7997 105.22C28.0037 105.004 28.2317 104.896 28.4837 104.896C28.7597 104.896 28.9877 105.004 29.1677 105.22C29.3597 105.424 29.4557 105.676 29.4557 105.976C29.4557 106.276 29.3537 106.528 29.1497 106.732C28.9577 106.936 28.7297 107.038 28.4657 107.038ZM35.4475 118.288C35.1715 118.288 34.8895 118.246 34.6015 118.162C34.3135 118.09 34.0435 117.94 33.7915 117.712C33.5515 117.484 33.3595 117.154 33.2155 116.722C33.0715 116.278 32.9995 115.696 32.9995 114.976L33.0355 109.756L31.6495 109.774V109C31.9615 108.988 32.2795 108.874 32.6035 108.658C32.9275 108.43 33.2155 108.124 33.4675 107.74C33.7315 107.356 33.9115 106.936 34.0075 106.48H34.6195V109H37.6435V109.702L34.6195 109.738L34.5835 114.742C34.5835 115.558 34.6855 116.182 34.8895 116.614C35.1055 117.046 35.4595 117.262 35.9515 117.262C36.2875 117.262 36.5995 117.166 36.8875 116.974C37.1875 116.782 37.4515 116.518 37.6795 116.182L38.1655 116.578C37.8175 117.106 37.4695 117.49 37.1215 117.73C36.7855 117.97 36.4735 118.12 36.1855 118.18C35.8975 118.252 35.6515 118.288 35.4475 118.288ZM42.5842 118.288C42.3082 118.288 42.0262 118.246 41.7382 118.162C41.4502 118.09 41.1802 117.94 40.9282 117.712C40.6882 117.484 40.4962 117.154 40.3522 116.722C40.2082 116.278 40.1362 115.696 40.1362 114.976L40.1722 109.756L38.7862 109.774V109C39.0982 108.988 39.4162 108.874 39.7402 108.658C40.0642 108.43 40.3522 108.124 40.6042 107.74C40.8682 107.356 41.0482 106.936 41.1442 106.48H41.7562V109H44.7802V109.702L41.7562 109.738L41.7202 114.742C41.7202 115.558 41.8222 116.182 42.0262 116.614C42.2422 117.046 42.5962 117.262 43.0882 117.262C43.4242 117.262 43.7362 117.166 44.0242 116.974C44.3242 116.782 44.5882 116.518 44.8162 116.182L45.3022 116.578C44.9542 117.106 44.6062 117.49 44.2582 117.73C43.9222 117.97 43.6102 118.12 43.3222 118.18C43.0342 118.252 42.7882 118.288 42.5842 118.288ZM50.5171 118.288C49.6891 118.288 48.9391 118.096 48.2671 117.712C47.6071 117.316 47.0851 116.764 46.7011 116.056C46.3171 115.336 46.1251 114.49 46.1251 113.518C46.1251 112.678 46.3111 111.892 46.6831 111.16C47.0671 110.428 47.6011 109.84 48.2851 109.396C48.9691 108.94 49.7611 108.712 50.6611 108.712C51.3331 108.712 51.9451 108.856 52.4971 109.144C53.0491 109.432 53.4871 109.87 53.8111 110.458C54.1471 111.046 54.3151 111.79 54.3151 112.69L47.9791 112.798C47.9671 114.178 48.1951 115.288 48.6631 116.128C49.1311 116.956 49.8931 117.37 50.9491 117.37C51.3211 117.37 51.6991 117.304 52.0831 117.172C52.4791 117.04 52.8451 116.86 53.1811 116.632C53.5171 116.404 53.7871 116.152 53.9911 115.876L54.4231 116.236C54.0991 116.74 53.7091 117.142 53.2531 117.442C52.7971 117.742 52.3291 117.958 51.8491 118.09C51.3691 118.222 50.9251 118.288 50.5171 118.288ZM48.0331 112.042H52.6231C52.6231 111.61 52.5571 111.196 52.4251 110.8C52.3051 110.392 52.1011 110.062 51.8131 109.81C51.5251 109.546 51.1471 109.414 50.6791 109.414C49.9831 109.414 49.4011 109.624 48.9331 110.044C48.4771 110.452 48.1771 111.118 48.0331 112.042ZM55.917 117.46C56.289 117.46 56.547 117.37 56.691 117.19C56.835 116.998 56.919 116.74 56.943 116.416C56.967 116.08 56.979 115.696 56.979 115.264V111.16C56.979 110.968 56.979 110.776 56.979 110.584C56.991 110.392 57.015 110.194 57.051 109.99C56.835 110.002 56.619 110.014 56.403 110.026C56.199 110.026 55.989 110.032 55.773 110.044V109.306H56.331C56.847 109.306 57.201 109.258 57.393 109.162C57.597 109.054 57.765 108.94 57.897 108.82H58.419C58.443 109.012 58.461 109.252 58.473 109.54C58.485 109.816 58.497 110.17 58.509 110.602C58.689 110.302 58.935 110.008 59.247 109.72C59.559 109.432 59.907 109.192 60.291 109C60.687 108.808 61.101 108.712 61.533 108.712C61.869 108.712 62.163 108.802 62.415 108.982C62.667 109.162 62.793 109.45 62.793 109.846C62.793 110.002 62.721 110.188 62.577 110.404C62.445 110.62 62.217 110.722 61.893 110.71C61.629 110.698 61.419 110.596 61.263 110.404C61.107 110.2 61.047 109.966 61.083 109.702C60.627 109.678 60.165 109.852 59.697 110.224C59.229 110.596 58.839 111.076 58.527 111.664L58.545 116.092C58.545 116.332 58.539 116.548 58.527 116.74C58.527 116.92 58.509 117.112 58.473 117.316C58.665 117.304 58.851 117.298 59.031 117.298C59.223 117.286 59.415 117.274 59.607 117.262V118H55.917V117.46Z" fill="white"/>
</svg>
