<svg width="127" height="13" viewBox="0 0 127 13" fill="none" xmlns="http://www.w3.org/2000/svg">
<path d="M4.83048 12.288C4.02648 12.288 3.28248 12.108 2.59848 11.748C1.92648 11.376 1.38648 10.848 0.978484 10.164C0.582484 9.468 0.384484 8.634 0.384484 7.662C0.384484 7.038 0.498484 6.432 0.726484 5.844C0.954484 5.256 1.27248 4.728 1.68048 4.26C2.10048 3.78 2.59848 3.402 3.17448 3.126C3.75048 2.85 4.38648 2.712 5.08248 2.712C5.75448 2.712 6.33648 2.814 6.82848 3.018C7.33248 3.222 7.72248 3.492 7.99848 3.828C8.27448 4.164 8.41248 4.53 8.41248 4.926C8.41248 5.19 8.34048 5.418 8.19648 5.61C8.05248 5.79 7.84248 5.88 7.56648 5.88C7.26648 5.892 7.05048 5.802 6.91848 5.61C6.79848 5.406 6.73848 5.226 6.73848 5.07C6.73848 4.95 6.75648 4.83 6.79248 4.71C6.82848 4.578 6.90048 4.458 7.00848 4.35C6.91248 4.062 6.74448 3.852 6.50448 3.72C6.26448 3.576 6.01248 3.486 5.74848 3.45C5.49648 3.402 5.28648 3.378 5.11848 3.378C4.30248 3.378 3.61248 3.708 3.04848 4.368C2.49648 5.016 2.22048 5.964 2.22048 7.212C2.22048 8.016 2.34648 8.73 2.59848 9.354C2.86248 9.978 3.22848 10.47 3.69648 10.83C4.16448 11.178 4.70448 11.352 5.31648 11.352C5.88048 11.352 6.42048 11.202 6.93648 10.902C7.45248 10.602 7.85448 10.236 8.14248 9.804L8.61048 10.164C8.29848 10.668 7.92048 11.076 7.47648 11.388C7.04448 11.7 6.59448 11.928 6.12648 12.072C5.67048 12.216 5.23848 12.288 4.83048 12.288ZM10.0186 11.46C10.3906 11.46 10.6486 11.37 10.7926 11.19C10.9366 10.998 11.0206 10.74 11.0446 10.416C11.0686 10.08 11.0806 9.696 11.0806 9.264V5.16C11.0806 4.968 11.0806 4.776 11.0806 4.584C11.0926 4.392 11.1166 4.194 11.1526 3.99C10.9366 4.002 10.7206 4.014 10.5046 4.026C10.3006 4.026 10.0906 4.032 9.87456 4.044V3.306H10.4326C10.9486 3.306 11.3026 3.258 11.4946 3.162C11.6986 3.054 11.8666 2.94 11.9986 2.82H12.5206C12.5446 3.012 12.5626 3.252 12.5746 3.54C12.5866 3.816 12.5986 4.17 12.6106 4.602C12.7906 4.302 13.0366 4.008 13.3486 3.72C13.6606 3.432 14.0086 3.192 14.3926 3C14.7886 2.808 15.2026 2.712 15.6346 2.712C15.9706 2.712 16.2646 2.802 16.5166 2.982C16.7686 3.162 16.8946 3.45 16.8946 3.846C16.8946 4.002 16.8226 4.188 16.6786 4.404C16.5466 4.62 16.3186 4.722 15.9946 4.71C15.7306 4.698 15.5206 4.596 15.3646 4.404C15.2086 4.2 15.1486 3.966 15.1846 3.702C14.7286 3.678 14.2666 3.852 13.7986 4.224C13.3306 4.596 12.9406 5.076 12.6286 5.664L12.6466 10.092C12.6466 10.332 12.6406 10.548 12.6286 10.74C12.6286 10.92 12.6106 11.112 12.5746 11.316C12.7666 11.304 12.9526 11.298 13.1326 11.298C13.3246 11.286 13.5166 11.274 13.7086 11.262V12H10.0186V11.46ZM22.0386 12.288C21.2106 12.288 20.4606 12.096 19.7886 11.712C19.1286 11.316 18.6066 10.764 18.2226 10.056C17.8386 9.336 17.6466 8.49 17.6466 7.518C17.6466 6.678 17.8326 5.892 18.2046 5.16C18.5886 4.428 19.1226 3.84 19.8066 3.396C20.4906 2.94 21.2826 2.712 22.1826 2.712C22.8546 2.712 23.4666 2.856 24.0186 3.144C24.5706 3.432 25.0086 3.87 25.3326 4.458C25.6686 5.046 25.8366 5.79 25.8366 6.69L19.5006 6.798C19.4886 8.178 19.7166 9.288 20.1846 10.128C20.6526 10.956 21.4146 11.37 22.4706 11.37C22.8426 11.37 23.2206 11.304 23.6046 11.172C24.0006 11.04 24.3666 10.86 24.7026 10.632C25.0386 10.404 25.3086 10.152 25.5126 9.876L25.9446 10.236C25.6206 10.74 25.2306 11.142 24.7746 11.442C24.3186 11.742 23.8506 11.958 23.3706 12.09C22.8906 12.222 22.4466 12.288 22.0386 12.288ZM19.5546 6.042H24.1446C24.1446 5.61 24.0786 5.196 23.9466 4.8C23.8266 4.392 23.6226 4.062 23.3346 3.81C23.0466 3.546 22.6686 3.414 22.2006 3.414C21.5046 3.414 20.9226 3.624 20.4546 4.044C19.9986 4.452 19.6986 5.118 19.5546 6.042ZM31.1285 12.288C30.5285 12.288 29.9945 12.204 29.5265 12.036C29.0585 11.88 28.6745 11.7 28.3745 11.496L28.4465 12.126H27.6905L27.5825 9.03H28.1405C28.1645 9.522 28.3025 9.966 28.5545 10.362C28.8065 10.746 29.1305 11.046 29.5265 11.262C29.9225 11.478 30.3485 11.586 30.8045 11.586C31.1165 11.586 31.4225 11.538 31.7225 11.442C32.0225 11.334 32.2745 11.178 32.4785 10.974C32.6825 10.758 32.7845 10.488 32.7845 10.164C32.7845 9.828 32.6825 9.552 32.4785 9.336C32.2865 9.108 32.0285 8.91 31.7045 8.742C31.3805 8.574 31.0325 8.418 30.6605 8.274C30.1805 8.082 29.7005 7.878 29.2205 7.662C28.7525 7.434 28.3625 7.14 28.0505 6.78C27.7385 6.408 27.5825 5.922 27.5825 5.322C27.5825 5.07 27.6305 4.794 27.7265 4.494C27.8225 4.194 27.9845 3.912 28.2125 3.648C28.4405 3.372 28.7525 3.15 29.1485 2.982C29.5445 2.802 30.0485 2.712 30.6605 2.712C30.9845 2.712 31.3445 2.766 31.7405 2.874C32.1365 2.982 32.5205 3.186 32.8925 3.486L32.8565 2.802H33.6125V5.952H33.0365C33.0125 5.532 32.9165 5.13 32.7485 4.746C32.5805 4.35 32.3345 4.026 32.0105 3.774C31.6865 3.51 31.2665 3.378 30.7505 3.378C30.1985 3.378 29.7665 3.516 29.4545 3.792C29.1425 4.068 28.9865 4.386 28.9865 4.746C28.9865 5.118 29.1005 5.43 29.3285 5.682C29.5685 5.922 29.8745 6.132 30.2465 6.312C30.6185 6.492 31.0145 6.666 31.4345 6.834C31.8905 7.026 32.3345 7.236 32.7665 7.464C33.1985 7.692 33.5525 7.98 33.8285 8.328C34.1045 8.664 34.2425 9.102 34.2425 9.642C34.2425 10.242 34.0865 10.74 33.7745 11.136C33.4745 11.532 33.0845 11.82 32.6045 12C32.1365 12.192 31.6445 12.288 31.1285 12.288ZM39.1545 12.288C38.8785 12.288 38.5965 12.246 38.3085 12.162C38.0205 12.09 37.7505 11.94 37.4985 11.712C37.2585 11.484 37.0665 11.154 36.9225 10.722C36.7785 10.278 36.7065 9.696 36.7065 8.976L36.7425 3.756L35.3565 3.774V3C35.6685 2.988 35.9865 2.874 36.3105 2.658C36.6345 2.43 36.9225 2.124 37.1745 1.74C37.4385 1.356 37.6185 0.935999 37.7145 0.479999H38.3265V3H41.3505V3.702L38.3265 3.738L38.2905 8.742C38.2905 9.558 38.3925 10.182 38.5965 10.614C38.8125 11.046 39.1665 11.262 39.6585 11.262C39.9945 11.262 40.3065 11.166 40.5945 10.974C40.8945 10.782 41.1585 10.518 41.3865 10.182L41.8725 10.578C41.5245 11.106 41.1765 11.49 40.8285 11.73C40.4925 11.97 40.1805 12.12 39.8925 12.18C39.6045 12.252 39.3585 12.288 39.1545 12.288ZM47.1235 12.288C46.3195 12.288 45.5755 12.108 44.8915 11.748C44.2195 11.376 43.6795 10.848 43.2715 10.164C42.8755 9.468 42.6775 8.634 42.6775 7.662C42.6775 7.038 42.7915 6.432 43.0195 5.844C43.2475 5.256 43.5655 4.728 43.9735 4.26C44.3935 3.78 44.8915 3.402 45.4675 3.126C46.0435 2.85 46.6795 2.712 47.3755 2.712C48.0475 2.712 48.6295 2.814 49.1215 3.018C49.6255 3.222 50.0155 3.492 50.2915 3.828C50.5675 4.164 50.7055 4.53 50.7055 4.926C50.7055 5.19 50.6335 5.418 50.4895 5.61C50.3455 5.79 50.1355 5.88 49.8595 5.88C49.5595 5.892 49.3435 5.802 49.2115 5.61C49.0915 5.406 49.0315 5.226 49.0315 5.07C49.0315 4.95 49.0495 4.83 49.0855 4.71C49.1215 4.578 49.1935 4.458 49.3015 4.35C49.2055 4.062 49.0375 3.852 48.7975 3.72C48.5575 3.576 48.3055 3.486 48.0415 3.45C47.7895 3.402 47.5795 3.378 47.4115 3.378C46.5955 3.378 45.9055 3.708 45.3415 4.368C44.7895 5.016 44.5135 5.964 44.5135 7.212C44.5135 8.016 44.6395 8.73 44.8915 9.354C45.1555 9.978 45.5215 10.47 45.9895 10.83C46.4575 11.178 46.9975 11.352 47.6095 11.352C48.1735 11.352 48.7135 11.202 49.2295 10.902C49.7455 10.602 50.1475 10.236 50.4355 9.804L50.9035 10.164C50.5915 10.668 50.2135 11.076 49.7695 11.388C49.3375 11.7 48.8875 11.928 48.4195 12.072C47.9635 12.216 47.5315 12.288 47.1235 12.288ZM56.5796 12.288C55.7516 12.288 55.0016 12.096 54.3296 11.712C53.6696 11.316 53.1476 10.764 52.7636 10.056C52.3796 9.336 52.1876 8.49 52.1876 7.518C52.1876 6.678 52.3736 5.892 52.7456 5.16C53.1296 4.428 53.6636 3.84 54.3476 3.396C55.0316 2.94 55.8236 2.712 56.7236 2.712C57.3956 2.712 58.0076 2.856 58.5596 3.144C59.1116 3.432 59.5496 3.87 59.8736 4.458C60.2096 5.046 60.3776 5.79 60.3776 6.69L54.0416 6.798C54.0296 8.178 54.2576 9.288 54.7256 10.128C55.1936 10.956 55.9556 11.37 57.0116 11.37C57.3836 11.37 57.7616 11.304 58.1456 11.172C58.5416 11.04 58.9076 10.86 59.2436 10.632C59.5796 10.404 59.8496 10.152 60.0536 9.876L60.4856 10.236C60.1616 10.74 59.7716 11.142 59.3156 11.442C58.8596 11.742 58.3916 11.958 57.9116 12.09C57.4316 12.222 56.9876 12.288 56.5796 12.288ZM54.0956 6.042H58.6856C58.6856 5.61 58.6196 5.196 58.4876 4.8C58.3676 4.392 58.1636 4.062 57.8756 3.81C57.5876 3.546 57.2096 3.414 56.7416 3.414C56.0456 3.414 55.4636 3.624 54.9956 4.044C54.5396 4.452 54.2396 5.118 54.0956 6.042ZM61.9795 12V11.46C62.3515 11.46 62.6095 11.37 62.7535 11.19C62.8975 10.998 62.9815 10.74 63.0055 10.416C63.0295 10.08 63.0415 9.696 63.0415 9.264L63.0595 5.16C63.0595 4.968 63.0595 4.776 63.0595 4.584C63.0715 4.392 63.0955 4.194 63.1315 3.99C62.9155 4.002 62.6995 4.014 62.4835 4.026C62.2795 4.038 62.0695 4.05 61.8535 4.062V3.306C62.3815 3.306 62.7775 3.282 63.0415 3.234C63.3175 3.186 63.5215 3.126 63.6535 3.054C63.7855 2.982 63.8935 2.904 63.9775 2.82H64.4995C64.5235 2.952 64.5355 3.108 64.5355 3.288C64.5475 3.456 64.5595 3.666 64.5715 3.918C64.9555 3.57 65.4115 3.282 65.9395 3.054C66.4675 2.826 66.9895 2.712 67.5055 2.712C68.5495 2.712 69.3115 3.042 69.7915 3.702C70.2715 4.35 70.5115 5.364 70.5115 6.744V10.092C70.5115 10.332 70.5055 10.548 70.4935 10.74C70.4935 10.92 70.4755 11.112 70.4395 11.316C70.6315 11.304 70.8175 11.298 70.9975 11.298C71.1895 11.286 71.3815 11.274 71.5735 11.262V12H67.9015V11.46C68.2735 11.46 68.5315 11.37 68.6755 11.19C68.8195 10.998 68.9035 10.74 68.9275 10.416C68.9515 10.08 68.9635 9.696 68.9635 9.264V6.744C68.9515 5.712 68.7775 4.932 68.4415 4.404C68.1175 3.876 67.6015 3.618 66.8935 3.63C66.4615 3.642 66.0355 3.756 65.6155 3.972C65.2075 4.188 64.8655 4.464 64.5895 4.8C64.6015 4.896 64.6075 5.004 64.6075 5.124C64.6075 5.244 64.6075 5.37 64.6075 5.502L64.5895 10.092C64.5895 10.332 64.5835 10.548 64.5715 10.74C64.5715 10.92 64.5535 11.112 64.5175 11.316C64.7095 11.304 64.8955 11.298 65.0755 11.298C65.2675 11.286 65.4595 11.274 65.6515 11.262V12H61.9795ZM76.1389 12.288C75.8629 12.288 75.5809 12.246 75.2929 12.162C75.0049 12.09 74.7349 11.94 74.4829 11.712C74.2429 11.484 74.0509 11.154 73.9069 10.722C73.7629 10.278 73.6909 9.696 73.6909 8.976L73.7269 3.756L72.3409 3.774V3C72.6529 2.988 72.9709 2.874 73.2949 2.658C73.6189 2.43 73.9069 2.124 74.1589 1.74C74.4229 1.356 74.6029 0.935999 74.6989 0.479999H75.3109V3H78.3349V3.702L75.3109 3.738L75.2749 8.742C75.2749 9.558 75.3769 10.182 75.5809 10.614C75.7969 11.046 76.1509 11.262 76.6429 11.262C76.9789 11.262 77.2909 11.166 77.5789 10.974C77.8789 10.782 78.1429 10.518 78.3709 10.182L78.8569 10.578C78.5089 11.106 78.1609 11.49 77.8129 11.73C77.4769 11.97 77.1649 12.12 76.8769 12.18C76.5889 12.252 76.3429 12.288 76.1389 12.288ZM79.7158 12V11.46C80.0878 11.46 80.3458 11.37 80.4898 11.19C80.6338 10.998 80.7178 10.74 80.7418 10.416C80.7658 10.08 80.7778 9.696 80.7778 9.264V5.16C80.7778 4.968 80.7778 4.776 80.7778 4.584C80.7898 4.392 80.8138 4.194 80.8498 3.99C80.6338 4.002 80.4178 4.014 80.2018 4.026C79.9978 4.038 79.7878 4.05 79.5718 4.062V3.306C80.0998 3.306 80.4958 3.282 80.7598 3.234C81.0358 3.186 81.2398 3.126 81.3718 3.054C81.5038 2.982 81.6118 2.904 81.6958 2.82H82.2178C82.2418 2.94 82.2538 3.078 82.2538 3.234C82.2658 3.39 82.2778 3.57 82.2898 3.774C82.6498 3.462 83.0638 3.21 83.5318 3.018C83.9998 2.814 84.4678 2.712 84.9358 2.712C85.5358 2.712 86.0398 2.82 86.4478 3.036C86.8558 3.252 87.1738 3.546 87.4018 3.918C87.8098 3.582 88.2778 3.3 88.8058 3.072C89.3458 2.832 89.8738 2.712 90.3898 2.712C91.4338 2.712 92.2018 3.03 92.6938 3.666C93.1858 4.29 93.4198 5.316 93.3958 6.744L93.3778 10.092C93.3778 10.332 93.3718 10.548 93.3598 10.74C93.3598 10.92 93.3418 11.112 93.3058 11.316C93.4978 11.304 93.6838 11.298 93.8638 11.298C94.0558 11.286 94.2478 11.274 94.4398 11.262V12H90.7678V11.46C91.1398 11.46 91.3978 11.37 91.5418 11.19C91.6858 10.998 91.7698 10.74 91.7938 10.416C91.8178 10.08 91.8298 9.696 91.8298 9.264V6.744C91.8298 5.712 91.6618 4.938 91.3258 4.422C91.0018 3.906 90.4858 3.654 89.7778 3.666C89.4058 3.666 89.0338 3.75 88.6618 3.918C88.2898 4.086 87.9658 4.296 87.6898 4.548C87.7498 4.74 87.7918 4.95 87.8158 5.178C87.8518 5.394 87.8698 5.622 87.8698 5.862C87.8578 6.558 87.8518 7.26 87.8518 7.968C87.8518 8.676 87.8458 9.384 87.8338 10.092C87.8338 10.332 87.8278 10.548 87.8158 10.74C87.8158 10.92 87.7978 11.112 87.7618 11.316C87.9538 11.304 88.1398 11.298 88.3198 11.298C88.5118 11.286 88.7038 11.274 88.8958 11.262V12H85.2238V11.46C85.5958 11.46 85.8478 11.37 85.9798 11.19C86.1238 10.998 86.2078 10.74 86.2318 10.416C86.2678 10.08 86.2858 9.696 86.2858 9.264L86.3038 6.744C86.3158 5.712 86.1658 4.932 85.8538 4.404C85.5418 3.876 85.0318 3.618 84.3238 3.63C83.9518 3.63 83.5858 3.714 83.2258 3.882C82.8658 4.038 82.5598 4.242 82.3078 4.494C82.3078 4.638 82.3078 4.794 82.3078 4.962C82.3198 5.118 82.3258 5.286 82.3258 5.466V10.092C82.3258 10.332 82.3198 10.548 82.3078 10.74C82.3078 10.92 82.2898 11.112 82.2538 11.316C82.4458 11.304 82.6318 11.298 82.8118 11.298C83.0038 11.286 83.1958 11.274 83.3878 11.262V12H79.7158ZM100.264 12.288C99.4238 12.288 98.6618 12.096 97.9778 11.712C97.2938 11.316 96.7478 10.776 96.3398 10.092C95.9438 9.396 95.7458 8.604 95.7458 7.716C95.7458 6.768 95.9438 5.916 96.3398 5.16C96.7358 4.404 97.2758 3.81 97.9598 3.378C98.6438 2.934 99.4118 2.712 100.264 2.712C101.104 2.712 101.866 2.916 102.55 3.324C103.234 3.72 103.78 4.26 104.188 4.944C104.596 5.628 104.8 6.408 104.8 7.284C104.8 8.208 104.596 9.054 104.188 9.822C103.792 10.578 103.252 11.178 102.568 11.622C101.884 12.066 101.116 12.288 100.264 12.288ZM100.408 11.568C101.044 11.568 101.548 11.388 101.92 11.028C102.292 10.668 102.556 10.2 102.712 9.624C102.88 9.048 102.964 8.442 102.964 7.806C102.964 7.266 102.91 6.738 102.802 6.222C102.706 5.694 102.55 5.22 102.334 4.8C102.118 4.368 101.836 4.026 101.488 3.774C101.152 3.522 100.744 3.396 100.264 3.396C99.6398 3.396 99.1298 3.576 98.7338 3.936C98.3378 4.296 98.0438 4.764 97.8518 5.34C97.6718 5.916 97.5818 6.534 97.5818 7.194C97.5818 7.938 97.6838 8.646 97.8878 9.318C98.0918 9.978 98.4038 10.518 98.8238 10.938C99.2438 11.358 99.7718 11.568 100.408 11.568ZM110.793 12.288C109.953 12.288 109.191 12.096 108.507 11.712C107.823 11.316 107.277 10.776 106.869 10.092C106.473 9.396 106.275 8.604 106.275 7.716C106.275 6.768 106.473 5.916 106.869 5.16C107.265 4.404 107.805 3.81 108.489 3.378C109.173 2.934 109.941 2.712 110.793 2.712C111.633 2.712 112.395 2.916 113.079 3.324C113.763 3.72 114.309 4.26 114.717 4.944C115.125 5.628 115.329 6.408 115.329 7.284C115.329 8.208 115.125 9.054 114.717 9.822C114.321 10.578 113.781 11.178 113.097 11.622C112.413 12.066 111.645 12.288 110.793 12.288ZM110.937 11.568C111.573 11.568 112.077 11.388 112.449 11.028C112.821 10.668 113.085 10.2 113.241 9.624C113.409 9.048 113.493 8.442 113.493 7.806C113.493 7.266 113.439 6.738 113.331 6.222C113.235 5.694 113.079 5.22 112.863 4.8C112.647 4.368 112.365 4.026 112.017 3.774C111.681 3.522 111.273 3.396 110.793 3.396C110.169 3.396 109.659 3.576 109.263 3.936C108.867 4.296 108.573 4.764 108.381 5.34C108.201 5.916 108.111 6.534 108.111 7.194C108.111 7.938 108.213 8.646 108.417 9.318C108.621 9.978 108.933 10.518 109.353 10.938C109.773 11.358 110.301 11.568 110.937 11.568ZM116.858 12V11.46C117.23 11.46 117.488 11.37 117.632 11.19C117.776 10.998 117.86 10.74 117.884 10.416C117.908 10.08 117.92 9.696 117.92 9.264L117.938 5.16C117.938 4.968 117.938 4.776 117.938 4.584C117.95 4.392 117.974 4.194 118.01 3.99C117.794 4.002 117.578 4.014 117.362 4.026C117.158 4.038 116.948 4.05 116.732 4.062V3.306C117.26 3.306 117.656 3.282 117.92 3.234C118.196 3.186 118.4 3.126 118.532 3.054C118.664 2.982 118.772 2.904 118.856 2.82H119.378C119.402 2.952 119.414 3.108 119.414 3.288C119.426 3.456 119.438 3.666 119.45 3.918C119.834 3.57 120.29 3.282 120.818 3.054C121.346 2.826 121.868 2.712 122.384 2.712C123.428 2.712 124.19 3.042 124.67 3.702C125.15 4.35 125.39 5.364 125.39 6.744V10.092C125.39 10.332 125.384 10.548 125.372 10.74C125.372 10.92 125.354 11.112 125.318 11.316C125.51 11.304 125.696 11.298 125.876 11.298C126.068 11.286 126.26 11.274 126.452 11.262V12H122.78V11.46C123.152 11.46 123.41 11.37 123.554 11.19C123.698 10.998 123.782 10.74 123.806 10.416C123.83 10.08 123.842 9.696 123.842 9.264V6.744C123.83 5.712 123.656 4.932 123.32 4.404C122.996 3.876 122.48 3.618 121.772 3.63C121.34 3.642 120.914 3.756 120.494 3.972C120.086 4.188 119.744 4.464 119.468 4.8C119.48 4.896 119.486 5.004 119.486 5.124C119.486 5.244 119.486 5.37 119.486 5.502L119.468 10.092C119.468 10.332 119.462 10.548 119.45 10.74C119.45 10.92 119.432 11.112 119.396 11.316C119.588 11.304 119.774 11.298 119.954 11.298C120.146 11.286 120.338 11.274 120.53 11.262V12H116.858Z" fill="white"/>
</svg>
