<svg width="75" height="42" viewBox="0 0 75 42" fill="none" xmlns="http://www.w3.org/2000/svg">
<path d="M8.1435 41.48C5.5835 41.48 3.6315 40.76 2.2875 39.32C0.9435 37.848 0.2715 35.752 0.2715 33.032V15.368C0.2715 12.648 0.9435 10.568 2.2875 9.128C3.6315 7.656 5.5835 6.92 8.1435 6.92C10.7035 6.92 12.6555 7.656 13.9995 9.128C15.3435 10.568 16.0155 12.648 16.0155 15.368V18.248H11.0235V15.032C11.0235 12.824 10.1115 11.72 8.2875 11.72C6.4635 11.72 5.5515 12.824 5.5515 15.032V33.416C5.5515 35.592 6.4635 36.68 8.2875 36.68C10.1115 36.68 11.0235 35.592 11.0235 33.416V26.84H8.3835V22.04H16.0155V33.032C16.0155 35.752 15.3435 37.848 13.9995 39.32C12.6555 40.76 10.7035 41.48 8.1435 41.48ZM19.4055 7.4H27.2295C29.9495 7.4 31.9335 8.04 33.1815 9.32C34.4295 10.568 35.0535 12.504 35.0535 15.128V17.192C35.0535 20.68 33.9015 22.888 31.5975 23.816V23.912C32.8775 24.296 33.7735 25.08 34.2855 26.264C34.8295 27.448 35.1015 29.032 35.1015 31.016V36.92C35.1015 37.88 35.1335 38.664 35.1975 39.272C35.2615 39.848 35.4215 40.424 35.6775 41H30.3015C30.1095 40.456 29.9815 39.944 29.9175 39.464C29.8535 38.984 29.8215 38.12 29.8215 36.872V30.728C29.8215 29.192 29.5655 28.12 29.0535 27.512C28.5735 26.904 27.7255 26.6 26.5095 26.6H24.6855V41H19.4055V7.4ZM26.6055 21.8C27.6615 21.8 28.4455 21.528 28.9575 20.984C29.5015 20.44 29.7735 19.528 29.7735 18.248V15.656C29.7735 14.44 29.5495 13.56 29.1015 13.016C28.6855 12.472 28.0135 12.2 27.0855 12.2H24.6855V21.8H26.6055ZM46.4449 41.48C43.8849 41.48 41.9329 40.76 40.5889 39.32C39.2449 37.848 38.5729 35.752 38.5729 33.032V7.4H43.8529V33.416C43.8529 34.568 44.0769 35.4 44.5249 35.912C45.0049 36.424 45.6769 36.68 46.5409 36.68C47.4049 36.68 48.0609 36.424 48.5089 35.912C48.9889 35.4 49.2289 34.568 49.2289 33.416V7.4H54.3169V33.032C54.3169 35.752 53.6449 37.848 52.3009 39.32C50.9569 40.76 49.0049 41.48 46.4449 41.48ZM40.3969 0.247998H45.1009V5.144H40.3969V0.247998ZM47.7889 0.247998H52.4929V5.144H47.7889V0.247998ZM58.0774 7.4H64.7014L69.8374 27.512H69.9334V7.4H74.6374V41H69.2134L62.8774 16.472H62.7814V41H58.0774V7.4Z" fill="black"/>
</svg>
