<svg width="154" height="181" viewBox="0 0 154 181" fill="none" xmlns="http://www.w3.org/2000/svg">
<path d="M9.192 19.384C7.672 19.384 6.376 19.128 5.304 18.616C4.248 18.104 3.392 17.424 2.736 16.576C2.08 15.712 1.6 14.76 1.296 13.72C0.992 12.68 0.84 11.64 0.84 10.6C0.84 9.592 1.008 8.576 1.344 7.552C1.696 6.512 2.216 5.56 2.904 4.696C3.608 3.832 4.488 3.136 5.544 2.608C6.6 2.08 7.84 1.816 9.264 1.816C10.72 1.816 11.976 2.08 13.032 2.608C14.088 3.136 14.952 3.84 15.624 4.72C16.296 5.584 16.792 6.528 17.112 7.552C17.448 8.576 17.616 9.592 17.616 10.6C17.616 11.592 17.44 12.6 17.088 13.624C16.752 14.648 16.232 15.6 15.528 16.48C14.84 17.344 13.968 18.048 12.912 18.592C11.856 19.12 10.616 19.384 9.192 19.384ZM9.456 17.632C10.288 17.632 10.984 17.432 11.544 17.032C12.104 16.616 12.552 16.08 12.888 15.424C13.224 14.768 13.464 14.056 13.608 13.288C13.752 12.504 13.824 11.744 13.824 11.008C13.824 9.536 13.648 8.24 13.296 7.12C12.944 6 12.408 5.12 11.688 4.48C10.984 3.84 10.072 3.536 8.952 3.568C8.136 3.584 7.448 3.808 6.888 4.24C6.328 4.656 5.88 5.2 5.544 5.872C5.208 6.528 4.968 7.248 4.824 8.032C4.68 8.816 4.608 9.576 4.608 10.312C4.608 11.064 4.688 11.864 4.848 12.712C5.024 13.56 5.296 14.36 5.664 15.112C6.032 15.864 6.528 16.472 7.152 16.936C7.776 17.4 8.544 17.632 9.456 17.632ZM24.3973 19.384C22.9573 19.384 21.9333 18.96 21.3253 18.112C20.7173 17.264 20.4133 15.92 20.4133 14.08V11.32C20.4133 11.032 20.4213 10.704 20.4373 10.336C20.4533 9.952 20.4693 9.584 20.4853 9.232C20.2293 9.248 19.9253 9.264 19.5733 9.28C19.2373 9.28 18.9813 9.288 18.8053 9.304V7.48H19.0453C20.0373 7.48 20.8213 7.4 21.3973 7.24C21.9733 7.08 22.3413 6.92 22.5013 6.76H23.8213V14.104C23.8213 15.144 23.9573 15.92 24.2293 16.432C24.5013 16.928 24.9333 17.176 25.5253 17.176C25.9413 17.176 26.3573 17.064 26.7733 16.84C27.2053 16.6 27.5573 16.328 27.8293 16.024V11.32C27.8293 11.032 27.8373 10.704 27.8533 10.336C27.8693 9.952 27.8933 9.584 27.9253 9.232C27.6693 9.248 27.3653 9.264 27.0133 9.28C26.6773 9.28 26.4213 9.288 26.2453 9.304V7.48H26.8213C27.5733 7.48 28.2373 7.4 28.8133 7.24C29.3893 7.064 29.7573 6.904 29.9173 6.76H31.2373V15.136C31.2373 15.36 31.2293 15.68 31.2133 16.096C31.1973 16.496 31.1733 16.88 31.1413 17.248C31.3973 17.216 31.6773 17.2 31.9813 17.2C32.3013 17.184 32.5413 17.176 32.7013 17.176V19H28.1413C28.1253 18.792 28.1013 18.584 28.0693 18.376C28.0533 18.168 28.0293 17.96 27.9973 17.752C27.5013 18.168 26.9653 18.544 26.3893 18.88C25.8293 19.216 25.1653 19.384 24.3973 19.384ZM34.2653 17.44C34.9213 17.44 35.3213 17.248 35.4653 16.864C35.6093 16.464 35.6813 15.944 35.6813 15.304V11.272C35.6813 10.984 35.6893 10.664 35.7053 10.312C35.7213 9.944 35.7453 9.584 35.7773 9.232C35.5213 9.248 35.2173 9.264 34.8652 9.28C34.5293 9.28 34.2733 9.288 34.0973 9.304V7.48H35.0573C35.6813 7.48 36.2493 7.4 36.7613 7.24C37.2893 7.08 37.6333 6.92 37.7933 6.76H38.9693C39.0013 6.92 39.0253 7.224 39.0413 7.672C39.0573 8.104 39.0653 8.488 39.0653 8.824C39.7053 8.024 40.3053 7.456 40.8653 7.12C41.4253 6.784 41.9933 6.616 42.5693 6.616C43.1293 6.616 43.6173 6.776 44.0333 7.096C44.4493 7.4 44.6573 7.904 44.6573 8.608C44.6573 8.848 44.6013 9.104 44.4893 9.376C44.3773 9.632 44.2013 9.848 43.9613 10.024C43.7213 10.2 43.3933 10.288 42.9773 10.288C42.6573 10.288 42.3293 10.192 41.9933 10C41.6573 9.808 41.4653 9.44 41.4173 8.896C41.0973 8.896 40.7773 9.032 40.4573 9.304C40.1373 9.56 39.8493 9.872 39.5933 10.24C39.3533 10.592 39.1853 10.92 39.0893 11.224V15.136C39.0893 15.36 39.0813 15.68 39.0653 16.096C39.0493 16.496 39.0253 16.88 38.9933 17.248C39.2493 17.216 39.5293 17.2 39.8333 17.2C40.1533 17.184 40.3933 17.176 40.5533 17.176V19H34.2653V17.44ZM52.3172 17.416C52.6852 17.4 52.9892 17.352 53.2292 17.272C53.4852 17.192 53.6772 17.008 53.8052 16.72C53.9492 16.432 54.0212 15.968 54.0212 15.328V6.136C54.0212 5.704 54.0292 5.288 54.0452 4.888C54.0772 4.488 54.1012 4.184 54.1172 3.976C53.8612 3.992 53.5412 4.008 53.1572 4.024C52.7732 4.024 52.4932 4.032 52.3172 4.048V2.2C53.4532 2.184 54.5892 2.176 55.7252 2.176C56.8612 2.176 57.9972 2.168 59.1332 2.152C60.5412 2.136 61.7652 2.32 62.8052 2.704C63.8612 3.088 64.6692 3.68 65.2292 4.48C65.8052 5.28 66.0772 6.32 66.0452 7.6C66.0292 8.448 65.7652 9.272 65.2532 10.072C64.7572 10.872 64.0052 11.536 62.9972 12.064C62.0052 12.592 60.7492 12.88 59.2292 12.928C58.5732 12.944 57.9972 12.944 57.5012 12.928V15.04C57.5012 15.488 57.4932 15.912 57.4772 16.312C57.4612 16.712 57.4372 17.016 57.4052 17.224C57.5812 17.208 57.8052 17.2 58.0772 17.2C58.3492 17.184 58.6132 17.176 58.8692 17.176C59.1412 17.16 59.3332 17.152 59.4452 17.152V19H52.3172V17.416ZM57.5012 11.128C57.8372 11.176 58.1972 11.2 58.5812 11.2C59.9092 11.2 60.8612 10.872 61.4372 10.216C62.0292 9.544 62.3252 8.6 62.3252 7.384C62.3252 6.584 62.2132 5.944 61.9892 5.464C61.7812 4.984 61.5092 4.632 61.1732 4.408C60.8372 4.168 60.4852 4.016 60.1172 3.952C59.7492 3.872 59.4132 3.832 59.1092 3.832C58.6132 3.832 58.2212 3.936 57.9332 4.144C57.6452 4.352 57.5012 4.88 57.5012 5.728V11.128ZM67.4293 17.44C68.0853 17.44 68.4853 17.248 68.6293 16.864C68.7733 16.464 68.8453 15.944 68.8453 15.304V11.272C68.8453 10.984 68.8533 10.664 68.8693 10.312C68.8853 9.944 68.9093 9.584 68.9413 9.232C68.6853 9.248 68.3813 9.264 68.0293 9.28C67.6933 9.28 67.4373 9.288 67.2613 9.304V7.48H68.2213C68.8453 7.48 69.4133 7.4 69.9253 7.24C70.4533 7.08 70.7973 6.92 70.9573 6.76H72.1333C72.1653 6.92 72.1893 7.224 72.2053 7.672C72.2213 8.104 72.2293 8.488 72.2293 8.824C72.8693 8.024 73.4693 7.456 74.0293 7.12C74.5893 6.784 75.1573 6.616 75.7333 6.616C76.2933 6.616 76.7813 6.776 77.1973 7.096C77.6133 7.4 77.8213 7.904 77.8213 8.608C77.8213 8.848 77.7653 9.104 77.6533 9.376C77.5413 9.632 77.3653 9.848 77.1253 10.024C76.8853 10.2 76.5573 10.288 76.1413 10.288C75.8213 10.288 75.4933 10.192 75.1573 10C74.8213 9.808 74.6293 9.44 74.5813 8.896C74.2613 8.896 73.9413 9.032 73.6213 9.304C73.3013 9.56 73.0133 9.872 72.7573 10.24C72.5173 10.592 72.3493 10.92 72.2533 11.224V15.136C72.2533 15.36 72.2453 15.68 72.2293 16.096C72.2133 16.496 72.1893 16.88 72.1573 17.248C72.4133 17.216 72.6933 17.2 72.9973 17.2C73.3173 17.184 73.5573 17.176 73.7173 17.176V19H67.4293V17.44ZM84.6531 19.384C83.5011 19.384 82.4611 19.136 81.5331 18.64C80.6051 18.144 79.8691 17.44 79.3251 16.528C78.7971 15.6 78.5331 14.512 78.5331 13.264C78.5331 11.936 78.8051 10.776 79.3491 9.784C79.9091 8.776 80.6451 8 81.5571 7.456C82.4851 6.896 83.4931 6.616 84.5811 6.616C85.7331 6.616 86.7651 6.864 87.6771 7.36C88.5891 7.856 89.3091 8.568 89.8371 9.496C90.3651 10.408 90.6291 11.504 90.6291 12.784C90.6291 14.128 90.3731 15.296 89.8611 16.288C89.3491 17.28 88.6451 18.048 87.7491 18.592C86.8531 19.12 85.8211 19.384 84.6531 19.384ZM84.7491 17.68C85.3891 17.664 85.8691 17.44 86.1891 17.008C86.5251 16.576 86.7571 16.032 86.8851 15.376C87.0131 14.72 87.0771 14.056 87.0771 13.384C87.0771 12.792 87.0291 12.192 86.9331 11.584C86.8531 10.976 86.7171 10.424 86.5251 9.928C86.3331 9.432 86.0691 9.032 85.7331 8.728C85.4131 8.424 85.0131 8.28 84.5331 8.296C83.9091 8.312 83.4131 8.536 83.0451 8.968C82.6931 9.4 82.4371 9.944 82.2771 10.6C82.1331 11.24 82.0611 11.912 82.0611 12.616C82.0611 13.432 82.1491 14.232 82.3251 15.016C82.5011 15.8 82.7811 16.448 83.1651 16.96C83.5651 17.456 84.0931 17.696 84.7491 17.68ZM96.9988 19.384C96.0388 19.384 95.1908 19.136 94.4548 18.64C93.7348 18.144 93.1668 17.44 92.7508 16.528C92.3508 15.616 92.1508 14.544 92.1508 13.312C92.1508 12.016 92.3988 10.864 92.8948 9.856C93.3908 8.848 94.0868 8.056 94.9828 7.48C95.8788 6.904 96.9188 6.616 98.1028 6.616C98.5348 6.616 98.9188 6.664 99.2548 6.76C99.6068 6.84 99.9348 6.936 100.239 7.048V5.464C100.239 5.24 100.247 4.92 100.263 4.504C100.279 4.088 100.303 3.704 100.335 3.352C100.079 3.368 99.7748 3.384 99.4228 3.4C99.0708 3.416 98.8068 3.424 98.6308 3.424V1.6C99.7508 1.6 100.607 1.52 101.199 1.36C101.791 1.2 102.167 1.04 102.327 0.879999H103.623V15.136C103.623 15.36 103.615 15.68 103.599 16.096C103.583 16.496 103.559 16.88 103.527 17.248C103.799 17.216 104.087 17.2 104.391 17.2C104.695 17.184 104.927 17.176 105.087 17.176V19H100.527C100.511 18.824 100.487 18.64 100.455 18.448C100.439 18.256 100.415 18.072 100.383 17.896C99.8548 18.44 99.3108 18.824 98.7508 19.048C98.1908 19.272 97.6068 19.384 96.9988 19.384ZM98.2468 17.2C98.6628 17.2 99.0468 17.096 99.3988 16.888C99.7508 16.664 100.031 16.384 100.239 16.048V8.848C100.079 8.72 99.8388 8.616 99.5188 8.536C99.1988 8.44 98.8708 8.392 98.5348 8.392C97.7988 8.408 97.2228 8.64 96.8068 9.088C96.3908 9.536 96.0948 10.104 95.9188 10.792C95.7588 11.48 95.6788 12.2 95.6788 12.952C95.6788 13.624 95.7588 14.288 95.9188 14.944C96.0948 15.6 96.3668 16.144 96.7348 16.576C97.1188 16.992 97.6228 17.2 98.2468 17.2ZM111.632 19.384C110.192 19.384 109.168 18.96 108.56 18.112C107.952 17.264 107.648 15.92 107.648 14.08V11.32C107.648 11.032 107.656 10.704 107.672 10.336C107.688 9.952 107.704 9.584 107.72 9.232C107.464 9.248 107.16 9.264 106.808 9.28C106.472 9.28 106.216 9.288 106.04 9.304V7.48H106.28C107.272 7.48 108.056 7.4 108.632 7.24C109.208 7.08 109.576 6.92 109.736 6.76H111.056V14.104C111.056 15.144 111.192 15.92 111.464 16.432C111.736 16.928 112.168 17.176 112.76 17.176C113.176 17.176 113.592 17.064 114.008 16.84C114.44 16.6 114.792 16.328 115.064 16.024V11.32C115.064 11.032 115.072 10.704 115.088 10.336C115.104 9.952 115.128 9.584 115.16 9.232C114.904 9.248 114.6 9.264 114.248 9.28C113.912 9.28 113.656 9.288 113.48 9.304V7.48H114.056C114.808 7.48 115.472 7.4 116.048 7.24C116.624 7.064 116.992 6.904 117.152 6.76H118.472V15.136C118.472 15.36 118.464 15.68 118.448 16.096C118.432 16.496 118.408 16.88 118.376 17.248C118.632 17.216 118.912 17.2 119.216 17.2C119.536 17.184 119.776 17.176 119.936 17.176V19H115.376C115.36 18.792 115.336 18.584 115.304 18.376C115.288 18.168 115.264 17.96 115.232 17.752C114.736 18.168 114.2 18.544 113.624 18.88C113.064 19.216 112.4 19.384 111.632 19.384ZM127.164 19.384C126.092 19.384 125.108 19.144 124.212 18.664C123.316 18.184 122.596 17.488 122.052 16.576C121.524 15.664 121.26 14.56 121.26 13.264C121.26 12.048 121.524 10.944 122.052 9.952C122.58 8.944 123.308 8.136 124.236 7.528C125.18 6.92 126.268 6.616 127.5 6.616C128.524 6.616 129.372 6.776 130.044 7.096C130.732 7.4 131.244 7.808 131.58 8.32C131.932 8.816 132.108 9.344 132.108 9.904C132.108 10.368 131.964 10.784 131.676 11.152C131.404 11.504 131.012 11.688 130.5 11.704C129.892 11.72 129.468 11.552 129.228 11.2C128.988 10.832 128.868 10.48 128.868 10.144C128.868 10 128.892 9.832 128.94 9.64C128.988 9.432 129.06 9.248 129.156 9.088C128.98 8.736 128.7 8.512 128.316 8.416C127.932 8.32 127.628 8.28 127.404 8.296C126.636 8.344 126.004 8.728 125.508 9.448C125.012 10.168 124.764 11.208 124.764 12.568C124.764 13.368 124.86 14.12 125.052 14.824C125.26 15.512 125.596 16.08 126.06 16.528C126.524 16.976 127.148 17.216 127.932 17.248C128.604 17.264 129.26 17.104 129.9 16.768C130.54 16.432 131.084 15.976 131.532 15.4L132.636 16.48C132.06 17.28 131.46 17.888 130.836 18.304C130.212 18.72 129.588 19 128.964 19.144C128.356 19.304 127.756 19.384 127.164 19.384ZM138.674 19.384C138.194 19.384 137.73 19.328 137.282 19.216C136.85 19.104 136.45 18.896 136.082 18.592C135.73 18.272 135.45 17.808 135.242 17.2C135.034 16.592 134.93 15.784 134.93 14.776L134.978 8.992H133.346V7C133.842 6.984 134.322 6.816 134.786 6.496C135.25 6.176 135.642 5.76 135.962 5.248C136.298 4.736 136.522 4.2 136.634 3.64H138.41L138.386 7H141.434V8.848L138.386 8.92L138.362 14.824C138.362 15.192 138.394 15.56 138.458 15.928C138.538 16.28 138.682 16.576 138.89 16.816C139.098 17.04 139.402 17.152 139.802 17.152C140.026 17.152 140.33 17.072 140.714 16.912C141.114 16.752 141.538 16.352 141.986 15.712L143.138 16.792C142.706 17.432 142.258 17.928 141.794 18.28C141.33 18.632 140.882 18.888 140.45 19.048C140.034 19.208 139.666 19.304 139.346 19.336C139.026 19.368 138.802 19.384 138.674 19.384ZM149.356 19.384C148.668 19.384 147.996 19.296 147.34 19.12C146.684 18.944 146.172 18.72 145.804 18.448L145.852 19.168H144.028L143.932 15.04H145.492C145.572 15.776 145.956 16.4 146.644 16.912C147.332 17.408 148.188 17.656 149.212 17.656C149.612 17.656 149.988 17.56 150.34 17.368C150.692 17.176 150.868 16.872 150.868 16.456C150.852 15.992 150.604 15.648 150.124 15.424C149.66 15.2 148.98 14.912 148.084 14.56C147.588 14.368 147.084 14.168 146.572 13.96C146.076 13.752 145.612 13.504 145.18 13.216C144.764 12.912 144.428 12.544 144.172 12.112C143.916 11.664 143.788 11.12 143.788 10.48C143.788 9.856 143.94 9.248 144.244 8.656C144.564 8.064 145.06 7.576 145.732 7.192C146.404 6.808 147.26 6.616 148.3 6.616C148.732 6.616 149.22 6.688 149.764 6.832C150.324 6.96 150.796 7.16 151.18 7.432V6.736H153.004V10.984H151.444C151.3 10.152 150.932 9.496 150.34 9.016C149.748 8.536 149.02 8.296 148.156 8.296C147.756 8.296 147.388 8.392 147.052 8.584C146.732 8.776 146.572 9.104 146.572 9.568C146.572 9.936 146.7 10.232 146.956 10.456C147.212 10.664 147.564 10.84 148.012 10.984C148.46 11.128 148.956 11.296 149.5 11.488C150.316 11.76 151.036 12.08 151.66 12.448C152.3 12.816 152.804 13.264 153.172 13.792C153.54 14.304 153.724 14.936 153.724 15.688C153.724 16.52 153.516 17.208 153.1 17.752C152.684 18.296 152.14 18.704 151.468 18.976C150.812 19.248 150.108 19.384 149.356 19.384ZM8.064 56.216C8.028 55.64 7.89 55.094 7.65 54.578C7.41 54.062 7.062 53.642 6.606 53.318C6.15 52.994 5.568 52.832 4.86 52.832C4.116 52.832 3.546 53.042 3.15 53.462C2.754 53.882 2.556 54.374 2.556 54.938C2.556 55.442 2.7 55.868 2.988 56.216C3.276 56.552 3.648 56.852 4.104 57.116C4.572 57.368 5.064 57.614 5.58 57.854C6.036 58.058 6.492 58.28 6.948 58.52C7.404 58.748 7.818 59.012 8.19 59.312C8.562 59.612 8.856 59.972 9.072 60.392C9.3 60.8 9.414 61.292 9.414 61.868C9.414 62.864 9.048 63.686 8.316 64.334C7.584 64.97 6.546 65.288 5.202 65.288C4.662 65.288 4.104 65.21 3.528 65.054C2.952 64.898 2.442 64.67 1.998 64.37L2.088 65.144H1.152L1.044 61.31H1.746C1.806 62.366 2.172 63.17 2.844 63.722C3.516 64.262 4.326 64.532 5.274 64.532C5.742 64.532 6.174 64.448 6.57 64.28C6.966 64.1 7.278 63.842 7.506 63.506C7.746 63.17 7.866 62.762 7.866 62.282C7.866 61.742 7.722 61.292 7.434 60.932C7.146 60.572 6.774 60.26 6.318 59.996C5.862 59.732 5.376 59.48 4.86 59.24C4.404 59.036 3.954 58.82 3.51 58.592C3.066 58.364 2.658 58.106 2.286 57.818C1.926 57.518 1.632 57.164 1.404 56.756C1.188 56.348 1.08 55.856 1.08 55.28C1.08 54.968 1.134 54.632 1.242 54.272C1.35 53.912 1.536 53.57 1.8 53.246C2.076 52.91 2.448 52.64 2.916 52.436C3.396 52.22 4.002 52.112 4.734 52.112C5.19 52.112 5.7 52.178 6.264 52.31C6.84 52.43 7.374 52.67 7.866 53.03L7.794 52.256H8.712V56.216H8.064ZM15.4689 65.288C14.6289 65.288 13.8669 65.096 13.1829 64.712C12.4989 64.316 11.9529 63.776 11.5449 63.092C11.1489 62.396 10.9509 61.604 10.9509 60.716C10.9509 59.768 11.1489 58.916 11.5449 58.16C11.9409 57.404 12.4809 56.81 13.1649 56.378C13.8489 55.934 14.6169 55.712 15.4689 55.712C16.3089 55.712 17.0709 55.916 17.7549 56.324C18.4389 56.72 18.9849 57.26 19.3929 57.944C19.8009 58.628 20.0049 59.408 20.0049 60.284C20.0049 61.208 19.8009 62.054 19.3929 62.822C18.9969 63.578 18.4569 64.178 17.7729 64.622C17.0889 65.066 16.3209 65.288 15.4689 65.288ZM15.6129 64.568C16.2489 64.568 16.7529 64.388 17.1249 64.028C17.4969 63.668 17.7609 63.2 17.9169 62.624C18.0849 62.048 18.1689 61.442 18.1689 60.806C18.1689 60.266 18.1149 59.738 18.0069 59.222C17.9109 58.694 17.7549 58.22 17.5389 57.8C17.3229 57.368 17.0409 57.026 16.6929 56.774C16.3569 56.522 15.9489 56.396 15.4689 56.396C14.8449 56.396 14.3349 56.576 13.9389 56.936C13.5429 57.296 13.2489 57.764 13.0569 58.34C12.8769 58.916 12.7869 59.534 12.7869 60.194C12.7869 60.938 12.8889 61.646 13.0929 62.318C13.2969 62.978 13.6089 63.518 14.0289 63.938C14.4489 64.358 14.9769 64.568 15.6129 64.568ZM22.5803 55.622C22.5803 54.29 22.8203 53.24 23.3003 52.472C23.7923 51.704 24.6323 51.32 25.8203 51.32C26.0843 51.32 26.3603 51.368 26.6483 51.464C26.9483 51.548 27.2063 51.692 27.4223 51.896C27.6383 52.088 27.7463 52.34 27.7463 52.652C27.7463 52.88 27.6803 53.072 27.5483 53.228C27.4283 53.384 27.2483 53.462 27.0083 53.462C26.7203 53.474 26.5163 53.39 26.3963 53.21C26.2883 53.018 26.2343 52.856 26.2343 52.724C26.2343 52.652 26.2403 52.58 26.2523 52.508C26.2643 52.436 26.2883 52.358 26.3243 52.274C26.2403 52.166 26.1203 52.088 25.9643 52.04C25.8203 51.992 25.6823 51.968 25.5503 51.968C25.1783 51.968 24.8903 52.076 24.6863 52.292C24.4823 52.508 24.3383 52.778 24.2543 53.102C24.1703 53.426 24.1283 53.762 24.1283 54.11V56H26.5583V56.702L24.1283 56.756L24.1463 63.092C24.1463 63.332 24.1403 63.548 24.1283 63.74C24.1283 63.92 24.1103 64.112 24.0743 64.316C24.2663 64.304 24.4523 64.298 24.6323 64.298C24.8243 64.286 25.0163 64.274 25.2083 64.262V65H21.5363V64.46C21.9083 64.46 22.1663 64.37 22.3103 64.19C22.4543 63.998 22.5383 63.74 22.5623 63.416C22.5863 63.08 22.5983 62.696 22.5983 62.264L22.5803 56.774L21.1043 56.81V56H22.5803V55.622ZM33.0003 65C32.9643 64.796 32.9403 64.616 32.9283 64.46C32.9163 64.304 32.8983 64.142 32.8743 63.974C32.4663 64.382 32.0223 64.706 31.5423 64.946C31.0743 65.174 30.5763 65.288 30.0483 65.288C29.1363 65.288 28.4583 65.084 28.0143 64.676C27.5703 64.256 27.3483 63.746 27.3483 63.146C27.3483 62.594 27.5163 62.12 27.8523 61.724C28.2003 61.316 28.6443 60.986 29.1843 60.734C29.7363 60.47 30.3303 60.278 30.9663 60.158C31.6143 60.026 32.2383 59.966 32.8383 59.978V58.862C32.8383 58.442 32.8023 58.046 32.7303 57.674C32.6583 57.302 32.5023 56.996 32.2623 56.756C32.0223 56.516 31.6383 56.39 31.1103 56.378C30.7623 56.366 30.4023 56.432 30.0303 56.576C29.6703 56.72 29.4063 56.966 29.2383 57.314C29.3343 57.41 29.3943 57.524 29.4183 57.656C29.4543 57.776 29.4723 57.89 29.4723 57.998C29.4723 58.142 29.4123 58.31 29.2923 58.502C29.1723 58.682 28.9623 58.766 28.6623 58.754C28.4103 58.754 28.2183 58.67 28.0863 58.502C27.9543 58.322 27.8883 58.112 27.8883 57.872C27.8883 57.464 28.0383 57.098 28.3383 56.774C28.6503 56.45 29.0763 56.192 29.6163 56C30.1563 55.808 30.7683 55.712 31.4523 55.712C32.4603 55.712 33.2043 55.982 33.6843 56.522C34.1643 57.05 34.3983 57.89 34.3863 59.042C34.3863 59.714 34.3803 60.392 34.3683 61.076C34.3683 61.748 34.3683 62.42 34.3683 63.092C34.3683 63.284 34.3623 63.476 34.3503 63.668C34.3383 63.86 34.3203 64.076 34.2963 64.316C34.5123 64.304 34.7223 64.292 34.9263 64.28C35.1423 64.268 35.3583 64.256 35.5743 64.244V65H33.0003ZM32.8383 60.59C32.4303 60.602 31.9983 60.656 31.5423 60.752C31.0983 60.836 30.6843 60.968 30.3003 61.148C29.9283 61.328 29.6223 61.568 29.3823 61.868C29.1543 62.156 29.0463 62.51 29.0583 62.93C29.0823 63.374 29.2263 63.71 29.4903 63.938C29.7663 64.154 30.0903 64.262 30.4623 64.262C30.9543 64.262 31.3803 64.172 31.7403 63.992C32.1123 63.8 32.4783 63.536 32.8383 63.2C32.8263 63.068 32.8203 62.924 32.8203 62.768C32.8203 62.612 32.8203 62.45 32.8203 62.282C32.8203 62.222 32.8203 62.03 32.8203 61.706C32.8323 61.382 32.8383 61.01 32.8383 60.59ZM10.944 79.414C10.824 78.286 10.428 77.41 9.756 76.786C9.096 76.162 8.244 75.85 7.2 75.85C6.348 75.85 5.574 76.09 4.878 76.57C4.182 77.038 3.624 77.704 3.204 78.568C2.796 79.432 2.592 80.452 2.592 81.628C2.592 82.756 2.808 83.752 3.24 84.616C3.672 85.48 4.254 86.152 4.986 86.632C5.718 87.112 6.528 87.352 7.416 87.352C8.196 87.352 8.964 87.178 9.72 86.83C10.476 86.47 11.094 85.954 11.574 85.282L12.042 85.66C11.526 86.368 10.968 86.914 10.368 87.298C9.768 87.682 9.168 87.94 8.568 88.072C7.98 88.216 7.44 88.288 6.948 88.288C6.048 88.288 5.22 88.126 4.464 87.802C3.72 87.478 3.072 87.028 2.52 86.452C1.98 85.864 1.56 85.186 1.26 84.418C0.972 83.638 0.828 82.798 0.828 81.898C0.828 81.046 0.954 80.218 1.206 79.414C1.47 78.61 1.86 77.884 2.376 77.236C2.892 76.588 3.54 76.072 4.32 75.688C5.112 75.304 6.03 75.112 7.074 75.112C8.394 75.112 9.606 75.478 10.71 76.21L10.62 75.238H11.592V79.414H10.944ZM17.8419 88.288C17.0019 88.288 16.2399 88.096 15.5559 87.712C14.8719 87.316 14.3259 86.776 13.9179 86.092C13.5219 85.396 13.3239 84.604 13.3239 83.716C13.3239 82.768 13.5219 81.916 13.9179 81.16C14.3139 80.404 14.8539 79.81 15.5379 79.378C16.2219 78.934 16.9899 78.712 17.8419 78.712C18.6819 78.712 19.4439 78.916 20.1279 79.324C20.8119 79.72 21.3579 80.26 21.7659 80.944C22.1739 81.628 22.3779 82.408 22.3779 83.284C22.3779 84.208 22.1739 85.054 21.7659 85.822C21.3699 86.578 20.8299 87.178 20.1459 87.622C19.4619 88.066 18.6939 88.288 17.8419 88.288ZM17.9859 87.568C18.6219 87.568 19.1259 87.388 19.4979 87.028C19.8699 86.668 20.1339 86.2 20.2899 85.624C20.4579 85.048 20.5419 84.442 20.5419 83.806C20.5419 83.266 20.4879 82.738 20.3799 82.222C20.2839 81.694 20.1279 81.22 19.9119 80.8C19.6959 80.368 19.4139 80.026 19.0659 79.774C18.7299 79.522 18.3219 79.396 17.8419 79.396C17.2179 79.396 16.7079 79.576 16.3119 79.936C15.9159 80.296 15.6219 80.764 15.4299 81.34C15.2499 81.916 15.1599 82.534 15.1599 83.194C15.1599 83.938 15.2619 84.646 15.4659 85.318C15.6699 85.978 15.9819 86.518 16.4019 86.938C16.8219 87.358 17.3499 87.568 17.9859 87.568ZM24.9533 78.622C24.9533 77.29 25.1933 76.24 25.6733 75.472C26.1653 74.704 27.0053 74.32 28.1933 74.32C28.4573 74.32 28.7333 74.368 29.0213 74.464C29.3213 74.548 29.5793 74.692 29.7953 74.896C30.0113 75.088 30.1193 75.34 30.1193 75.652C30.1193 75.88 30.0533 76.072 29.9213 76.228C29.8013 76.384 29.6213 76.462 29.3813 76.462C29.0933 76.474 28.8893 76.39 28.7693 76.21C28.6613 76.018 28.6073 75.856 28.6073 75.724C28.6073 75.652 28.6133 75.58 28.6253 75.508C28.6373 75.436 28.6613 75.358 28.6973 75.274C28.6133 75.166 28.4933 75.088 28.3373 75.04C28.1933 74.992 28.0553 74.968 27.9233 74.968C27.5513 74.968 27.2633 75.076 27.0593 75.292C26.8553 75.508 26.7113 75.778 26.6273 76.102C26.5433 76.426 26.5013 76.762 26.5013 77.11V79H28.9313V79.702L26.5013 79.756L26.5193 86.092C26.5193 86.332 26.5133 86.548 26.5013 86.74C26.5013 86.92 26.4833 87.112 26.4473 87.316C26.6393 87.304 26.8253 87.298 27.0053 87.298C27.1973 87.286 27.3893 87.274 27.5813 87.262V88H23.9093V87.46C24.2813 87.46 24.5393 87.37 24.6833 87.19C24.8273 86.998 24.9113 86.74 24.9353 86.416C24.9593 86.08 24.9713 85.696 24.9713 85.264L24.9533 79.774L23.4773 79.81V79H24.9533V78.622ZM31.2112 78.622C31.2112 77.29 31.4512 76.24 31.9312 75.472C32.4232 74.704 33.2632 74.32 34.4512 74.32C34.7152 74.32 34.9912 74.368 35.2792 74.464C35.5792 74.548 35.8372 74.692 36.0532 74.896C36.2692 75.088 36.3772 75.34 36.3772 75.652C36.3772 75.88 36.3112 76.072 36.1792 76.228C36.0592 76.384 35.8792 76.462 35.6392 76.462C35.3512 76.474 35.1472 76.39 35.0272 76.21C34.9192 76.018 34.8652 75.856 34.8652 75.724C34.8652 75.652 34.8712 75.58 34.8832 75.508C34.8952 75.436 34.9192 75.358 34.9552 75.274C34.8712 75.166 34.7512 75.088 34.5952 75.04C34.4512 74.992 34.3132 74.968 34.1812 74.968C33.8092 74.968 33.5212 75.076 33.3172 75.292C33.1132 75.508 32.9692 75.778 32.8852 76.102C32.8012 76.426 32.7592 76.762 32.7592 77.11V79H35.1892V79.702L32.7592 79.756L32.7772 86.092C32.7772 86.332 32.7712 86.548 32.7592 86.74C32.7592 86.92 32.7412 87.112 32.7052 87.316C32.8972 87.304 33.0832 87.298 33.2632 87.298C33.4552 87.286 33.6472 87.274 33.8392 87.262V88H30.1672V87.46C30.5392 87.46 30.7972 87.37 30.9412 87.19C31.0852 86.998 31.1692 86.74 31.1932 86.416C31.2172 86.08 31.2292 85.696 31.2292 85.264L31.2112 79.774L29.7352 79.81V79H31.2112V78.622ZM40.4273 88.288C39.5993 88.288 38.8493 88.096 38.1773 87.712C37.5173 87.316 36.9953 86.764 36.6113 86.056C36.2273 85.336 36.0353 84.49 36.0353 83.518C36.0353 82.678 36.2213 81.892 36.5933 81.16C36.9773 80.428 37.5113 79.84 38.1953 79.396C38.8793 78.94 39.6713 78.712 40.5713 78.712C41.2433 78.712 41.8553 78.856 42.4073 79.144C42.9593 79.432 43.3973 79.87 43.7213 80.458C44.0573 81.046 44.2253 81.79 44.2253 82.69L37.8893 82.798C37.8773 84.178 38.1053 85.288 38.5733 86.128C39.0413 86.956 39.8033 87.37 40.8593 87.37C41.2313 87.37 41.6093 87.304 41.9933 87.172C42.3893 87.04 42.7553 86.86 43.0913 86.632C43.4273 86.404 43.6973 86.152 43.9013 85.876L44.3333 86.236C44.0093 86.74 43.6193 87.142 43.1633 87.442C42.7073 87.742 42.2393 87.958 41.7593 88.09C41.2793 88.222 40.8353 88.288 40.4273 88.288ZM37.9433 82.042H42.5333C42.5333 81.61 42.4673 81.196 42.3353 80.8C42.2153 80.392 42.0113 80.062 41.7233 79.81C41.4353 79.546 41.0573 79.414 40.5893 79.414C39.8933 79.414 39.3113 79.624 38.8433 80.044C38.3873 80.452 38.0873 81.118 37.9433 82.042ZM50.0953 88.288C49.2673 88.288 48.5173 88.096 47.8453 87.712C47.1853 87.316 46.6633 86.764 46.2793 86.056C45.8953 85.336 45.7033 84.49 45.7033 83.518C45.7033 82.678 45.8893 81.892 46.2613 81.16C46.6453 80.428 47.1793 79.84 47.8633 79.396C48.5473 78.94 49.3393 78.712 50.2393 78.712C50.9113 78.712 51.5233 78.856 52.0753 79.144C52.6273 79.432 53.0653 79.87 53.3893 80.458C53.7253 81.046 53.8933 81.79 53.8933 82.69L47.5573 82.798C47.5453 84.178 47.7733 85.288 48.2413 86.128C48.7093 86.956 49.4713 87.37 50.5273 87.37C50.8993 87.37 51.2773 87.304 51.6613 87.172C52.0573 87.04 52.4233 86.86 52.7593 86.632C53.0953 86.404 53.3653 86.152 53.5693 85.876L54.0013 86.236C53.6773 86.74 53.2873 87.142 52.8313 87.442C52.3753 87.742 51.9073 87.958 51.4273 88.09C50.9473 88.222 50.5033 88.288 50.0953 88.288ZM47.6113 82.042H52.2013C52.2013 81.61 52.1353 81.196 52.0033 80.8C51.8833 80.392 51.6793 80.062 51.3913 79.81C51.1033 79.546 50.7253 79.414 50.2573 79.414C49.5613 79.414 48.9793 79.624 48.5113 80.044C48.0553 80.452 47.7553 81.118 47.6113 82.042ZM69.8536 79.198C69.8416 78.49 69.7696 77.902 69.6376 77.434C69.5056 76.966 69.2716 76.618 68.9356 76.39C68.6116 76.15 68.1376 76.036 67.5136 76.048H65.9836L65.9656 85.858C65.9656 86.494 65.9476 86.968 65.9116 87.28C66.1636 87.268 66.4096 87.256 66.6496 87.244C66.9016 87.232 67.1536 87.22 67.4056 87.208V88H63.1756V87.406C63.6316 87.382 63.9376 87.274 64.0936 87.082C64.2616 86.89 64.3516 86.632 64.3636 86.308C64.3876 85.972 64.3996 85.6 64.3996 85.192L64.4176 76.066L62.5636 76.084C61.8076 76.084 61.2736 76.336 60.9616 76.84C60.6496 77.344 60.4936 78.13 60.4936 79.198H59.8276L59.9356 75.4H70.4296L70.5376 79.198H69.8536ZM76.7699 88C76.7339 87.796 76.7099 87.616 76.6979 87.46C76.6859 87.304 76.6679 87.142 76.6439 86.974C76.2359 87.382 75.7919 87.706 75.3119 87.946C74.8439 88.174 74.3459 88.288 73.8179 88.288C72.9059 88.288 72.2279 88.084 71.7839 87.676C71.3399 87.256 71.1179 86.746 71.1179 86.146C71.1179 85.594 71.2859 85.12 71.6219 84.724C71.9699 84.316 72.4139 83.986 72.9539 83.734C73.5059 83.47 74.0999 83.278 74.7359 83.158C75.3839 83.026 76.0079 82.966 76.6079 82.978V81.862C76.6079 81.442 76.5719 81.046 76.4999 80.674C76.4279 80.302 76.2719 79.996 76.0319 79.756C75.7919 79.516 75.4079 79.39 74.8799 79.378C74.5319 79.366 74.1719 79.432 73.7999 79.576C73.4399 79.72 73.1759 79.966 73.0079 80.314C73.1039 80.41 73.1639 80.524 73.1879 80.656C73.2239 80.776 73.2419 80.89 73.2419 80.998C73.2419 81.142 73.1819 81.31 73.0619 81.502C72.9419 81.682 72.7319 81.766 72.4319 81.754C72.1799 81.754 71.9879 81.67 71.8559 81.502C71.7239 81.322 71.6579 81.112 71.6579 80.872C71.6579 80.464 71.8079 80.098 72.1079 79.774C72.4199 79.45 72.8459 79.192 73.3859 79C73.9259 78.808 74.5379 78.712 75.2219 78.712C76.2299 78.712 76.9739 78.982 77.4539 79.522C77.9339 80.05 78.1679 80.89 78.1559 82.042C78.1559 82.714 78.1499 83.392 78.1379 84.076C78.1379 84.748 78.1379 85.42 78.1379 86.092C78.1379 86.284 78.1319 86.476 78.1199 86.668C78.1079 86.86 78.0899 87.076 78.0659 87.316C78.2819 87.304 78.4919 87.292 78.6959 87.28C78.9119 87.268 79.1279 87.256 79.3439 87.244V88H76.7699ZM76.6079 83.59C76.1999 83.602 75.7679 83.656 75.3119 83.752C74.8679 83.836 74.4539 83.968 74.0699 84.148C73.6979 84.328 73.3919 84.568 73.1519 84.868C72.9239 85.156 72.8159 85.51 72.8279 85.93C72.8519 86.374 72.9959 86.71 73.2599 86.938C73.5359 87.154 73.8599 87.262 74.2319 87.262C74.7239 87.262 75.1499 87.172 75.5099 86.992C75.8819 86.8 76.2479 86.536 76.6079 86.2C76.5959 86.068 76.5899 85.924 76.5899 85.768C76.5899 85.612 76.5899 85.45 76.5899 85.282C76.5899 85.222 76.5899 85.03 76.5899 84.706C76.6019 84.382 76.6079 84.01 76.6079 83.59ZM81.1551 76.75C81.1551 76.558 81.1551 76.378 81.1551 76.21C81.1671 76.03 81.1851 75.82 81.2091 75.58C80.9931 75.592 80.7771 75.604 80.5611 75.616C80.3571 75.628 80.1471 75.64 79.9311 75.652V74.896C80.4591 74.896 80.8671 74.872 81.1551 74.824C81.4551 74.776 81.6771 74.716 81.8211 74.644C81.9771 74.572 82.0971 74.494 82.1811 74.41H82.7031V79.774C83.0391 79.438 83.4351 79.18 83.8911 79C84.3591 78.808 84.8691 78.712 85.4211 78.712C86.1891 78.712 86.8791 78.898 87.4911 79.27C88.1151 79.642 88.6071 80.17 88.9671 80.854C89.3271 81.538 89.5071 82.348 89.5071 83.284C89.5071 84.304 89.2851 85.192 88.8411 85.948C88.3971 86.692 87.8211 87.268 87.1131 87.676C86.4051 88.084 85.6431 88.288 84.8271 88.288C84.4191 88.288 83.9691 88.21 83.4771 88.054C82.9971 87.91 82.5651 87.622 82.1811 87.19L81.7491 88H81.1191L81.1551 76.75ZM82.7031 85.174C82.7031 85.81 82.8051 86.302 83.0091 86.65C83.2131 86.986 83.4771 87.22 83.8011 87.352C84.1251 87.484 84.4671 87.55 84.8271 87.55C85.6911 87.55 86.3751 87.196 86.8791 86.488C87.3951 85.78 87.6531 84.862 87.6531 83.734C87.6531 82.918 87.5511 82.204 87.3471 81.592C87.1431 80.968 86.8371 80.482 86.4291 80.134C86.0211 79.774 85.5051 79.594 84.8811 79.594C84.4851 79.594 84.0891 79.69 83.6931 79.882C83.3091 80.062 82.9791 80.308 82.7031 80.62V85.174ZM90.8757 87.46C91.2477 87.46 91.5057 87.37 91.6497 87.19C91.7937 86.998 91.8777 86.74 91.9017 86.416C91.9257 86.08 91.9377 85.696 91.9377 85.264V76.75C91.9377 76.558 91.9377 76.378 91.9377 76.21C91.9497 76.03 91.9677 75.82 91.9917 75.58C91.7757 75.592 91.5597 75.604 91.3437 75.616C91.1397 75.628 90.9297 75.64 90.7137 75.652V74.896C91.2417 74.896 91.6497 74.872 91.9377 74.824C92.2377 74.776 92.4597 74.716 92.6037 74.644C92.7597 74.572 92.8797 74.494 92.9637 74.41H93.4857L93.5037 86.092C93.5037 86.332 93.4977 86.548 93.4857 86.74C93.4737 86.92 93.4497 87.112 93.4137 87.316C93.6057 87.304 93.7917 87.298 93.9717 87.298C94.1637 87.286 94.3557 87.274 94.5477 87.262V88H90.8757V87.46ZM100.316 88.288C99.488 88.288 98.738 88.096 98.066 87.712C97.406 87.316 96.884 86.764 96.5 86.056C96.116 85.336 95.924 84.49 95.924 83.518C95.924 82.678 96.11 81.892 96.482 81.16C96.866 80.428 97.4 79.84 98.084 79.396C98.768 78.94 99.56 78.712 100.46 78.712C101.132 78.712 101.744 78.856 102.296 79.144C102.848 79.432 103.286 79.87 103.61 80.458C103.946 81.046 104.114 81.79 104.114 82.69L97.778 82.798C97.766 84.178 97.994 85.288 98.462 86.128C98.93 86.956 99.692 87.37 100.748 87.37C101.12 87.37 101.498 87.304 101.882 87.172C102.278 87.04 102.644 86.86 102.98 86.632C103.316 86.404 103.586 86.152 103.79 85.876L104.222 86.236C103.898 86.74 103.508 87.142 103.052 87.442C102.596 87.742 102.128 87.958 101.648 88.09C101.168 88.222 100.724 88.288 100.316 88.288ZM97.832 82.042H102.422C102.422 81.61 102.356 81.196 102.224 80.8C102.104 80.392 101.9 80.062 101.612 79.81C101.324 79.546 100.946 79.414 100.478 79.414C99.782 79.414 99.2 79.624 98.732 80.044C98.276 80.452 97.976 81.118 97.832 82.042ZM0.99 111V110.406C1.446 110.394 1.758 110.292 1.926 110.1C2.094 109.896 2.184 109.626 2.196 109.29C2.22 108.942 2.232 108.546 2.232 108.102V100.542C2.232 99.894 2.25 99.42 2.286 99.12C2.07 99.132 1.854 99.144 1.638 99.156C1.422 99.168 1.206 99.18 0.99 99.192V98.4C1.65 98.388 2.31 98.382 2.97 98.382C3.642 98.37 4.338 98.364 5.058 98.364C6.45 98.364 7.536 98.61 8.316 99.102C9.108 99.594 9.492 100.374 9.468 101.442C9.468 101.826 9.354 102.21 9.126 102.594C8.91 102.978 8.58 103.32 8.136 103.62C7.704 103.908 7.158 104.112 6.498 104.232V104.268C7.818 104.268 8.814 104.574 9.486 105.186C10.158 105.786 10.494 106.548 10.494 107.472C10.494 108.204 10.308 108.834 9.936 109.362C9.564 109.89 9.06 110.298 8.424 110.586C7.788 110.862 7.062 111 6.246 111H0.99ZM3.798 104.106L5.112 104.07C5.796 104.058 6.336 103.92 6.732 103.656C7.128 103.38 7.41 103.038 7.578 102.63C7.758 102.222 7.842 101.796 7.83 101.352C7.818 100.704 7.668 100.212 7.38 99.876C7.104 99.54 6.762 99.312 6.354 99.192C5.946 99.072 5.544 99.012 5.148 99.012C4.56 99.012 4.188 99.138 4.032 99.39C3.876 99.642 3.798 100.098 3.798 100.758V104.106ZM3.744 110.28C3.936 110.292 4.164 110.304 4.428 110.316C4.704 110.316 4.956 110.316 5.184 110.316C5.424 110.316 5.58 110.316 5.652 110.316C6.576 110.316 7.32 110.088 7.884 109.632C8.46 109.164 8.748 108.48 8.748 107.58C8.748 106.848 8.604 106.278 8.316 105.87C8.028 105.462 7.65 105.174 7.182 105.006C6.714 104.838 6.204 104.754 5.652 104.754C5.292 104.754 4.962 104.76 4.662 104.772C4.374 104.772 4.086 104.784 3.798 104.808V108.876C3.798 109.5 3.78 109.968 3.744 110.28ZM16.3453 111.288C15.5173 111.288 14.7673 111.096 14.0953 110.712C13.4353 110.316 12.9133 109.764 12.5293 109.056C12.1453 108.336 11.9533 107.49 11.9533 106.518C11.9533 105.678 12.1393 104.892 12.5113 104.16C12.8953 103.428 13.4293 102.84 14.1133 102.396C14.7973 101.94 15.5893 101.712 16.4893 101.712C17.1613 101.712 17.7733 101.856 18.3253 102.144C18.8773 102.432 19.3153 102.87 19.6393 103.458C19.9753 104.046 20.1433 104.79 20.1433 105.69L13.8073 105.798C13.7953 107.178 14.0233 108.288 14.4913 109.128C14.9593 109.956 15.7213 110.37 16.7773 110.37C17.1493 110.37 17.5273 110.304 17.9113 110.172C18.3073 110.04 18.6733 109.86 19.0093 109.632C19.3453 109.404 19.6153 109.152 19.8193 108.876L20.2513 109.236C19.9273 109.74 19.5373 110.142 19.0813 110.442C18.6253 110.742 18.1573 110.958 17.6773 111.09C17.1973 111.222 16.7533 111.288 16.3453 111.288ZM13.8613 105.042H18.4513C18.4513 104.61 18.3853 104.196 18.2533 103.8C18.1333 103.392 17.9293 103.062 17.6413 102.81C17.3533 102.546 16.9753 102.414 16.5073 102.414C15.8113 102.414 15.2293 102.624 14.7613 103.044C14.3053 103.452 14.0053 104.118 13.8613 105.042ZM25.5092 111.288C24.7772 111.288 24.1172 111.108 23.5292 110.748C22.9412 110.376 22.4732 109.848 22.1252 109.164C21.7892 108.48 21.6212 107.676 21.6212 106.752C21.6212 105.768 21.8192 104.898 22.2152 104.142C22.6112 103.386 23.1572 102.792 23.8532 102.36C24.5612 101.928 25.3592 101.712 26.2472 101.712C26.6432 101.712 27.0332 101.766 27.4172 101.874C27.8132 101.97 28.1252 102.084 28.3532 102.216V99.75C28.3532 99.558 28.3532 99.378 28.3532 99.21C28.3652 99.03 28.3832 98.82 28.4072 98.58C28.1912 98.592 27.9752 98.604 27.7592 98.616C27.5552 98.628 27.3452 98.64 27.1292 98.652V97.896C27.6572 97.896 28.0652 97.872 28.3532 97.824C28.6412 97.776 28.8572 97.716 29.0012 97.644C29.1572 97.572 29.2772 97.494 29.3612 97.41H29.8832V109.092C29.8832 109.284 29.8772 109.476 29.8652 109.668C29.8532 109.86 29.8352 110.076 29.8112 110.316C30.0272 110.304 30.2372 110.292 30.4412 110.28C30.6572 110.268 30.8732 110.256 31.0892 110.244V111H28.5152C28.4552 110.676 28.4132 110.364 28.3892 110.064C28.0532 110.436 27.6392 110.736 27.1472 110.964C26.6552 111.18 26.1092 111.288 25.5092 111.288ZM26.1572 110.406C26.5532 110.406 26.9492 110.292 27.3452 110.064C27.7532 109.836 28.0892 109.554 28.3532 109.218C28.3412 109.074 28.3352 108.924 28.3352 108.768C28.3352 108.6 28.3352 108.42 28.3352 108.228L28.3532 103.044C28.0652 102.828 27.7472 102.672 27.3992 102.576C27.0632 102.468 26.7152 102.414 26.3552 102.414C25.7552 102.414 25.2332 102.588 24.7892 102.936C24.3452 103.284 24.0092 103.77 23.7812 104.394C23.5532 105.018 23.4512 105.75 23.4752 106.59C23.4992 107.322 23.6132 107.976 23.8172 108.552C24.0332 109.128 24.3332 109.584 24.7172 109.92C25.1132 110.244 25.5932 110.406 26.1572 110.406ZM7.236 134.288C6.096 134.288 5.118 134.096 4.302 133.712C3.486 133.328 2.82 132.818 2.304 132.182C1.8 131.534 1.428 130.82 1.188 130.04C0.948 129.26 0.828 128.48 0.828 127.7C0.828 126.944 0.954 126.182 1.206 125.414C1.458 124.634 1.842 123.92 2.358 123.272C2.886 122.624 3.54 122.102 4.32 121.706C5.112 121.31 6.036 121.112 7.092 121.112C8.196 121.112 9.15 121.31 9.954 121.706C10.758 122.102 11.418 122.63 11.934 123.29C12.462 123.938 12.852 124.646 13.104 125.414C13.368 126.182 13.5 126.944 13.5 127.7C13.5 128.444 13.374 129.206 13.122 129.986C12.87 130.754 12.48 131.468 11.952 132.128C11.436 132.776 10.788 133.298 10.008 133.694C9.228 134.09 8.304 134.288 7.236 134.288ZM7.272 133.55C8.016 133.55 8.664 133.394 9.216 133.082C9.768 132.758 10.224 132.332 10.584 131.804C10.956 131.264 11.232 130.67 11.412 130.022C11.604 129.362 11.7 128.702 11.7 128.042C11.7 127.298 11.598 126.56 11.394 125.828C11.19 125.096 10.89 124.43 10.494 123.83C10.098 123.23 9.606 122.75 9.018 122.39C8.442 122.018 7.782 121.832 7.038 121.832C6.294 121.832 5.64 121.994 5.076 122.318C4.524 122.642 4.062 123.074 3.69 123.614C3.33 124.142 3.054 124.736 2.862 125.396C2.682 126.044 2.592 126.704 2.592 127.376C2.592 128.036 2.682 128.726 2.862 129.446C3.054 130.166 3.342 130.838 3.726 131.462C4.11 132.086 4.596 132.59 5.184 132.974C5.772 133.358 6.468 133.55 7.272 133.55ZM18.467 134.288C18.191 134.288 17.909 134.246 17.621 134.162C17.333 134.09 17.063 133.94 16.811 133.712C16.571 133.484 16.379 133.154 16.235 132.722C16.091 132.278 16.019 131.696 16.019 130.976L16.055 125.756L14.669 125.774V125C14.981 124.988 15.299 124.874 15.623 124.658C15.947 124.43 16.235 124.124 16.487 123.74C16.751 123.356 16.931 122.936 17.027 122.48H17.639V125H20.663V125.702L17.639 125.738L17.603 130.742C17.603 131.558 17.705 132.182 17.909 132.614C18.125 133.046 18.479 133.262 18.971 133.262C19.307 133.262 19.619 133.166 19.907 132.974C20.207 132.782 20.471 132.518 20.699 132.182L21.185 132.578C20.837 133.106 20.489 133.49 20.141 133.73C19.805 133.97 19.493 134.12 19.205 134.18C18.917 134.252 18.671 134.288 18.467 134.288ZM25.6037 134.288C25.3277 134.288 25.0457 134.246 24.7577 134.162C24.4697 134.09 24.1997 133.94 23.9477 133.712C23.7077 133.484 23.5157 133.154 23.3717 132.722C23.2277 132.278 23.1557 131.696 23.1557 130.976L23.1917 125.756L21.8057 125.774V125C22.1177 124.988 22.4357 124.874 22.7597 124.658C23.0837 124.43 23.3717 124.124 23.6237 123.74C23.8877 123.356 24.0677 122.936 24.1637 122.48H24.7757V125H27.7997V125.702L24.7757 125.738L24.7397 130.742C24.7397 131.558 24.8417 132.182 25.0457 132.614C25.2617 133.046 25.6157 133.262 26.1077 133.262C26.4437 133.262 26.7557 133.166 27.0437 132.974C27.3437 132.782 27.6077 132.518 27.8357 132.182L28.3217 132.578C27.9737 133.106 27.6257 133.49 27.2777 133.73C26.9417 133.97 26.6297 134.12 26.3417 134.18C26.0537 134.252 25.8077 134.288 25.6037 134.288ZM33.6447 134.288C32.8047 134.288 32.0427 134.096 31.3587 133.712C30.6747 133.316 30.1287 132.776 29.7207 132.092C29.3247 131.396 29.1267 130.604 29.1267 129.716C29.1267 128.768 29.3247 127.916 29.7207 127.16C30.1167 126.404 30.6567 125.81 31.3407 125.378C32.0247 124.934 32.7927 124.712 33.6447 124.712C34.4847 124.712 35.2467 124.916 35.9307 125.324C36.6147 125.72 37.1607 126.26 37.5687 126.944C37.9767 127.628 38.1807 128.408 38.1807 129.284C38.1807 130.208 37.9767 131.054 37.5687 131.822C37.1727 132.578 36.6327 133.178 35.9487 133.622C35.2647 134.066 34.4967 134.288 33.6447 134.288ZM33.7887 133.568C34.4247 133.568 34.9287 133.388 35.3007 133.028C35.6727 132.668 35.9367 132.2 36.0927 131.624C36.2607 131.048 36.3447 130.442 36.3447 129.806C36.3447 129.266 36.2907 128.738 36.1827 128.222C36.0867 127.694 35.9307 127.22 35.7147 126.8C35.4987 126.368 35.2167 126.026 34.8687 125.774C34.5327 125.522 34.1247 125.396 33.6447 125.396C33.0207 125.396 32.5107 125.576 32.1147 125.936C31.7187 126.296 31.4247 126.764 31.2327 127.34C31.0527 127.916 30.9627 128.534 30.9627 129.194C30.9627 129.938 31.0647 130.646 31.2687 131.318C31.4727 131.978 31.7847 132.518 32.2047 132.938C32.6247 133.358 33.1527 133.568 33.7887 133.568ZM39.71 134V133.46C40.082 133.46 40.34 133.37 40.484 133.19C40.628 132.998 40.712 132.74 40.736 132.416C40.76 132.08 40.772 131.696 40.772 131.264V127.16C40.772 126.968 40.772 126.776 40.772 126.584C40.784 126.392 40.808 126.194 40.844 125.99C40.628 126.002 40.412 126.014 40.196 126.026C39.992 126.038 39.782 126.05 39.566 126.062V125.306C40.094 125.306 40.49 125.282 40.754 125.234C41.03 125.186 41.234 125.126 41.366 125.054C41.498 124.982 41.606 124.904 41.69 124.82H42.212C42.236 124.94 42.248 125.078 42.248 125.234C42.26 125.39 42.272 125.57 42.284 125.774C42.644 125.462 43.058 125.21 43.526 125.018C43.994 124.814 44.462 124.712 44.93 124.712C45.53 124.712 46.034 124.82 46.442 125.036C46.85 125.252 47.168 125.546 47.396 125.918C47.804 125.582 48.272 125.3 48.8 125.072C49.34 124.832 49.868 124.712 50.384 124.712C51.428 124.712 52.196 125.03 52.688 125.666C53.18 126.29 53.414 127.316 53.39 128.744L53.372 132.092C53.372 132.332 53.366 132.548 53.354 132.74C53.354 132.92 53.336 133.112 53.3 133.316C53.492 133.304 53.678 133.298 53.858 133.298C54.05 133.286 54.242 133.274 54.434 133.262V134H50.762V133.46C51.134 133.46 51.392 133.37 51.536 133.19C51.68 132.998 51.764 132.74 51.788 132.416C51.812 132.08 51.824 131.696 51.824 131.264V128.744C51.824 127.712 51.656 126.938 51.32 126.422C50.996 125.906 50.48 125.654 49.772 125.666C49.4 125.666 49.028 125.75 48.656 125.918C48.284 126.086 47.96 126.296 47.684 126.548C47.744 126.74 47.786 126.95 47.81 127.178C47.846 127.394 47.864 127.622 47.864 127.862C47.852 128.558 47.846 129.26 47.846 129.968C47.846 130.676 47.84 131.384 47.828 132.092C47.828 132.332 47.822 132.548 47.81 132.74C47.81 132.92 47.792 133.112 47.756 133.316C47.948 133.304 48.134 133.298 48.314 133.298C48.506 133.286 48.698 133.274 48.89 133.262V134H45.218V133.46C45.59 133.46 45.842 133.37 45.974 133.19C46.118 132.998 46.202 132.74 46.226 132.416C46.262 132.08 46.28 131.696 46.28 131.264L46.298 128.744C46.31 127.712 46.16 126.932 45.848 126.404C45.536 125.876 45.026 125.618 44.318 125.63C43.946 125.63 43.58 125.714 43.22 125.882C42.86 126.038 42.554 126.242 42.302 126.494C42.302 126.638 42.302 126.794 42.302 126.962C42.314 127.118 42.32 127.286 42.32 127.466V132.092C42.32 132.332 42.314 132.548 42.302 132.74C42.302 132.92 42.284 133.112 42.248 133.316C42.44 133.304 42.626 133.298 42.806 133.298C42.998 133.286 43.19 133.274 43.382 133.262V134H39.71ZM61.266 134C61.23 133.796 61.206 133.616 61.194 133.46C61.182 133.304 61.164 133.142 61.14 132.974C60.732 133.382 60.288 133.706 59.808 133.946C59.34 134.174 58.842 134.288 58.314 134.288C57.402 134.288 56.724 134.084 56.28 133.676C55.836 133.256 55.614 132.746 55.614 132.146C55.614 131.594 55.782 131.12 56.118 130.724C56.466 130.316 56.91 129.986 57.45 129.734C58.002 129.47 58.596 129.278 59.232 129.158C59.88 129.026 60.504 128.966 61.104 128.978V127.862C61.104 127.442 61.068 127.046 60.996 126.674C60.924 126.302 60.768 125.996 60.528 125.756C60.288 125.516 59.904 125.39 59.376 125.378C59.028 125.366 58.668 125.432 58.296 125.576C57.936 125.72 57.672 125.966 57.504 126.314C57.6 126.41 57.66 126.524 57.684 126.656C57.72 126.776 57.738 126.89 57.738 126.998C57.738 127.142 57.678 127.31 57.558 127.502C57.438 127.682 57.228 127.766 56.928 127.754C56.676 127.754 56.484 127.67 56.352 127.502C56.22 127.322 56.154 127.112 56.154 126.872C56.154 126.464 56.304 126.098 56.604 125.774C56.916 125.45 57.342 125.192 57.882 125C58.422 124.808 59.034 124.712 59.718 124.712C60.726 124.712 61.47 124.982 61.95 125.522C62.43 126.05 62.664 126.89 62.652 128.042C62.652 128.714 62.646 129.392 62.634 130.076C62.634 130.748 62.634 131.42 62.634 132.092C62.634 132.284 62.628 132.476 62.616 132.668C62.604 132.86 62.586 133.076 62.562 133.316C62.778 133.304 62.988 133.292 63.192 133.28C63.408 133.268 63.624 133.256 63.84 133.244V134H61.266ZM61.104 129.59C60.696 129.602 60.264 129.656 59.808 129.752C59.364 129.836 58.95 129.968 58.566 130.148C58.194 130.328 57.888 130.568 57.648 130.868C57.42 131.156 57.312 131.51 57.324 131.93C57.348 132.374 57.492 132.71 57.756 132.938C58.032 133.154 58.356 133.262 58.728 133.262C59.22 133.262 59.646 133.172 60.006 132.992C60.378 132.8 60.744 132.536 61.104 132.2C61.092 132.068 61.086 131.924 61.086 131.768C61.086 131.612 61.086 131.45 61.086 131.282C61.086 131.222 61.086 131.03 61.086 130.706C61.098 130.382 61.104 130.01 61.104 129.59ZM65.0752 134V133.46C65.4472 133.46 65.7052 133.37 65.8492 133.19C65.9932 132.998 66.0772 132.74 66.1012 132.416C66.1252 132.08 66.1372 131.696 66.1372 131.264L66.1552 127.16C66.1552 126.968 66.1552 126.776 66.1552 126.584C66.1672 126.392 66.1912 126.194 66.2272 125.99C66.0112 126.002 65.7952 126.014 65.5792 126.026C65.3752 126.038 65.1652 126.05 64.9492 126.062V125.306C65.4772 125.306 65.8732 125.282 66.1372 125.234C66.4132 125.186 66.6172 125.126 66.7492 125.054C66.8812 124.982 66.9892 124.904 67.0732 124.82H67.5952C67.6192 124.952 67.6312 125.108 67.6312 125.288C67.6432 125.456 67.6552 125.666 67.6672 125.918C68.0512 125.57 68.5072 125.282 69.0352 125.054C69.5632 124.826 70.0852 124.712 70.6012 124.712C71.6452 124.712 72.4072 125.042 72.8872 125.702C73.3672 126.35 73.6072 127.364 73.6072 128.744V132.092C73.6072 132.332 73.6012 132.548 73.5892 132.74C73.5892 132.92 73.5712 133.112 73.5352 133.316C73.7272 133.304 73.9132 133.298 74.0932 133.298C74.2852 133.286 74.4772 133.274 74.6692 133.262V134H70.9972V133.46C71.3692 133.46 71.6272 133.37 71.7712 133.19C71.9152 132.998 71.9992 132.74 72.0232 132.416C72.0472 132.08 72.0592 131.696 72.0592 131.264V128.744C72.0472 127.712 71.8732 126.932 71.5372 126.404C71.2132 125.876 70.6972 125.618 69.9892 125.63C69.5572 125.642 69.1312 125.756 68.7112 125.972C68.3032 126.188 67.9612 126.464 67.6852 126.8C67.6972 126.896 67.7032 127.004 67.7032 127.124C67.7032 127.244 67.7032 127.37 67.7032 127.502L67.6852 132.092C67.6852 132.332 67.6792 132.548 67.6672 132.74C67.6672 132.92 67.6492 133.112 67.6132 133.316C67.8052 133.304 67.9912 133.298 68.1712 133.298C68.3632 133.286 68.5552 133.274 68.7472 133.262V134H65.0752ZM0.99 156.406C1.446 156.382 1.758 156.28 1.926 156.1C2.094 155.908 2.184 155.65 2.196 155.326C2.22 154.99 2.232 154.612 2.232 154.192V146.416C2.232 145.912 2.25 145.48 2.286 145.12C2.07 145.132 1.854 145.144 1.638 145.156C1.422 145.168 1.206 145.18 0.99 145.192V144.4L5.238 144.382C6.69 144.37 7.962 144.592 9.054 145.048C10.158 145.504 11.022 146.2 11.646 147.136C12.27 148.072 12.582 149.266 12.582 150.718C12.582 151.546 12.438 152.338 12.15 153.094C11.862 153.85 11.43 154.522 10.854 155.11C10.278 155.686 9.558 156.148 8.694 156.496C7.842 156.832 6.852 157 5.724 157H0.99V156.406ZM3.798 154.876C3.798 155.5 3.78 155.968 3.744 156.28C4.224 156.304 4.644 156.316 5.004 156.316C5.376 156.316 5.598 156.316 5.67 156.316C6.702 156.316 7.602 156.07 8.37 155.578C9.15 155.074 9.75 154.396 10.17 153.544C10.602 152.68 10.818 151.714 10.818 150.646C10.818 149.506 10.608 148.522 10.188 147.694C9.78 146.854 9.15 146.206 8.298 145.75C7.446 145.282 6.36 145.048 5.04 145.048C4.596 145.048 4.284 145.138 4.104 145.318C3.936 145.498 3.84 145.75 3.816 146.074C3.804 146.398 3.798 146.776 3.798 147.208V154.876ZM14.2041 156.46C14.5761 156.46 14.8341 156.37 14.9781 156.19C15.1221 155.998 15.2061 155.74 15.2301 155.416C15.2541 155.08 15.2661 154.696 15.2661 154.264V150.16C15.2661 149.968 15.2661 149.776 15.2661 149.584C15.2781 149.392 15.3021 149.194 15.3381 148.99C15.1221 149.002 14.9061 149.014 14.6901 149.026C14.4861 149.026 14.2761 149.032 14.0601 149.044V148.306H14.6181C15.1341 148.306 15.4881 148.258 15.6801 148.162C15.8841 148.054 16.0521 147.94 16.1841 147.82H16.7061C16.7301 148.012 16.7481 148.252 16.7601 148.54C16.7721 148.816 16.7841 149.17 16.7961 149.602C16.9761 149.302 17.2221 149.008 17.5341 148.72C17.8461 148.432 18.1941 148.192 18.5781 148C18.9741 147.808 19.3881 147.712 19.8201 147.712C20.1561 147.712 20.4501 147.802 20.7021 147.982C20.9541 148.162 21.0801 148.45 21.0801 148.846C21.0801 149.002 21.0081 149.188 20.8641 149.404C20.7321 149.62 20.5041 149.722 20.1801 149.71C19.9161 149.698 19.7061 149.596 19.5501 149.404C19.3941 149.2 19.3341 148.966 19.3701 148.702C18.9141 148.678 18.4521 148.852 17.9841 149.224C17.5161 149.596 17.1261 150.076 16.8141 150.664L16.8321 155.092C16.8321 155.332 16.8261 155.548 16.8141 155.74C16.8141 155.92 16.7961 156.112 16.7601 156.316C16.9521 156.304 17.1381 156.298 17.3181 156.298C17.5101 156.286 17.7021 156.274 17.8941 156.262V157H14.2041V156.46ZM26.2242 157.288C25.3962 157.288 24.6462 157.096 23.9742 156.712C23.3142 156.316 22.7922 155.764 22.4082 155.056C22.0242 154.336 21.8322 153.49 21.8322 152.518C21.8322 151.678 22.0182 150.892 22.3902 150.16C22.7742 149.428 23.3082 148.84 23.9922 148.396C24.6762 147.94 25.4682 147.712 26.3682 147.712C27.0402 147.712 27.6522 147.856 28.2042 148.144C28.7562 148.432 29.1942 148.87 29.5182 149.458C29.8542 150.046 30.0222 150.79 30.0222 151.69L23.6862 151.798C23.6742 153.178 23.9022 154.288 24.3702 155.128C24.8382 155.956 25.6002 156.37 26.6562 156.37C27.0282 156.37 27.4062 156.304 27.7902 156.172C28.1862 156.04 28.5522 155.86 28.8882 155.632C29.2242 155.404 29.4942 155.152 29.6982 154.876L30.1302 155.236C29.8062 155.74 29.4162 156.142 28.9602 156.442C28.5042 156.742 28.0362 156.958 27.5562 157.09C27.0762 157.222 26.6322 157.288 26.2242 157.288ZM23.7402 151.042H28.3302C28.3302 150.61 28.2642 150.196 28.1322 149.8C28.0122 149.392 27.8082 149.062 27.5202 148.81C27.2322 148.546 26.8542 148.414 26.3862 148.414C25.6902 148.414 25.1082 148.624 24.6402 149.044C24.1842 149.452 23.8842 150.118 23.7402 151.042ZM35.314 157.288C34.714 157.288 34.18 157.204 33.712 157.036C33.244 156.88 32.86 156.7 32.56 156.496L32.632 157.126H31.876L31.768 154.03H32.326C32.35 154.522 32.488 154.966 32.74 155.362C32.992 155.746 33.316 156.046 33.712 156.262C34.108 156.478 34.534 156.586 34.99 156.586C35.302 156.586 35.608 156.538 35.908 156.442C36.208 156.334 36.46 156.178 36.664 155.974C36.868 155.758 36.97 155.488 36.97 155.164C36.97 154.828 36.868 154.552 36.664 154.336C36.472 154.108 36.214 153.91 35.89 153.742C35.566 153.574 35.218 153.418 34.846 153.274C34.366 153.082 33.886 152.878 33.406 152.662C32.938 152.434 32.548 152.14 32.236 151.78C31.924 151.408 31.768 150.922 31.768 150.322C31.768 150.07 31.816 149.794 31.912 149.494C32.008 149.194 32.17 148.912 32.398 148.648C32.626 148.372 32.938 148.15 33.334 147.982C33.73 147.802 34.234 147.712 34.846 147.712C35.17 147.712 35.53 147.766 35.926 147.874C36.322 147.982 36.706 148.186 37.078 148.486L37.042 147.802H37.798V150.952H37.222C37.198 150.532 37.102 150.13 36.934 149.746C36.766 149.35 36.52 149.026 36.196 148.774C35.872 148.51 35.452 148.378 34.936 148.378C34.384 148.378 33.952 148.516 33.64 148.792C33.328 149.068 33.172 149.386 33.172 149.746C33.172 150.118 33.286 150.43 33.514 150.682C33.754 150.922 34.06 151.132 34.432 151.312C34.804 151.492 35.2 151.666 35.62 151.834C36.076 152.026 36.52 152.236 36.952 152.464C37.384 152.692 37.738 152.98 38.014 153.328C38.29 153.664 38.428 154.102 38.428 154.642C38.428 155.242 38.272 155.74 37.96 156.136C37.66 156.532 37.27 156.82 36.79 157C36.322 157.192 35.83 157.288 35.314 157.288ZM43.6461 157.288C43.0461 157.288 42.5121 157.204 42.0441 157.036C41.5761 156.88 41.1921 156.7 40.8921 156.496L40.9641 157.126H40.2081L40.1001 154.03H40.6581C40.6821 154.522 40.8201 154.966 41.0721 155.362C41.3241 155.746 41.6481 156.046 42.0441 156.262C42.4401 156.478 42.8661 156.586 43.3221 156.586C43.6341 156.586 43.9401 156.538 44.2401 156.442C44.5401 156.334 44.7921 156.178 44.9961 155.974C45.2001 155.758 45.3021 155.488 45.3021 155.164C45.3021 154.828 45.2001 154.552 44.9961 154.336C44.8041 154.108 44.5461 153.91 44.2221 153.742C43.8981 153.574 43.5501 153.418 43.1781 153.274C42.6981 153.082 42.2181 152.878 41.7381 152.662C41.2701 152.434 40.8801 152.14 40.5681 151.78C40.2561 151.408 40.1001 150.922 40.1001 150.322C40.1001 150.07 40.1481 149.794 40.2441 149.494C40.3401 149.194 40.5021 148.912 40.7301 148.648C40.9581 148.372 41.2701 148.15 41.6661 147.982C42.0621 147.802 42.5661 147.712 43.1781 147.712C43.5021 147.712 43.8621 147.766 44.2581 147.874C44.6541 147.982 45.0381 148.186 45.4101 148.486L45.3741 147.802H46.1301V150.952H45.5541C45.5301 150.532 45.4341 150.13 45.2661 149.746C45.0981 149.35 44.8521 149.026 44.5281 148.774C44.2041 148.51 43.7841 148.378 43.2681 148.378C42.7161 148.378 42.2841 148.516 41.9721 148.792C41.6601 149.068 41.5041 149.386 41.5041 149.746C41.5041 150.118 41.6181 150.43 41.8461 150.682C42.0861 150.922 42.3921 151.132 42.7641 151.312C43.1361 151.492 43.5321 151.666 43.9521 151.834C44.4081 152.026 44.8521 152.236 45.2841 152.464C45.7161 152.692 46.0701 152.98 46.3461 153.328C46.6221 153.664 46.7601 154.102 46.7601 154.642C46.7601 155.242 46.6041 155.74 46.2921 156.136C45.9921 156.532 45.6021 156.82 45.1221 157C44.6541 157.192 44.1621 157.288 43.6461 157.288ZM48.2881 156.46C48.6601 156.46 48.9181 156.37 49.0621 156.19C49.2061 155.998 49.2901 155.74 49.3141 155.416C49.3381 155.08 49.3501 154.696 49.3501 154.264V150.16C49.3501 149.968 49.3561 149.788 49.3681 149.62C49.3801 149.44 49.3981 149.23 49.4221 148.99C49.2061 149.002 48.9901 149.014 48.7741 149.026C48.5701 149.038 48.3601 149.05 48.1441 149.062V148.306C48.6721 148.306 49.0801 148.282 49.3681 148.234C49.6561 148.186 49.8721 148.126 50.0161 148.054C50.1721 147.982 50.2921 147.904 50.3761 147.82H50.8981V155.092C50.8981 155.332 50.8921 155.548 50.8801 155.74C50.8801 155.92 50.8621 156.112 50.8261 156.316C51.0181 156.304 51.2041 156.298 51.3841 156.298C51.5761 156.286 51.7681 156.274 51.9601 156.262V157H48.2881V156.46ZM50.0341 146.038C49.7821 146.038 49.5601 145.936 49.3681 145.732C49.1761 145.528 49.0801 145.276 49.0801 144.976C49.0801 144.676 49.1761 144.424 49.3681 144.22C49.5721 144.004 49.8001 143.896 50.0521 143.896C50.3281 143.896 50.5561 144.004 50.7361 144.22C50.9281 144.424 51.0241 144.676 51.0241 144.976C51.0241 145.276 50.9221 145.528 50.7181 145.732C50.5261 145.936 50.2981 146.038 50.0341 146.038ZM53.3506 157V156.46C53.7226 156.46 53.9806 156.37 54.1246 156.19C54.2686 155.998 54.3526 155.74 54.3766 155.416C54.4006 155.08 54.4126 154.696 54.4126 154.264L54.4306 150.16C54.4306 149.968 54.4306 149.776 54.4306 149.584C54.4426 149.392 54.4666 149.194 54.5026 148.99C54.2866 149.002 54.0706 149.014 53.8546 149.026C53.6506 149.038 53.4406 149.05 53.2246 149.062V148.306C53.7526 148.306 54.1486 148.282 54.4126 148.234C54.6886 148.186 54.8926 148.126 55.0246 148.054C55.1566 147.982 55.2646 147.904 55.3486 147.82H55.8706C55.8946 147.952 55.9066 148.108 55.9066 148.288C55.9186 148.456 55.9306 148.666 55.9426 148.918C56.3266 148.57 56.7826 148.282 57.3106 148.054C57.8386 147.826 58.3606 147.712 58.8766 147.712C59.9206 147.712 60.6826 148.042 61.1626 148.702C61.6426 149.35 61.8826 150.364 61.8826 151.744V155.092C61.8826 155.332 61.8766 155.548 61.8646 155.74C61.8646 155.92 61.8466 156.112 61.8106 156.316C62.0026 156.304 62.1886 156.298 62.3686 156.298C62.5606 156.286 62.7526 156.274 62.9446 156.262V157H59.2726V156.46C59.6446 156.46 59.9026 156.37 60.0466 156.19C60.1906 155.998 60.2746 155.74 60.2986 155.416C60.3226 155.08 60.3346 154.696 60.3346 154.264V151.744C60.3226 150.712 60.1486 149.932 59.8126 149.404C59.4886 148.876 58.9726 148.618 58.2646 148.63C57.8326 148.642 57.4066 148.756 56.9866 148.972C56.5786 149.188 56.2366 149.464 55.9606 149.8C55.9726 149.896 55.9786 150.004 55.9786 150.124C55.9786 150.244 55.9786 150.37 55.9786 150.502L55.9606 155.092C55.9606 155.332 55.9546 155.548 55.9426 155.74C55.9426 155.92 55.9246 156.112 55.8886 156.316C56.0806 156.304 56.2666 156.298 56.4466 156.298C56.6386 156.286 56.8306 156.274 57.0226 156.262V157H53.3506ZM68.6222 161.878C67.5422 161.878 66.6722 161.758 66.0122 161.518C65.3522 161.278 64.8722 160.972 64.5722 160.6C64.2722 160.228 64.1222 159.844 64.1222 159.448C64.1222 159.076 64.2062 158.746 64.3742 158.458C64.5542 158.182 64.7702 157.942 65.0222 157.738C65.2862 157.534 65.5382 157.384 65.7782 157.288C65.3942 157.156 65.0882 156.982 64.8602 156.766C64.6442 156.538 64.5362 156.238 64.5362 155.866C64.5362 155.446 64.7042 155.056 65.0402 154.696C65.3762 154.324 65.8082 154.096 66.3362 154.012C65.7842 153.748 65.3402 153.382 65.0042 152.914C64.6802 152.446 64.5182 151.9 64.5182 151.276C64.5182 150.556 64.7042 149.932 65.0762 149.404C65.4482 148.864 65.9222 148.45 66.4982 148.162C67.0862 147.862 67.6922 147.712 68.3162 147.712C69.1322 147.712 69.8942 147.934 70.6022 148.378C70.7822 147.874 71.0702 147.46 71.4662 147.136C71.8622 146.8 72.3002 146.632 72.7802 146.632C73.0922 146.632 73.3262 146.716 73.4822 146.884C73.6502 147.04 73.7342 147.256 73.7342 147.532C73.7342 147.664 73.6742 147.826 73.5542 148.018C73.4462 148.198 73.2482 148.282 72.9602 148.27C72.7562 148.27 72.5882 148.21 72.4562 148.09C72.3242 147.97 72.2402 147.82 72.2042 147.64C71.9042 147.688 71.6702 147.832 71.5022 148.072C71.3342 148.3 71.2202 148.552 71.1602 148.828C71.4482 149.092 71.6762 149.41 71.8442 149.782C72.0242 150.154 72.1142 150.55 72.1142 150.97C72.1142 151.642 71.9342 152.242 71.5742 152.77C71.2262 153.298 70.7642 153.712 70.1882 154.012C69.6122 154.3 68.9882 154.444 68.3162 154.444C68.0882 154.444 67.8902 154.432 67.7222 154.408C67.5542 154.372 67.3502 154.354 67.1102 154.354C66.6662 154.354 66.3062 154.462 66.0302 154.678C65.7542 154.894 65.6582 155.152 65.7422 155.452C65.8382 155.74 66.1322 155.926 66.6242 156.01C67.1162 156.082 67.7762 156.136 68.6042 156.172C69.5282 156.208 70.3202 156.316 70.9802 156.496C71.6402 156.676 72.1442 156.952 72.4922 157.324C72.8522 157.708 73.0322 158.224 73.0322 158.872C73.0322 159.352 72.9002 159.778 72.6362 160.15C72.3842 160.534 72.0422 160.852 71.6102 161.104C71.1902 161.356 70.7162 161.548 70.1882 161.68C69.6722 161.812 69.1502 161.878 68.6222 161.878ZM68.3702 153.796C69.0422 153.796 69.5402 153.562 69.8642 153.094C70.2002 152.614 70.3682 152.026 70.3682 151.33C70.3682 150.802 70.2902 150.31 70.1342 149.854C69.9782 149.398 69.7442 149.032 69.4322 148.756C69.1322 148.48 68.7482 148.342 68.2802 148.342C67.6322 148.342 67.1282 148.588 66.7682 149.08C66.4202 149.56 66.2462 150.16 66.2462 150.88C66.2462 151.744 66.4322 152.446 66.8042 152.986C67.1762 153.526 67.6982 153.796 68.3702 153.796ZM68.6042 161.176C69.6362 161.176 70.4402 160.984 71.0162 160.6C71.5922 160.216 71.8802 159.766 71.8802 159.25C71.8802 158.806 71.7302 158.464 71.4302 158.224C71.1302 157.996 70.7222 157.834 70.2062 157.738C69.6902 157.654 69.0962 157.606 68.4242 157.594C68.1002 157.582 67.7822 157.564 67.4702 157.54C67.1582 157.528 66.8582 157.498 66.5702 157.45C65.8862 157.906 65.5442 158.5 65.5442 159.232C65.5442 159.82 65.8202 160.288 66.3722 160.636C66.9362 160.996 67.6802 161.176 68.6042 161.176ZM88.5919 148.198C88.5799 147.49 88.5079 146.902 88.3759 146.434C88.2439 145.966 88.0099 145.618 87.6739 145.39C87.3499 145.15 86.8759 145.036 86.2519 145.048H84.7219L84.7039 154.858C84.7039 155.494 84.6859 155.968 84.6499 156.28C84.9019 156.268 85.1479 156.256 85.3879 156.244C85.6399 156.232 85.8919 156.22 86.1439 156.208V157H81.9139V156.406C82.3699 156.382 82.6759 156.274 82.8319 156.082C82.9999 155.89 83.0899 155.632 83.1019 155.308C83.1259 154.972 83.1379 154.6 83.1379 154.192L83.1559 145.066L81.3019 145.084C80.5459 145.084 80.0119 145.336 79.6999 145.84C79.3879 146.344 79.2319 147.13 79.2319 148.198H78.5659L78.6739 144.4H89.1679L89.2759 148.198H88.5919ZM95.5081 157C95.4721 156.796 95.4481 156.616 95.4361 156.46C95.4241 156.304 95.4061 156.142 95.3821 155.974C94.9741 156.382 94.5301 156.706 94.0501 156.946C93.5821 157.174 93.0841 157.288 92.5561 157.288C91.6441 157.288 90.9661 157.084 90.5221 156.676C90.0781 156.256 89.8561 155.746 89.8561 155.146C89.8561 154.594 90.0241 154.12 90.3601 153.724C90.7081 153.316 91.1521 152.986 91.6921 152.734C92.2441 152.47 92.8381 152.278 93.4741 152.158C94.1221 152.026 94.7461 151.966 95.3461 151.978V150.862C95.3461 150.442 95.3101 150.046 95.2381 149.674C95.1661 149.302 95.0101 148.996 94.7701 148.756C94.5301 148.516 94.1461 148.39 93.6181 148.378C93.2701 148.366 92.9101 148.432 92.5381 148.576C92.1781 148.72 91.9141 148.966 91.7461 149.314C91.8421 149.41 91.9021 149.524 91.9261 149.656C91.9621 149.776 91.9801 149.89 91.9801 149.998C91.9801 150.142 91.9201 150.31 91.8001 150.502C91.6801 150.682 91.4701 150.766 91.1701 150.754C90.9181 150.754 90.7261 150.67 90.5941 150.502C90.4621 150.322 90.3961 150.112 90.3961 149.872C90.3961 149.464 90.5461 149.098 90.8461 148.774C91.1581 148.45 91.5841 148.192 92.1241 148C92.6641 147.808 93.2761 147.712 93.9601 147.712C94.9681 147.712 95.7121 147.982 96.1921 148.522C96.6721 149.05 96.9061 149.89 96.8941 151.042C96.8941 151.714 96.8881 152.392 96.8761 153.076C96.8761 153.748 96.8761 154.42 96.8761 155.092C96.8761 155.284 96.8701 155.476 96.8581 155.668C96.8461 155.86 96.8281 156.076 96.8041 156.316C97.0201 156.304 97.2301 156.292 97.4341 156.28C97.6501 156.268 97.8661 156.256 98.0821 156.244V157H95.5081ZM95.3461 152.59C94.9381 152.602 94.5061 152.656 94.0501 152.752C93.6061 152.836 93.1921 152.968 92.8081 153.148C92.4361 153.328 92.1301 153.568 91.8901 153.868C91.6621 154.156 91.5541 154.51 91.5661 154.93C91.5901 155.374 91.7341 155.71 91.9981 155.938C92.2741 156.154 92.5981 156.262 92.9701 156.262C93.4621 156.262 93.8881 156.172 94.2481 155.992C94.6201 155.8 94.9861 155.536 95.3461 155.2C95.3341 155.068 95.3281 154.924 95.3281 154.768C95.3281 154.612 95.3281 154.45 95.3281 154.282C95.3281 154.222 95.3281 154.03 95.3281 153.706C95.3401 153.382 95.3461 153.01 95.3461 152.59ZM99.8934 145.75C99.8934 145.558 99.8934 145.378 99.8934 145.21C99.9054 145.03 99.9234 144.82 99.9474 144.58C99.7314 144.592 99.5154 144.604 99.2994 144.616C99.0954 144.628 98.8854 144.64 98.6694 144.652V143.896C99.1974 143.896 99.6054 143.872 99.8934 143.824C100.193 143.776 100.415 143.716 100.559 143.644C100.715 143.572 100.835 143.494 100.919 143.41H101.441V148.774C101.777 148.438 102.173 148.18 102.629 148C103.097 147.808 103.607 147.712 104.159 147.712C104.927 147.712 105.617 147.898 106.229 148.27C106.853 148.642 107.345 149.17 107.705 149.854C108.065 150.538 108.245 151.348 108.245 152.284C108.245 153.304 108.023 154.192 107.579 154.948C107.135 155.692 106.559 156.268 105.851 156.676C105.143 157.084 104.381 157.288 103.565 157.288C103.157 157.288 102.707 157.21 102.215 157.054C101.735 156.91 101.303 156.622 100.919 156.19L100.487 157H99.8574L99.8934 145.75ZM101.441 154.174C101.441 154.81 101.543 155.302 101.747 155.65C101.951 155.986 102.215 156.22 102.539 156.352C102.863 156.484 103.205 156.55 103.565 156.55C104.429 156.55 105.113 156.196 105.617 155.488C106.133 154.78 106.391 153.862 106.391 152.734C106.391 151.918 106.289 151.204 106.085 150.592C105.881 149.968 105.575 149.482 105.167 149.134C104.759 148.774 104.243 148.594 103.619 148.594C103.223 148.594 102.827 148.69 102.431 148.882C102.047 149.062 101.717 149.308 101.441 149.62V154.174ZM109.614 156.46C109.986 156.46 110.244 156.37 110.388 156.19C110.532 155.998 110.616 155.74 110.64 155.416C110.664 155.08 110.676 154.696 110.676 154.264V145.75C110.676 145.558 110.676 145.378 110.676 145.21C110.688 145.03 110.706 144.82 110.73 144.58C110.514 144.592 110.298 144.604 110.082 144.616C109.878 144.628 109.668 144.64 109.452 144.652V143.896C109.98 143.896 110.388 143.872 110.676 143.824C110.976 143.776 111.198 143.716 111.342 143.644C111.498 143.572 111.618 143.494 111.702 143.41H112.224L112.242 155.092C112.242 155.332 112.236 155.548 112.224 155.74C112.212 155.92 112.188 156.112 112.152 156.316C112.344 156.304 112.53 156.298 112.71 156.298C112.902 156.286 113.094 156.274 113.286 156.262V157H109.614V156.46ZM119.054 157.288C118.226 157.288 117.476 157.096 116.804 156.712C116.144 156.316 115.622 155.764 115.238 155.056C114.854 154.336 114.662 153.49 114.662 152.518C114.662 151.678 114.848 150.892 115.22 150.16C115.604 149.428 116.138 148.84 116.822 148.396C117.506 147.94 118.298 147.712 119.198 147.712C119.87 147.712 120.482 147.856 121.034 148.144C121.586 148.432 122.024 148.87 122.348 149.458C122.684 150.046 122.852 150.79 122.852 151.69L116.516 151.798C116.504 153.178 116.732 154.288 117.2 155.128C117.668 155.956 118.43 156.37 119.486 156.37C119.858 156.37 120.236 156.304 120.62 156.172C121.016 156.04 121.382 155.86 121.718 155.632C122.054 155.404 122.324 155.152 122.528 154.876L122.96 155.236C122.636 155.74 122.246 156.142 121.79 156.442C121.334 156.742 120.866 156.958 120.386 157.09C119.906 157.222 119.462 157.288 119.054 157.288ZM116.57 151.042H121.16C121.16 150.61 121.094 150.196 120.962 149.8C120.842 149.392 120.638 149.062 120.35 148.81C120.062 148.546 119.684 148.414 119.216 148.414C118.52 148.414 117.938 148.624 117.47 149.044C117.014 149.452 116.714 150.118 116.57 151.042ZM10.944 171.414C10.824 170.286 10.428 169.41 9.756 168.786C9.096 168.162 8.244 167.85 7.2 167.85C6.348 167.85 5.574 168.09 4.878 168.57C4.182 169.038 3.624 169.704 3.204 170.568C2.796 171.432 2.592 172.452 2.592 173.628C2.592 174.756 2.808 175.752 3.24 176.616C3.672 177.48 4.254 178.152 4.986 178.632C5.718 179.112 6.528 179.352 7.416 179.352C8.196 179.352 8.964 179.178 9.72 178.83C10.476 178.47 11.094 177.954 11.574 177.282L12.042 177.66C11.526 178.368 10.968 178.914 10.368 179.298C9.768 179.682 9.168 179.94 8.568 180.072C7.98 180.216 7.44 180.288 6.948 180.288C6.048 180.288 5.22 180.126 4.464 179.802C3.72 179.478 3.072 179.028 2.52 178.452C1.98 177.864 1.56 177.186 1.26 176.418C0.972 175.638 0.828 174.798 0.828 173.898C0.828 173.046 0.954 172.218 1.206 171.414C1.47 170.61 1.86 169.884 2.376 169.236C2.892 168.588 3.54 168.072 4.32 167.688C5.112 167.304 6.03 167.112 7.074 167.112C8.394 167.112 9.606 167.478 10.71 168.21L10.62 167.238H11.592V171.414H10.944ZM18.8499 180C18.8139 179.796 18.7899 179.616 18.7779 179.46C18.7659 179.304 18.7479 179.142 18.7239 178.974C18.3159 179.382 17.8719 179.706 17.3919 179.946C16.9239 180.174 16.4259 180.288 15.8979 180.288C14.9859 180.288 14.3079 180.084 13.8639 179.676C13.4199 179.256 13.1979 178.746 13.1979 178.146C13.1979 177.594 13.3659 177.12 13.7019 176.724C14.0499 176.316 14.4939 175.986 15.0339 175.734C15.5859 175.47 16.1799 175.278 16.8159 175.158C17.4639 175.026 18.0879 174.966 18.6879 174.978V173.862C18.6879 173.442 18.6519 173.046 18.5799 172.674C18.5079 172.302 18.3519 171.996 18.1119 171.756C17.8719 171.516 17.4879 171.39 16.9599 171.378C16.6119 171.366 16.2519 171.432 15.8799 171.576C15.5199 171.72 15.2559 171.966 15.0879 172.314C15.1839 172.41 15.2439 172.524 15.2679 172.656C15.3039 172.776 15.3219 172.89 15.3219 172.998C15.3219 173.142 15.2619 173.31 15.1419 173.502C15.0219 173.682 14.8119 173.766 14.5119 173.754C14.2599 173.754 14.0679 173.67 13.9359 173.502C13.8039 173.322 13.7379 173.112 13.7379 172.872C13.7379 172.464 13.8879 172.098 14.1879 171.774C14.4999 171.45 14.9259 171.192 15.4659 171C16.0059 170.808 16.6179 170.712 17.3019 170.712C18.3099 170.712 19.0539 170.982 19.5339 171.522C20.0139 172.05 20.2479 172.89 20.2359 174.042C20.2359 174.714 20.2299 175.392 20.2179 176.076C20.2179 176.748 20.2179 177.42 20.2179 178.092C20.2179 178.284 20.2119 178.476 20.1999 178.668C20.1879 178.86 20.1699 179.076 20.1459 179.316C20.3619 179.304 20.5719 179.292 20.7759 179.28C20.9919 179.268 21.2079 179.256 21.4239 179.244V180H18.8499ZM18.6879 175.59C18.2799 175.602 17.8479 175.656 17.3919 175.752C16.9479 175.836 16.5339 175.968 16.1499 176.148C15.7779 176.328 15.4719 176.568 15.2319 176.868C15.0039 177.156 14.8959 177.51 14.9079 177.93C14.9319 178.374 15.0759 178.71 15.3399 178.938C15.6159 179.154 15.9399 179.262 16.3119 179.262C16.8039 179.262 17.2299 179.172 17.5899 178.992C17.9619 178.8 18.3279 178.536 18.6879 178.2C18.6759 178.068 18.6699 177.924 18.6699 177.768C18.6699 177.612 18.6699 177.45 18.6699 177.282C18.6699 177.222 18.6699 177.03 18.6699 176.706C18.6819 176.382 18.6879 176.01 18.6879 175.59ZM23.2352 168.75C23.2352 168.558 23.2352 168.378 23.2352 168.21C23.2472 168.03 23.2652 167.82 23.2892 167.58C23.0732 167.592 22.8572 167.604 22.6412 167.616C22.4372 167.628 22.2272 167.64 22.0112 167.652V166.896C22.5392 166.896 22.9472 166.872 23.2352 166.824C23.5352 166.776 23.7572 166.716 23.9012 166.644C24.0572 166.572 24.1772 166.494 24.2612 166.41H24.7832V171.774C25.1192 171.438 25.5152 171.18 25.9712 171C26.4392 170.808 26.9492 170.712 27.5012 170.712C28.2692 170.712 28.9592 170.898 29.5712 171.27C30.1952 171.642 30.6872 172.17 31.0472 172.854C31.4072 173.538 31.5872 174.348 31.5872 175.284C31.5872 176.304 31.3652 177.192 30.9212 177.948C30.4772 178.692 29.9012 179.268 29.1932 179.676C28.4852 180.084 27.7232 180.288 26.9072 180.288C26.4992 180.288 26.0492 180.21 25.5572 180.054C25.0772 179.91 24.6452 179.622 24.2612 179.19L23.8292 180H23.1992L23.2352 168.75ZM24.7832 177.174C24.7832 177.81 24.8852 178.302 25.0892 178.65C25.2932 178.986 25.5572 179.22 25.8812 179.352C26.2052 179.484 26.5472 179.55 26.9072 179.55C27.7712 179.55 28.4552 179.196 28.9592 178.488C29.4752 177.78 29.7332 176.862 29.7332 175.734C29.7332 174.918 29.6312 174.204 29.4272 173.592C29.2232 172.968 28.9172 172.482 28.5092 172.134C28.1012 171.774 27.5852 171.594 26.9612 171.594C26.5652 171.594 26.1692 171.69 25.7732 171.882C25.3892 172.062 25.0592 172.308 24.7832 172.62V177.174ZM33.1358 179.46C33.5078 179.46 33.7658 179.37 33.9098 179.19C34.0538 178.998 34.1378 178.74 34.1618 178.416C34.1858 178.08 34.1978 177.696 34.1978 177.264V173.16C34.1978 172.968 34.2038 172.788 34.2158 172.62C34.2278 172.44 34.2458 172.23 34.2698 171.99C34.0538 172.002 33.8378 172.014 33.6218 172.026C33.4178 172.038 33.2078 172.05 32.9918 172.062V171.306C33.5198 171.306 33.9278 171.282 34.2158 171.234C34.5038 171.186 34.7198 171.126 34.8638 171.054C35.0198 170.982 35.1398 170.904 35.2238 170.82H35.7458V178.092C35.7458 178.332 35.7398 178.548 35.7278 178.74C35.7278 178.92 35.7098 179.112 35.6738 179.316C35.8658 179.304 36.0518 179.298 36.2318 179.298C36.4238 179.286 36.6158 179.274 36.8078 179.262V180H33.1358V179.46ZM34.8818 169.038C34.6298 169.038 34.4078 168.936 34.2158 168.732C34.0238 168.528 33.9278 168.276 33.9278 167.976C33.9278 167.676 34.0238 167.424 34.2158 167.22C34.4198 167.004 34.6478 166.896 34.8998 166.896C35.1758 166.896 35.4038 167.004 35.5838 167.22C35.7758 167.424 35.8718 167.676 35.8718 167.976C35.8718 168.276 35.7698 168.528 35.5658 168.732C35.3738 168.936 35.1458 169.038 34.8818 169.038ZM38.1983 180V179.46C38.5703 179.46 38.8283 179.37 38.9723 179.19C39.1163 178.998 39.2003 178.74 39.2243 178.416C39.2483 178.08 39.2603 177.696 39.2603 177.264L39.2783 173.16C39.2783 172.968 39.2783 172.776 39.2783 172.584C39.2903 172.392 39.3143 172.194 39.3503 171.99C39.1343 172.002 38.9183 172.014 38.7023 172.026C38.4983 172.038 38.2883 172.05 38.0723 172.062V171.306C38.6003 171.306 38.9963 171.282 39.2603 171.234C39.5363 171.186 39.7403 171.126 39.8723 171.054C40.0043 170.982 40.1123 170.904 40.1963 170.82H40.7183C40.7423 170.952 40.7543 171.108 40.7543 171.288C40.7663 171.456 40.7783 171.666 40.7903 171.918C41.1743 171.57 41.6303 171.282 42.1582 171.054C42.6863 170.826 43.2083 170.712 43.7243 170.712C44.7683 170.712 45.5303 171.042 46.0103 171.702C46.4903 172.35 46.7303 173.364 46.7303 174.744V178.092C46.7303 178.332 46.7243 178.548 46.7123 178.74C46.7123 178.92 46.6943 179.112 46.6582 179.316C46.8503 179.304 47.0363 179.298 47.2163 179.298C47.4083 179.286 47.6003 179.274 47.7923 179.262V180H44.1203V179.46C44.4923 179.46 44.7503 179.37 44.8943 179.19C45.0383 178.998 45.1223 178.74 45.1463 178.416C45.1703 178.08 45.1823 177.696 45.1823 177.264V174.744C45.1703 173.712 44.9963 172.932 44.6603 172.404C44.3363 171.876 43.8203 171.618 43.1123 171.63C42.6803 171.642 42.2543 171.756 41.8343 171.972C41.4263 172.188 41.0843 172.464 40.8083 172.8C40.8203 172.896 40.8263 173.004 40.8263 173.124C40.8263 173.244 40.8263 173.37 40.8263 173.502L40.8083 178.092C40.8083 178.332 40.8023 178.548 40.7903 178.74C40.7903 178.92 40.7723 179.112 40.7363 179.316C40.9283 179.304 41.1143 179.298 41.2943 179.298C41.4863 179.286 41.6783 179.274 41.8703 179.262V180H38.1983ZM53.4878 180.288C52.6598 180.288 51.9098 180.096 51.2378 179.712C50.5778 179.316 50.0558 178.764 49.6718 178.056C49.2878 177.336 49.0958 176.49 49.0958 175.518C49.0958 174.678 49.2818 173.892 49.6538 173.16C50.0378 172.428 50.5718 171.84 51.2558 171.396C51.9398 170.94 52.7318 170.712 53.6318 170.712C54.3038 170.712 54.9158 170.856 55.4678 171.144C56.0198 171.432 56.4578 171.87 56.7818 172.458C57.1178 173.046 57.2858 173.79 57.2858 174.69L50.9498 174.798C50.9378 176.178 51.1658 177.288 51.6338 178.128C52.1018 178.956 52.8638 179.37 53.9198 179.37C54.2918 179.37 54.6698 179.304 55.0538 179.172C55.4498 179.04 55.8158 178.86 56.1518 178.632C56.4878 178.404 56.7578 178.152 56.9618 177.876L57.3938 178.236C57.0698 178.74 56.6798 179.142 56.2238 179.442C55.7678 179.742 55.2998 179.958 54.8198 180.09C54.3398 180.222 53.8958 180.288 53.4878 180.288ZM51.0038 174.042H55.5938C55.5938 173.61 55.5278 173.196 55.3958 172.8C55.2758 172.392 55.0718 172.062 54.7838 171.81C54.4958 171.546 54.1178 171.414 53.6498 171.414C52.9538 171.414 52.3718 171.624 51.9038 172.044C51.4478 172.452 51.1478 173.118 51.0038 174.042ZM62.1487 180.288C61.8727 180.288 61.5907 180.246 61.3027 180.162C61.0147 180.09 60.7447 179.94 60.4927 179.712C60.2527 179.484 60.0607 179.154 59.9167 178.722C59.7727 178.278 59.7007 177.696 59.7007 176.976L59.7367 171.756L58.3507 171.774V171C58.6627 170.988 58.9807 170.874 59.3047 170.658C59.6287 170.43 59.9167 170.124 60.1687 169.74C60.4327 169.356 60.6127 168.936 60.7087 168.48H61.3207V171H64.3447V171.702L61.3207 171.738L61.2847 176.742C61.2847 177.558 61.3867 178.182 61.5907 178.614C61.8067 179.046 62.1607 179.262 62.6527 179.262C62.9887 179.262 63.3007 179.166 63.5887 178.974C63.8887 178.782 64.1527 178.518 64.3807 178.182L64.8667 178.578C64.5187 179.106 64.1707 179.49 63.8227 179.73C63.4867 179.97 63.1747 180.12 62.8867 180.18C62.5987 180.252 62.3527 180.288 62.1487 180.288Z" fill="white"/>
</svg>
